EncodeSansSemiExpanded-Black.ufo
<glyph name="exclam" format="2">
  <advance width="698.0"/>
  <unicode hex="0021"/>
  <outline>
    <contour>
      <point x="218.0" y="532.0" type="line"/>
      <point x="485.5" y="532.0" type="line"/>
      <point x="584.0" y="996.0" type="line"/>
      <point x="584.0" y="1480.0" type="line"/>
      <point x="114.0" y="1480.0" type="line"/>
      <point x="114.0" y="996.0" type="line"/>
    </contour>
    <contour>
      <point x="349.0" y="-20.0" type="curve" smooth="yes"/>
      <point x="521.5" y="-20.0"/>
      <point x="628.0" y="74.5"/>
      <point x="628.0" y="216.0" type="curve" smooth="yes"/>
      <point x="628.0" y="357.5"/>
      <point x="525.5" y="452.0"/>
      <point x="349.0" y="452.0" type="curve" smooth="yes"/>
      <point x="172.5" y="452.0"/>
      <point x="70.0" y="361.5"/>
      <point x="70.0" y="216.0" type="curve" smooth="yes"/>
      <point x="70.0" y="70.5"/>
      <point x="176.5" y="-20.0"/>
    </contour>
  </outline>
</glyph>
<glyph name="quotedbl" format="2">
  <advance width="1072.0"/>
  <unicode hex="0022"/>
  <outline>
    <contour>
      <point x="138.5" y="791.0" type="line"/>
      <point x="408.5" y="791.0" type="line"/>
      <point x="487.0" y="1616.0" type="line"/>
      <point x="60.0" y="1616.0" type="line"/>
    </contour>
    <contour>
      <point x="663.5" y="791.0" type="line"/>
      <point x="933.5" y="791.0" type="line"/>
      <point x="1012.0" y="1616.0" type="line"/>
      <point x="585.0" y="1616.0" type="line"/>
    </contour>
  </outline>
</glyph>
<glyph name="numbersign" format="2">
  <advance width="1380.0"/>
  <unicode hex="0023"/>
  <outline>
    <contour>
      <point x="674.5" y="0.0" type="line"/>
      <point x="1012.0" y="0.0" type="line"/>
      <point x="1181.0" y="1480.0" type="line"/>
      <point x="843.5" y="1480.0" type="line"/>
    </contour>
    <contour>
      <point x="105.0" y="335.0" type="line"/>
      <point x="1275.0" y="335.0" type="line"/>
      <point x="1275.0" y="666.0" type="line"/>
      <point x="105.0" y="666.0" type="line"/>
    </contour>
    <contour>
      <point x="199.0" y="0.0" type="line"/>
      <point x="536.5" y="0.0" type="line"/>
      <point x="705.5" y="1480.0" type="line"/>
      <point x="368.0" y="1480.0" type="line"/>
    </contour>
    <contour>
      <point x="105.0" y="814.0" type="line"/>
      <point x="1275.0" y="814.0" type="line"/>
      <point x="1275.0" y="1145.0" type="line"/>
      <point x="105.0" y="1145.0" type="line"/>
    </contour>
  </outline>
</glyph>
<glyph name="dollar" format="2">
  <advance width="1296.0"/>
  <unicode hex="0024"/>
  <outline>
    <contour>
      <point x="562.0" y="-20.0" type="curve" smooth="yes"/>
      <point x="990.0" y="-20.0"/>
      <point x="1243.0" y="166.0"/>
      <point x="1243.0" y="463.5" type="curve" smooth="yes"/>
      <point x="1243.0" y="696.5"/>
      <point x="1108.5" y="841.0"/>
      <point x="773.5" y="913.0" type="curve" smooth="yes"/>
      <point x="635.5" y="944.0" type="line" smooth="yes"/>
      <point x="525.0" y="970.0"/>
      <point x="501.0" y="993.5"/>
      <point x="501.0" y="1040.5" type="curve" smooth="yes"/>
      <point x="501.0" y="1099.5"/>
      <point x="557.5" y="1146.5"/>
      <point x="803.5" y="1146.5" type="curve" smooth="yes"/>
      <point x="918.5" y="1146.5"/>
      <point x="1063.0" y="1128.5"/>
      <point x="1158.0" y="1102.5" type="curve"/>
      <point x="1158.0" y="1460.0" type="line"/>
      <point x="1057.5" y="1483.0"/>
      <point x="922.0" y="1500.0"/>
      <point x="776.0" y="1500.0" type="curve" smooth="yes"/>
      <point x="287.0" y="1500.0"/>
      <point x="53.0" y="1325.5"/>
      <point x="53.0" y="1021.0" type="curve" smooth="yes"/>
      <point x="53.0" y="784.0"/>
      <point x="188.5" y="642.0"/>
      <point x="492.5" y="576.5" type="curve" smooth="yes"/>
      <point x="630.5" y="545.5" type="line" smooth="yes"/>
      <point x="766.5" y="515.0"/>
      <point x="795.0" y="489.0"/>
      <point x="795.0" y="436.5" type="curve" smooth="yes"/>
      <point x="795.0" y="375.0"/>
      <point x="750.0" y="333.5"/>
      <point x="556.0" y="333.5" type="curve" smooth="yes"/>
      <point x="432.5" y="333.5"/>
      <point x="228.5" y="359.0"/>
      <point x="96.0" y="400.0" type="curve"/>
      <point x="96.0" y="42.5" type="line"/>
      <point x="229.5" y="4.5"/>
      <point x="392.0" y="-20.0"/>
    </contour>
    <contour>
      <point x="437.5" y="-240.0" type="line"/>
      <point x="857.5" y="-240.0" type="line"/>
      <point x="857.5" y="70.0" type="line"/>
      <point x="437.5" y="70.0" type="line"/>
    </contour>
    <contour>
      <point x="437.5" y="1420.0" type="line"/>
      <point x="857.5" y="1420.0" type="line"/>
      <point x="857.5" y="1720.0" type="line"/>
      <point x="437.5" y="1720.0" type="line"/>
    </contour>
  </outline>
</glyph>
<glyph name="percent" format="2">
  <advance width="2390.0"/>
  <unicode hex="0025"/>
  <note>
450
</note>
  <outline>
    <contour>
      <point x="666.5" y="0.0" type="line"/>
      <point x="1026.0" y="0.0" type="line"/>
      <point x="1723.5" y="1480.0" type="line"/>
      <point x="1364.0" y="1480.0" type="line"/>
    </contour>
    <contour>
      <point x="543.0" y="566.0" type="curve" smooth="yes"/>
      <point x="817.5" y="566.0"/>
      <point x="1006.0" y="734.0"/>
      <point x="1006.0" y="1032.5" type="curve" smooth="yes"/>
      <point x="1006.0" y="1331.0"/>
      <point x="817.5" y="1500.0"/>
      <point x="543.0" y="1500.0" type="curve" smooth="yes"/>
      <point x="268.5" y="1500.0"/>
      <point x="80.0" y="1331.0"/>
      <point x="80.0" y="1032.5" type="curve" smooth="yes"/>
      <point x="80.0" y="734.0"/>
      <point x="268.5" y="566.0"/>
    </contour>
    <contour>
      <point x="543.0" y="831.0" type="curve" smooth="yes"/>
      <point x="472.5" y="831.0"/>
      <point x="419.5" y="884.5"/>
      <point x="419.5" y="1032.5" type="curve" smooth="yes"/>
      <point x="419.5" y="1180.5"/>
      <point x="472.5" y="1235.0"/>
      <point x="543.0" y="1235.0" type="curve" smooth="yes"/>
      <point x="613.5" y="1235.0"/>
      <point x="666.5" y="1180.5"/>
      <point x="666.5" y="1032.5" type="curve" smooth="yes"/>
      <point x="666.5" y="884.5"/>
      <point x="613.5" y="831.0"/>
    </contour>
    <contour>
      <point x="1847.0" y="-18.0" type="curve" smooth="yes"/>
      <point x="2121.5" y="-18.0"/>
      <point x="2310.0" y="150.0"/>
      <point x="2310.0" y="448.5" type="curve" smooth="yes"/>
      <point x="2310.0" y="747.0"/>
      <point x="2121.5" y="916.0"/>
      <point x="1847.0" y="916.0" type="curve" smooth="yes"/>
      <point x="1572.5" y="916.0"/>
      <point x="1384.0" y="747.0"/>
      <point x="1384.0" y="448.5" type="curve" smooth="yes"/>
      <point x="1384.0" y="150.0"/>
      <point x="1572.5" y="-18.0"/>
    </contour>
    <contour>
      <point x="1847.0" y="247.0" type="curve" smooth="yes"/>
      <point x="1776.5" y="247.0"/>
      <point x="1723.5" y="300.5"/>
      <point x="1723.5" y="448.5" type="curve" smooth="yes"/>
      <point x="1723.5" y="596.5"/>
      <point x="1776.5" y="651.0"/>
      <point x="1847.0" y="651.0" type="curve" smooth="yes"/>
      <point x="1917.5" y="651.0"/>
      <point x="1970.5" y="596.5"/>
      <point x="1970.5" y="448.5" type="curve" smooth="yes"/>
      <point x="1970.5" y="300.5"/>
      <point x="1917.5" y="247.0"/>
    </contour>
  </outline>
</glyph>
<glyph name="ampersand" format="2">
  <advance width="1760.0"/>
  <unicode hex="0026"/>
  <outline>
    <contour>
      <point x="1573.5" y="-20.0" type="line"/>
      <point x="1760.0" y="302.5" type="line"/>
      <point x="791.0" y="867.5" type="line" smooth="yes"/>
      <point x="708.5" y="915.5"/>
      <point x="674.5" y="955.5"/>
      <point x="674.5" y="1008.0" type="curve" smooth="yes"/>
      <point x="674.5" y="1089.0"/>
      <point x="734.5" y="1146.5"/>
      <point x="975.0" y="1146.5" type="curve" smooth="yes"/>
      <point x="1060.5" y="1146.5"/>
      <point x="1159.5" y="1135.0"/>
      <point x="1230.5" y="1121.5" type="curve"/>
      <point x="1230.5" y="1479.0" type="line"/>
      <point x="1144.5" y="1491.5"/>
      <point x="1052.5" y="1500.0"/>
      <point x="941.5" y="1500.0" type="curve" smooth="yes"/>
      <point x="456.0" y="1500.0"/>
      <point x="226.5" y="1318.0"/>
      <point x="226.5" y="1024.0" type="curve" smooth="yes"/>
      <point x="226.5" y="875.5"/>
      <point x="293.5" y="724.0"/>
      <point x="604.5" y="545.0" type="curve" smooth="yes"/>
    </contour>
    <contour>
      <point x="748.5" y="-18.0" type="curve" smooth="yes"/>
      <point x="1222.5" y="-18.0"/>
      <point x="1506.0" y="212.0"/>
      <point x="1506.0" y="666.0" type="curve" smooth="yes"/>
      <point x="1506.0" y="738.0"/>
      <point x="1494.5" y="826.0"/>
      <point x="1475.0" y="906.0" type="curve"/>
      <point x="1128.0" y="906.0" type="line"/>
      <point x="1147.5" y="826.0"/>
      <point x="1160.5" y="736.0"/>
      <point x="1160.5" y="662.0" type="curve" smooth="yes"/>
      <point x="1160.5" y="373.0"/>
      <point x="1002.5" y="285.0"/>
      <point x="802.0" y="285.0" type="curve" smooth="yes"/>
      <point x="639.5" y="285.0"/>
      <point x="541.5" y="345.0"/>
      <point x="541.5" y="454.0" type="curve" smooth="yes"/>
      <point x="541.5" y="532.0"/>
      <point x="578.5" y="586.0"/>
      <point x="630.0" y="632.0" type="curve"/>
      <point x="398.5" y="786.0" type="line"/>
      <point x="234.0" y="740.0"/>
      <point x="94.5" y="602.0"/>
      <point x="94.5" y="406.0" type="curve" smooth="yes"/>
      <point x="94.5" y="148.0"/>
      <point x="314.5" y="-18.0"/>
    </contour>
  </outline>
</glyph>
<glyph name="quotesingle" format="2">
  <advance width="547.0"/>
  <unicode hex="0027"/>
  <outline>
    <contour>
      <point x="138.5" y="791.0" type="line"/>
      <point x="408.5" y="791.0" type="line"/>
      <point x="487.0" y="1616.0" type="line"/>
      <point x="60.0" y="1616.0" type="line"/>
    </contour>
  </outline>
</glyph>
<glyph name="parenleft" format="2">
  <advance width="794.0"/>
  <unicode hex="0028"/>
  <outline>
    <contour>
      <point x="477.0" y="-440.0" type="curve"/>
      <point x="946.5" y="-440.0" type="line"/>
      <point x="659.0" y="-134.5"/>
      <point x="548.0" y="178.5"/>
      <point x="548.0" y="588.0" type="curve" smooth="yes"/>
      <point x="548.0" y="997.5"/>
      <point x="659.0" y="1310.5"/>
      <point x="946.5" y="1616.0" type="curve"/>
      <point x="477.0" y="1616.0" type="line"/>
      <point x="202.5" y="1356.5"/>
      <point x="96.5" y="998.5"/>
      <point x="96.5" y="588.0" type="curve" smooth="yes"/>
      <point x="96.5" y="177.5"/>
      <point x="202.5" y="-180.5"/>
    </contour>
  </outline>
</glyph>
<glyph name="parenright" format="2">
  <advance width="794.0"/>
  <unicode hex="0029"/>
  <outline>
    <contour>
      <point x="-152.5" y="-440.0" type="curve"/>
      <point x="317.0" y="-440.0" type="line"/>
      <point x="591.5" y="-180.5"/>
      <point x="697.5" y="177.5"/>
      <point x="697.5" y="588.0" type="curve" smooth="yes"/>
      <point x="697.5" y="998.5"/>
      <point x="591.5" y="1356.5"/>
      <point x="317.0" y="1616.0" type="curve"/>
      <point x="-152.5" y="1616.0" type="line"/>
      <point x="135.0" y="1310.5"/>
      <point x="246.0" y="997.5"/>
      <point x="246.0" y="588.0" type="curve" smooth="yes"/>
      <point x="246.0" y="178.5"/>
      <point x="135.0" y="-134.5"/>
    </contour>
  </outline>
</glyph>
<glyph name="asterisk" format="2">
  <advance width="1090.0"/>
  <unicode hex="002A"/>
  <outline>
    <contour>
      <point x="712.0" y="1107.5" type="line"/>
      <point x="886.5" y="1122.5" type="line"/>
      <point x="1060.0" y="1178.5" type="line"/>
      <point x="973.5" y="1444.0" type="line"/>
      <point x="800.0" y="1387.5" type="line"/>
      <point x="641.5" y="1289.5" type="line"/>
      <point x="684.5" y="1472.0" type="line"/>
      <point x="684.5" y="1616.0" type="line"/>
      <point x="405.5" y="1616.0" type="line"/>
      <point x="405.5" y="1472.0" type="line"/>
      <point x="448.5" y="1289.5" type="line"/>
      <point x="290.0" y="1387.5" type="line"/>
      <point x="116.5" y="1444.0" type="line"/>
      <point x="30.0" y="1178.5" type="line"/>
      <point x="203.5" y="1122.5" type="line"/>
      <point x="378.0" y="1107.5" type="line"/>
      <point x="241.0" y="989.5" type="line"/>
      <point x="154.0" y="867.5" type="line"/>
      <point x="380.0" y="704.0" type="line"/>
      <point x="467.0" y="824.5" type="line"/>
      <point x="545.0" y="1012.5" type="line"/>
      <point x="623.0" y="824.5" type="line"/>
      <point x="710.0" y="704.0" type="line"/>
      <point x="936.0" y="867.5" type="line"/>
      <point x="849.0" y="989.5" type="line"/>
    </contour>
  </outline>
</glyph>
<glyph name="plus" format="2">
  <advance width="1156.0"/>
  <unicode hex="002B"/>
  <outline>
    <contour>
      <point x="405.5" y="282.0" type="line"/>
      <point x="750.5" y="282.0" type="line"/>
      <point x="750.5" y="595.0" type="line"/>
      <point x="1051.0" y="595.0" type="line"/>
      <point x="1051.0" y="925.0" type="line"/>
      <point x="750.5" y="925.0" type="line"/>
      <point x="750.5" y="1238.0" type="line"/>
      <point x="405.5" y="1238.0" type="line"/>
      <point x="405.5" y="925.0" type="line"/>
      <point x="105.0" y="925.0" type="line"/>
      <point x="105.0" y="595.0" type="line"/>
      <point x="405.5" y="595.0" type="line"/>
    </contour>
  </outline>
</glyph>
<glyph name="comma" format="2">
  <advance width="658.0"/>
  <unicode hex="002C"/>
  <outline>
    <contour>
      <point x="155.0" y="-360.0" type="curve"/>
      <point x="404.0" y="-360.0" type="line"/>
      <point x="527.0" y="-218.0"/>
      <point x="605.0" y="-24.0"/>
      <point x="605.0" y="157.5" type="curve" smooth="yes"/>
      <point x="605.0" y="374.5"/>
      <point x="508.0" y="485.0"/>
      <point x="323.0" y="485.0" type="curve" smooth="yes"/>
      <point x="152.5" y="485.0"/>
      <point x="50.0" y="390.0"/>
      <point x="50.0" y="232.5" type="curve" smooth="yes"/>
      <point x="50.0" y="76.5"/>
      <point x="157.5" y="-20.0"/>
      <point x="329.0" y="-20.0" type="curve" smooth="yes"/>
      <point x="383.0" y="-20.0" type="line"/>
      <point x="282.5" y="52.0" type="line"/>
      <point x="282.5" y="-82.0"/>
      <point x="236.0" y="-206.0"/>
    </contour>
  </outline>
</glyph>
<glyph name="hyphen" format="2">
  <advance width="1053.0"/>
  <unicode hex="002D"/>
  <outline>
    <contour>
      <point x="105.0" y="391.5" type="line"/>
      <point x="948.0" y="391.5" type="line"/>
      <point x="948.0" y="748.5" type="line"/>
      <point x="105.0" y="748.5" type="line"/>
    </contour>
  </outline>
</glyph>
<glyph name="period" format="2">
  <advance width="658.0"/>
  <unicode hex="002E"/>
  <outline>
    <contour>
      <point x="329.0" y="-20.0" type="curve" smooth="yes"/>
      <point x="501.5" y="-20.0"/>
      <point x="608.0" y="80.5"/>
      <point x="608.0" y="232.5" type="curve" smooth="yes"/>
      <point x="608.0" y="384.5"/>
      <point x="505.5" y="485.0"/>
      <point x="329.0" y="485.0" type="curve" smooth="yes"/>
      <point x="152.5" y="485.0"/>
      <point x="50.0" y="388.5"/>
      <point x="50.0" y="232.5" type="curve" smooth="yes"/>
      <point x="50.0" y="76.5"/>
      <point x="156.5" y="-20.0"/>
    </contour>
  </outline>
</glyph>
<glyph name="slash" format="2">
  <advance width="980.5"/>
  <unicode hex="002F"/>
  <outline>
    <contour>
      <point x="0.0" y="-240.0" type="line"/>
      <point x="442.0" y="-240.0" type="line"/>
      <point x="980.5" y="1616.0" type="line"/>
      <point x="538.5" y="1616.0" type="line"/>
    </contour>
  </outline>
</glyph>
<glyph name="zero" format="2">
  <advance width="1485.5"/>
  <unicode hex="0030"/>
  <note>
600
</note>
  <outline>
    <contour>
      <point x="742.0" y="-20.0" type="curve" smooth="yes"/>
      <point x="1147.0" y="-20.0"/>
      <point x="1399.0" y="231.0"/>
      <point x="1399.0" y="740.0" type="curve" smooth="yes"/>
      <point x="1399.0" y="1249.0"/>
      <point x="1147.0" y="1500.0"/>
      <point x="742.0" y="1500.0" type="curve" smooth="yes"/>
      <point x="337.0" y="1500.0"/>
      <point x="86.5" y="1249.0"/>
      <point x="86.5" y="740.0" type="curve" smooth="yes"/>
      <point x="86.5" y="231.0"/>
      <point x="337.0" y="-20.0"/>
    </contour>
    <contour>
      <point x="743.5" y="344.5" type="curve" smooth="yes"/>
      <point x="604.5" y="344.5"/>
      <point x="529.5" y="439.0"/>
      <point x="529.5" y="740.0" type="curve" smooth="yes"/>
      <point x="529.5" y="1041.0"/>
      <point x="607.5" y="1135.5"/>
      <point x="743.5" y="1135.5" type="curve" smooth="yes"/>
      <point x="878.0" y="1135.5"/>
      <point x="956.0" y="1041.0"/>
      <point x="956.0" y="740.0" type="curve" smooth="yes"/>
      <point x="956.0" y="439.0"/>
      <point x="878.0" y="344.5"/>
    </contour>
  </outline>
</glyph>
<glyph name="one" format="2">
  <advance width="985.0"/>
  <unicode hex="0031"/>
  <outline>
    <contour>
      <point x="400.5" y="0.0" type="line"/>
      <point x="855.5" y="0.0" type="line"/>
      <point x="855.5" y="1486.0" type="line"/>
      <point x="555.5" y="1486.0" type="line"/>
      <point x="39.5" y="1125.0" type="line"/>
      <point x="39.5" y="706.0" type="line"/>
      <point x="555.5" y="1067.0" type="line"/>
      <point x="400.5" y="1244.0" type="line"/>
    </contour>
  </outline>
</glyph>
<glyph name="two" format="2">
  <advance width="1207.0"/>
  <unicode hex="0032"/>
  <outline>
    <contour>
      <point x="44.0" y="0.0" type="line"/>
      <point x="1157.0" y="0.0" type="line"/>
      <point x="1157.0" y="361.5" type="line"/>
      <point x="542.0" y="361.5" type="line"/>
      <point x="543.5" y="248.0" type="line"/>
      <point x="871.0" y="590.5" type="line" smooth="yes"/>
      <point x="1032.0" y="760.5"/>
      <point x="1088.5" y="900.5"/>
      <point x="1088.5" y="1049.5" type="curve" smooth="yes"/>
      <point x="1088.5" y="1357.0"/>
      <point x="881.0" y="1500.0"/>
      <point x="432.5" y="1500.0" type="curve" smooth="yes"/>
      <point x="299.0" y="1500.0"/>
      <point x="121.5" y="1472.5"/>
      <point x="25.5" y="1442.5" type="curve"/>
      <point x="25.5" y="1085.0" type="line"/>
      <point x="117.5" y="1118.5"/>
      <point x="259.0" y="1146.5"/>
      <point x="390.0" y="1146.5" type="curve" smooth="yes"/>
      <point x="580.0" y="1146.5"/>
      <point x="642.0" y="1096.5"/>
      <point x="642.0" y="1000.5" type="curve" smooth="yes"/>
      <point x="642.0" y="927.5"/>
      <point x="601.5" y="851.0"/>
      <point x="482.5" y="719.5" type="curve" smooth="yes"/>
      <point x="44.0" y="236.5" type="line"/>
    </contour>
  </outline>
</glyph>
<glyph name="three" format="2">
  <advance width="1213.5"/>
  <unicode hex="0033"/>
  <outline>
    <contour>
      <point x="485.5" y="-20.0" type="curve" smooth="yes"/>
      <point x="949.0" y="-20.0"/>
      <point x="1152.0" y="151.0"/>
      <point x="1152.0" y="421.5" type="curve" smooth="yes"/>
      <point x="1152.0" y="624.0"/>
      <point x="1031.0" y="735.5"/>
      <point x="836.5" y="768.0" type="curve"/>
      <point x="836.5" y="756.0" type="line"/>
      <point x="999.0" y="793.5"/>
      <point x="1101.0" y="917.0"/>
      <point x="1101.0" y="1082.5" type="curve" smooth="yes"/>
      <point x="1101.0" y="1347.5"/>
      <point x="901.5" y="1500.0"/>
      <point x="481.5" y="1500.0" type="curve" smooth="yes"/>
      <point x="343.0" y="1500.0"/>
      <point x="171.5" y="1475.5"/>
      <point x="68.5" y="1442.5" type="curve"/>
      <point x="68.5" y="1119.0" type="line"/>
      <point x="174.5" y="1155.0"/>
      <point x="316.0" y="1177.5"/>
      <point x="434.5" y="1177.5" type="curve" smooth="yes"/>
      <point x="604.0" y="1177.5"/>
      <point x="668.5" y="1129.0"/>
      <point x="668.5" y="1044.0" type="curve" smooth="yes"/>
      <point x="668.5" y="967.5"/>
      <point x="615.0" y="918.0"/>
      <point x="428.5" y="918.0" type="curve" smooth="yes"/>
      <point x="191.5" y="918.0" type="line"/>
      <point x="191.5" y="592.0" type="line"/>
      <point x="464.0" y="592.0" type="line" smooth="yes"/>
      <point x="668.0" y="592.0"/>
      <point x="730.0" y="543.0"/>
      <point x="730.0" y="449.5" type="curve" smooth="yes"/>
      <point x="730.0" y="355.5"/>
      <point x="658.0" y="302.5"/>
      <point x="462.0" y="302.5" type="curve" smooth="yes"/>
      <point x="322.0" y="302.5"/>
      <point x="165.0" y="325.5"/>
      <point x="45.5" y="354.5" type="curve"/>
      <point x="45.5" y="31.0" type="line"/>
      <point x="174.0" y="0.0"/>
      <point x="322.0" y="-20.0"/>
    </contour>
  </outline>
</glyph>
<glyph name="four" format="2">
  <advance width="1413.0"/>
  <unicode hex="0034"/>
  <outline>
    <contour>
      <point x="32.0" y="263.5" type="line"/>
      <point x="1383.5" y="263.5" type="line"/>
      <point x="1383.5" y="608.5" type="line"/>
      <point x="431.5" y="608.5" type="line"/>
      <point x="471.5" y="506.0" type="line"/>
      <point x="964.5" y="1480.0" type="line"/>
      <point x="531.5" y="1480.0" type="line"/>
      <point x="32.0" y="506.0" type="line"/>
    </contour>
    <contour>
      <point x="789.0" y="0.0" type="line"/>
      <point x="1195.0" y="0.0" type="line"/>
      <point x="1195.0" y="980.0" type="line"/>
      <point x="829.0" y="980.0" type="line"/>
      <point x="789.0" y="608.5" type="line"/>
    </contour>
  </outline>
</glyph>
<glyph name="five" format="2">
  <advance width="1226.5"/>
  <unicode hex="0035"/>
  <outline>
    <contour>
      <point x="511.0" y="-20.0" type="curve" smooth="yes"/>
      <point x="961.0" y="-20.0"/>
      <point x="1176.0" y="151.0"/>
      <point x="1177.5" y="457.5" type="curve" smooth="yes"/>
      <point x="1179.0" y="747.0"/>
      <point x="990.5" y="905.5"/>
      <point x="487.0" y="930.5" type="curve" smooth="yes"/>
      <point x="262.5" y="941.5" type="line"/>
      <point x="547.0" y="794.0" type="line"/>
      <point x="585.0" y="1340.0" type="line"/>
      <point x="393.0" y="1147.5" type="line"/>
      <point x="1115.0" y="1147.5" type="line"/>
      <point x="1115.0" y="1480.0" type="line"/>
      <point x="169.5" y="1480.0" type="line"/>
      <point x="114.5" y="623.5" type="line"/>
      <point x="339.0" y="612.5" type="line" smooth="yes"/>
      <point x="687.0" y="593.5"/>
      <point x="754.0" y="544.5"/>
      <point x="754.0" y="450.5" type="curve" smooth="yes"/>
      <point x="754.0" y="361.5"/>
      <point x="682.0" y="308.5"/>
      <point x="487.5" y="308.5" type="curve" smooth="yes"/>
      <point x="347.5" y="308.5"/>
      <point x="190.5" y="332.0"/>
      <point x="71.0" y="361.5" type="curve"/>
      <point x="71.0" y="38.0" type="line"/>
      <point x="199.5" y="3.5"/>
      <point x="347.5" y="-20.0"/>
    </contour>
  </outline>
</glyph>
<glyph name="six" format="2">
  <advance width="1394.5"/>
  <unicode hex="0036"/>
  <outline>
    <contour>
      <point x="751.0" y="-20.0" type="curve" smooth="yes"/>
      <point x="1127.0" y="-20.0"/>
      <point x="1339.0" y="173.0"/>
      <point x="1339.0" y="459.5" type="curve" smooth="yes"/>
      <point x="1339.0" y="781.0"/>
      <point x="1124.0" y="918.0"/>
      <point x="830.0" y="918.0" type="curve" smooth="yes"/>
      <point x="691.5" y="918.0"/>
      <point x="546.5" y="876.5"/>
      <point x="469.5" y="808.5" type="curve"/>
      <point x="469.5" y="518.0" type="line"/>
      <point x="546.5" y="578.5"/>
      <point x="639.5" y="608.0"/>
      <point x="736.5" y="608.0" type="curve" smooth="yes"/>
      <point x="857.5" y="608.0"/>
      <point x="932.5" y="559.0"/>
      <point x="932.5" y="448.5" type="curve" smooth="yes"/>
      <point x="932.5" y="344.5"/>
      <point x="863.5" y="291.0"/>
      <point x="752.0" y="291.0" type="curve" smooth="yes"/>
      <point x="616.5" y="291.0"/>
      <point x="534.0" y="362.5"/>
      <point x="534.0" y="619.0" type="curve" smooth="yes"/>
      <point x="534.0" y="815.0" type="line" smooth="yes"/>
      <point x="534.0" y="1039.0"/>
      <point x="655.0" y="1169.5"/>
      <point x="931.0" y="1169.5" type="curve" smooth="yes"/>
      <point x="1041.5" y="1169.5"/>
      <point x="1155.5" y="1152.0"/>
      <point x="1254.5" y="1117.5" type="curve"/>
      <point x="1254.5" y="1449.0" type="line"/>
      <point x="1150.0" y="1487.0"/>
      <point x="1036.5" y="1500.0"/>
      <point x="902.5" y="1500.0" type="curve" smooth="yes"/>
      <point x="380.0" y="1500.0"/>
      <point x="96.0" y="1214.0"/>
      <point x="96.0" y="687.0" type="curve" smooth="yes"/>
      <point x="96.0" y="208.0"/>
      <point x="360.5" y="-20.0"/>
    </contour>
  </outline>
</glyph>
<glyph name="seven" format="2">
  <advance width="1151.0"/>
  <unicode hex="0037"/>
  <outline>
    <contour>
      <point x="172.5" y="0.0" type="line"/>
      <point x="635.5" y="0.0" type="line"/>
      <point x="1093.5" y="1243.5" type="line"/>
      <point x="1093.5" y="1480.0" type="line"/>
      <point x="11.5" y="1480.0" type="line"/>
      <point x="11.5" y="1118.5" type="line"/>
      <point x="814.5" y="1118.5" type="line"/>
      <point x="665.0" y="1243.5" type="line"/>
    </contour>
  </outline>
</glyph>
<glyph name="eight" format="2">
  <advance width="1485.5"/>
  <unicode hex="0038"/>
  <outline>
    <contour>
      <point x="744.0" y="-20.0" type="curve" smooth="yes"/>
      <point x="1205.5" y="-20.0"/>
      <point x="1405.5" y="183.0"/>
      <point x="1405.5" y="427.0" type="curve" smooth="yes"/>
      <point x="1405.5" y="642.5"/>
      <point x="1289.0" y="787.5"/>
      <point x="878.5" y="891.5" type="curve" smooth="yes"/>
      <point x="582.0" y="966.0"/>
      <point x="538.5" y="1007.5"/>
      <point x="538.5" y="1086.0" type="curve" smooth="yes"/>
      <point x="538.5" y="1147.0"/>
      <point x="597.5" y="1202.5"/>
      <point x="766.5" y="1202.5" type="curve" smooth="yes"/>
      <point x="913.0" y="1202.5"/>
      <point x="978.0" y="1155.0"/>
      <point x="978.0" y="1076.0" type="curve" smooth="yes"/>
      <point x="978.0" y="998.5"/>
      <point x="930.0" y="930.5"/>
      <point x="799.5" y="866.0" type="curve"/>
      <point x="1056.5" y="765.0" type="line"/>
      <point x="1293.5" y="844.5"/>
      <point x="1367.0" y="981.0"/>
      <point x="1367.0" y="1127.0" type="curve" smooth="yes"/>
      <point x="1367.0" y="1360.0"/>
      <point x="1156.0" y="1500.0"/>
      <point x="776.0" y="1500.0" type="curve" smooth="yes"/>
      <point x="321.0" y="1500.0"/>
      <point x="114.5" y="1317.5"/>
      <point x="114.5" y="1068.0" type="curve" smooth="yes"/>
      <point x="114.5" y="856.0"/>
      <point x="241.0" y="685.0"/>
      <point x="649.5" y="592.5" type="curve" smooth="yes"/>
      <point x="927.5" y="530.0"/>
      <point x="987.5" y="484.0"/>
      <point x="987.5" y="400.0" type="curve" smooth="yes"/>
      <point x="987.5" y="325.0"/>
      <point x="922.0" y="277.5"/>
      <point x="745.5" y="277.5" type="curve" smooth="yes"/>
      <point x="569.5" y="277.5"/>
      <point x="496.0" y="332.0"/>
      <point x="496.0" y="422.5" type="curve" smooth="yes"/>
      <point x="496.0" y="496.5"/>
      <point x="548.0" y="581.5"/>
      <point x="699.0" y="630.0" type="curve"/>
      <point x="413.5" y="726.5" type="line"/>
      <point x="193.0" y="665.0"/>
      <point x="75.0" y="532.0"/>
      <point x="75.0" y="363.0" type="curve" smooth="yes"/>
      <point x="75.0" y="148.0"/>
      <point x="260.0" y="-20.0"/>
    </contour>
  </outline>
</glyph>
<glyph name="nine" format="2">
  <advance width="1394.5"/>
  <unicode hex="0039"/>
  <outline>
    <contour>
      <point x="643.5" y="1500.0" type="curve" smooth="yes"/>
      <point x="267.5" y="1500.0"/>
      <point x="55.5" y="1307.0"/>
      <point x="55.5" y="1020.5" type="curve" smooth="yes"/>
      <point x="55.5" y="699.0"/>
      <point x="270.5" y="562.0"/>
      <point x="564.5" y="562.0" type="curve" smooth="yes"/>
      <point x="703.0" y="562.0"/>
      <point x="848.0" y="603.5"/>
      <point x="925.0" y="671.5" type="curve"/>
      <point x="925.0" y="962.0" type="line"/>
      <point x="848.0" y="901.5"/>
      <point x="755.0" y="872.0"/>
      <point x="658.0" y="872.0" type="curve" smooth="yes"/>
      <point x="537.0" y="872.0"/>
      <point x="462.0" y="921.0"/>
      <point x="462.0" y="1031.5" type="curve" smooth="yes"/>
      <point x="462.0" y="1135.5"/>
      <point x="531.0" y="1189.0"/>
      <point x="642.5" y="1189.0" type="curve" smooth="yes"/>
      <point x="778.0" y="1189.0"/>
      <point x="860.5" y="1117.5"/>
      <point x="860.5" y="861.0" type="curve" smooth="yes"/>
      <point x="860.5" y="665.0" type="line" smooth="yes"/>
      <point x="860.5" y="441.0"/>
      <point x="739.5" y="310.5"/>
      <point x="463.5" y="310.5" type="curve" smooth="yes"/>
      <point x="353.0" y="310.5"/>
      <point x="239.0" y="328.0"/>
      <point x="140.0" y="362.5" type="curve"/>
      <point x="140.0" y="31.0" type="line"/>
      <point x="244.5" y="-7.0"/>
      <point x="358.0" y="-20.0"/>
      <point x="492.0" y="-20.0" type="curve" smooth="yes"/>
      <point x="1014.5" y="-20.0"/>
      <point x="1298.5" y="266.0"/>
      <point x="1298.5" y="793.0" type="curve" smooth="yes"/>
      <point x="1298.5" y="1272.0"/>
      <point x="1034.0" y="1500.0"/>
    </contour>
  </outline>
</glyph>
<glyph name="colon" format="2">
  <advance width="658.0"/>
  <unicode hex="003A"/>
  <outline>
    <contour>
      <point x="329.0" y="-20.0" type="curve" smooth="yes"/>
      <point x="501.5" y="-20.0"/>
      <point x="608.0" y="80.5"/>
      <point x="608.0" y="232.5" type="curve" smooth="yes"/>
      <point x="608.0" y="384.5"/>
      <point x="505.5" y="485.0"/>
      <point x="329.0" y="485.0" type="curve" smooth="yes"/>
      <point x="152.5" y="485.0"/>
      <point x="50.0" y="388.5"/>
      <point x="50.0" y="232.5" type="curve" smooth="yes"/>
      <point x="50.0" y="76.5"/>
      <point x="156.5" y="-20.0"/>
    </contour>
    <contour>
      <point x="329.0" y="615.0" type="curve" smooth="yes"/>
      <point x="501.5" y="615.0"/>
      <point x="608.0" y="715.5"/>
      <point x="608.0" y="867.5" type="curve" smooth="yes"/>
      <point x="608.0" y="1019.5"/>
      <point x="505.5" y="1120.0"/>
      <point x="329.0" y="1120.0" type="curve" smooth="yes"/>
      <point x="152.5" y="1120.0"/>
      <point x="50.0" y="1023.5"/>
      <point x="50.0" y="867.5" type="curve" smooth="yes"/>
      <point x="50.0" y="711.5"/>
      <point x="156.5" y="615.0"/>
    </contour>
  </outline>
</glyph>
<glyph name="less" format="2">
  <advance width="1156.0"/>
  <unicode hex="003C"/>
  <outline>
    <contour>
      <point x="1051.0" y="223.0" type="line"/>
      <point x="1051.0" y="553.0" type="line"/>
      <point x="337.5" y="788.5" type="line"/>
      <point x="337.5" y="739.0" type="line"/>
      <point x="1051.0" y="967.0" type="line"/>
      <point x="1051.0" y="1297.0" type="line"/>
      <point x="105.0" y="969.0" type="line"/>
      <point x="105.0" y="551.0" type="line"/>
    </contour>
  </outline>
</glyph>
<glyph name="equal" format="2">
  <advance width="1156.0"/>
  <unicode hex="003D"/>
  <outline>
    <contour>
      <point x="105.0" y="840.0" type="line"/>
      <point x="1051.0" y="840.0" type="line"/>
      <point x="1051.0" y="1170.0" type="line"/>
      <point x="105.0" y="1170.0" type="line"/>
    </contour>
    <contour>
      <point x="105.0" y="350.0" type="line"/>
      <point x="1051.0" y="350.0" type="line"/>
      <point x="1051.0" y="680.0" type="line"/>
      <point x="105.0" y="680.0" type="line"/>
    </contour>
  </outline>
</glyph>
<glyph name="greater" format="2">
  <advance width="1156.0"/>
  <unicode hex="003E"/>
  <outline>
    <contour>
      <point x="105.0" y="223.0" type="line"/>
      <point x="1051.0" y="551.0" type="line"/>
      <point x="1051.0" y="969.0" type="line"/>
      <point x="105.0" y="1297.0" type="line"/>
      <point x="105.0" y="967.0" type="line"/>
      <point x="818.5" y="739.0" type="line"/>
      <point x="818.5" y="788.5" type="line"/>
      <point x="105.0" y="553.0" type="line"/>
    </contour>
  </outline>
</glyph>
<glyph name="question" format="2">
  <advance width="1119.0"/>
  <unicode hex="003F"/>
  <outline>
    <contour>
      <point x="373.0" y="532.0" type="line"/>
      <point x="640.5" y="532.0" type="line"/>
      <point x="669.0" y="666.5" type="line"/>
      <point x="908.5" y="725.0"/>
      <point x="1066.5" y="856.0"/>
      <point x="1066.5" y="1075.0" type="curve" smooth="yes"/>
      <point x="1066.5" y="1347.5"/>
      <point x="867.0" y="1500.0"/>
      <point x="447.0" y="1500.0" type="curve" smooth="yes"/>
      <point x="308.5" y="1500.0"/>
      <point x="137.0" y="1475.5"/>
      <point x="34.0" y="1442.5" type="curve"/>
      <point x="34.0" y="1104.0" type="line"/>
      <point x="140.0" y="1140.0"/>
      <point x="278.5" y="1162.5"/>
      <point x="397.0" y="1162.5" type="curve" smooth="yes"/>
      <point x="569.5" y="1162.5"/>
      <point x="634.0" y="1118.5"/>
      <point x="634.0" y="1041.0" type="curve" smooth="yes"/>
      <point x="634.0" y="969.0"/>
      <point x="565.0" y="906.0"/>
      <point x="296.5" y="875.5" type="curve"/>
    </contour>
    <contour>
      <point x="507.5" y="-20.0" type="curve" smooth="yes"/>
      <point x="680.0" y="-20.0"/>
      <point x="786.5" y="74.5"/>
      <point x="786.5" y="216.0" type="curve" smooth="yes"/>
      <point x="786.5" y="357.5"/>
      <point x="684.0" y="452.0"/>
      <point x="507.5" y="452.0" type="curve" smooth="yes"/>
      <point x="331.0" y="452.0"/>
      <point x="228.5" y="361.5"/>
      <point x="228.5" y="216.0" type="curve" smooth="yes"/>
      <point x="228.5" y="70.5"/>
      <point x="335.0" y="-20.0"/>
    </contour>
  </outline>
</glyph>
<glyph name="at" format="2">
  <advance width="2320.0"/>
  <unicode hex="0040"/>
  <outline>
    <contour>
      <point x="1208.0" y="-460.0" type="curve" smooth="yes"/>
      <point x="1387.0" y="-460.0"/>
      <point x="1560.5" y="-442.0"/>
      <point x="1732.0" y="-406.0" type="curve"/>
      <point x="1732.0" y="-135.0" type="line"/>
      <point x="1558.5" y="-171.0"/>
      <point x="1387.0" y="-189.0"/>
      <point x="1208.0" y="-189.0" type="curve" smooth="yes"/>
      <point x="633.0" y="-189.0"/>
      <point x="393.5" y="3.0"/>
      <point x="393.5" y="520.0" type="curve" smooth="yes"/>
      <point x="393.5" y="1037.0"/>
      <point x="633.0" y="1227.0"/>
      <point x="1168.5" y="1227.0" type="curve" smooth="yes"/>
      <point x="1705.5" y="1227.0"/>
      <point x="1945.5" y="1045.0"/>
      <point x="1950.5" y="580.0" type="curve" smooth="yes"/>
      <point x="1954.0" y="300.0"/>
      <point x="1896.0" y="246.0"/>
      <point x="1815.0" y="246.0" type="curve" smooth="yes"/>
      <point x="1762.0" y="246.0"/>
      <point x="1728.0" y="274.0"/>
      <point x="1728.0" y="344.0" type="curve" smooth="yes"/>
      <point x="1728.0" y="589.5" type="line" smooth="yes"/>
      <point x="1728.0" y="967.0"/>
      <point x="1554.0" y="1098.0"/>
      <point x="1138.0" y="1098.0" type="curve" smooth="yes"/>
      <point x="1008.0" y="1098.0"/>
      <point x="863.5" y="1077.0"/>
      <point x="741.5" y="1039.0" type="curve"/>
      <point x="740.5" y="721.5" type="line"/>
      <point x="837.5" y="755.0"/>
      <point x="962.0" y="775.5"/>
      <point x="1056.0" y="775.5" type="curve" smooth="yes"/>
      <point x="1237.5" y="775.5"/>
      <point x="1294.0" y="729.5"/>
      <point x="1294.0" y="609.0" type="curve" smooth="yes"/>
      <point x="1294.0" y="300.0" type="line"/>
      <point x="1264.0" y="282.0"/>
      <point x="1197.5" y="273.0"/>
      <point x="1169.0" y="273.0" type="curve" smooth="yes"/>
      <point x="1110.5" y="273.0"/>
      <point x="1055.5" y="294.0"/>
      <point x="1055.5" y="354.0" type="curve" smooth="yes"/>
      <point x="1055.5" y="418.0"/>
      <point x="1096.5" y="442.5"/>
      <point x="1185.0" y="448.0" type="curve" smooth="yes"/>
      <point x="1406.5" y="460.5" type="line"/>
      <point x="1360.5" y="680.5" type="line"/>
      <point x="1143.0" y="668.0" type="line" smooth="yes"/>
      <point x="775.0" y="646.5"/>
      <point x="618.5" y="525.5"/>
      <point x="618.5" y="310.5" type="curve" smooth="yes"/>
      <point x="618.5" y="114.5"/>
      <point x="757.0" y="-22.0"/>
      <point x="1019.5" y="-22.0" type="curve" smooth="yes"/>
      <point x="1145.5" y="-22.0"/>
      <point x="1264.5" y="14.0"/>
      <point x="1306.0" y="132.0" type="curve"/>
      <point x="1328.5" y="132.0" type="line"/>
      <point x="1405.5" y="26.0"/>
      <point x="1532.0" y="-22.0"/>
      <point x="1705.5" y="-22.0" type="curve" smooth="yes"/>
      <point x="2030.0" y="-22.0"/>
      <point x="2243.5" y="140.0"/>
      <point x="2243.5" y="588.0" type="curve" smooth="yes"/>
      <point x="2243.5" y="1194.0"/>
      <point x="1862.0" y="1498.0"/>
      <point x="1168.5" y="1498.0" type="curve" smooth="yes"/>
      <point x="476.5" y="1498.0"/>
      <point x="76.5" y="1194.0"/>
      <point x="76.5" y="520.0" type="curve" smooth="yes"/>
      <point x="76.5" y="-154.0"/>
      <point x="476.5" y="-460.0"/>
    </contour>
  </outline>
</glyph>
<glyph name="B" format="2">
  <advance width="1452.0"/>
  <unicode hex="0042"/>
  <anchor x="749.5" y="0.0" name="bottom"/>
  <anchor x="749.5" y="1480.0" name="top"/>
  <outline>
    <contour>
      <point x="591.5" y="-20.0" type="curve" smooth="yes"/>
      <point x="1203.0" y="-20.0"/>
      <point x="1405.0" y="149.5"/>
      <point x="1405.0" y="427.0" type="curve" smooth="yes"/>
      <point x="1405.0" y="635.0"/>
      <point x="1278.5" y="741.0"/>
      <point x="1118.5" y="768.0" type="curve"/>
      <point x="1118.5" y="756.0" type="line"/>
      <point x="1261.0" y="789.0"/>
      <point x="1366.0" y="912.5"/>
      <point x="1366.0" y="1073.0" type="curve" smooth="yes"/>
      <point x="1366.0" y="1351.5"/>
      <point x="1161.5" y="1500.0"/>
      <point x="668.5" y="1500.0" type="curve" smooth="yes"/>
      <point x="494.5" y="1500.0"/>
      <point x="272.0" y="1472.5"/>
      <point x="119.5" y="1436.5" type="curve"/>
      <point x="119.5" y="12.5" type="line"/>
      <point x="253.5" y="-6.0"/>
      <point x="461.5" y="-20.0"/>
    </contour>
    <contour>
      <point x="718.5" y="295.0" type="curve" smooth="yes"/>
      <point x="670.0" y="295.0"/>
      <point x="624.0" y="295.5"/>
      <point x="563.0" y="301.0" type="curve"/>
      <point x="563.0" y="1168.5" type="line"/>
      <point x="613.0" y="1178.0"/>
      <point x="670.5" y="1185.0"/>
      <point x="725.5" y="1185.0" type="curve" smooth="yes"/>
      <point x="889.0" y="1185.0"/>
      <point x="942.5" y="1141.5"/>
      <point x="942.5" y="1051.0" type="curve" smooth="yes"/>
      <point x="942.5" y="962.5"/>
      <point x="891.0" y="916.0"/>
      <point x="736.0" y="916.0" type="curve" smooth="yes"/>
      <point x="516.0" y="916.0" type="line"/>
      <point x="516.0" y="593.5" type="line"/>
      <point x="772.5" y="593.5" type="line" smooth="yes"/>
      <point x="938.0" y="593.5"/>
      <point x="992.0" y="547.5"/>
      <point x="992.0" y="443.5" type="curve" smooth="yes"/>
      <point x="992.0" y="345.5"/>
      <point x="933.0" y="295.0"/>
    </contour>
  </outline>
</glyph>
<glyph name="E" format="2">
  <advance width="1405.5"/>
  <unicode hex="0045"/>
  <anchor x="740.0" y="0.0" name="bottom"/>
  <anchor x="1231.5" y="0.0" name="ogonek"/>
  <anchor x="740.0" y="1520.0" name="top"/>
  <anchor x="39.0" y="1480.0" name="topleft"/>
  <outline>
    <contour>
      <point x="119.5" y="0.0" type="line"/>
      <point x="1326.5" y="0.0" type="line"/>
      <point x="1326.5" y="346.0" type="line"/>
      <point x="568.5" y="346.0" type="line"/>
      <point x="568.5" y="1134.0" type="line"/>
      <point x="1316.5" y="1134.0" type="line"/>
      <point x="1316.5" y="1480.0" type="line"/>
      <point x="119.5" y="1480.0" type="line"/>
    </contour>
    <contour>
      <point x="360.0" y="582.0" type="line"/>
      <point x="1211.0" y="582.0" type="line"/>
      <point x="1211.0" y="928.0" type="line"/>
      <point x="360.0" y="928.0" type="line"/>
    </contour>
  </outline>
</glyph>
<glyph name="F" format="2">
  <advance width="1373.0"/>
  <unicode hex="0046"/>
  <outline>
    <contour>
      <point x="119.5" y="0.0" type="line"/>
      <point x="574.5" y="0.0" type="line"/>
      <point x="574.5" y="1125.5" type="line"/>
      <point x="1316.5" y="1125.5" type="line"/>
      <point x="1316.5" y="1480.0" type="line"/>
      <point x="119.5" y="1480.0" type="line"/>
    </contour>
    <contour>
      <point x="384.0" y="529.0" type="line"/>
      <point x="1208.0" y="529.0" type="line"/>
      <point x="1208.0" y="883.5" type="line"/>
      <point x="384.0" y="883.5" type="line"/>
    </contour>
  </outline>
</glyph>
<glyph name="I" format="2">
  <advance width="694.0"/>
  <unicode hex="0049"/>
  <anchor x="345.5" y="0.0" name="bottom"/>
  <anchor x="574.5" y="0.0" name="ogonek"/>
  <anchor x="347.0" y="1520.0" name="top"/>
  <outline>
    <contour>
      <point x="119.5" y="0.0" type="line"/>
      <point x="574.5" y="0.0" type="line"/>
      <point x="574.5" y="1480.0" type="line"/>
      <point x="119.5" y="1480.0" type="line"/>
    </contour>
  </outline>
</glyph>
<glyph name="K" format="2">
  <advance width="1469.0"/>
  <unicode hex="004B"/>
  <anchor x="773.5" y="0.0" name="bottom"/>
  <anchor x="766.0" y="1480.0" name="top"/>
  <outline>
    <contour>
      <point x="1034.0" y="0.0" type="line"/>
      <point x="1525.5" y="0.0" type="line"/>
      <point x="990.5" y="813.0" type="line"/>
      <point x="980.5" y="703.0" type="line"/>
      <point x="1479.0" y="1480.0" type="line"/>
      <point x="1004.0" y="1480.0" type="line"/>
      <point x="537.5" y="753.0" type="line"/>
    </contour>
    <contour>
      <point x="119.5" y="0.0" type="line"/>
      <point x="574.5" y="0.0" type="line"/>
      <point x="574.5" y="1480.0" type="line"/>
      <point x="119.5" y="1480.0" type="line"/>
    </contour>
    <contour>
      <point x="513.5" y="559.5" type="line"/>
      <point x="714.5" y="559.5" type="line"/>
      <point x="714.5" y="950.5" type="line"/>
      <point x="513.5" y="950.5" type="line"/>
    </contour>
  </outline>
</glyph>
<glyph name="M" format="2">
  <advance width="2066.0"/>
  <unicode hex="004D"/>
  <anchor x="1063.5" y="0.0" name="bottom"/>
  <anchor x="1063.5" y="1480.0" name="top"/>
  <outline>
    <contour>
      <point x="123.5" y="0.0" type="line"/>
      <point x="547.5" y="0.0" type="line"/>
      <point x="547.5" y="1099.0" type="line"/>
      <point x="443.0" y="1099.0" type="line"/>
      <point x="848.0" y="220.0" type="line"/>
      <point x="1218.0" y="220.0" type="line"/>
      <point x="1601.5" y="1099.0" type="line"/>
      <point x="1518.5" y="1099.0" type="line"/>
      <point x="1518.5" y="0.0" type="line"/>
      <point x="1942.5" y="0.0" type="line"/>
      <point x="1942.5" y="1480.0" type="line"/>
      <point x="1388.0" y="1480.0" type="line"/>
      <point x="1016.0" y="615.0" type="line"/>
      <point x="1064.0" y="615.0" type="line"/>
      <point x="678.0" y="1480.0" type="line"/>
      <point x="123.5" y="1480.0" type="line"/>
    </contour>
  </outline>
</glyph>
<glyph name="P" format="2">
  <advance width="1450.5"/>
  <unicode hex="0050"/>
  <outline>
    <contour>
      <point x="119.5" y="0.0" type="line"/>
      <point x="574.5" y="0.0" type="line"/>
      <point x="574.5" y="391.5" type="line"/>
      <point x="611.5" y="391.5"/>
      <point x="650.0" y="389.5"/>
      <point x="691.0" y="389.5" type="curve" smooth="yes"/>
      <point x="1140.5" y="389.5"/>
      <point x="1380.5" y="576.5"/>
      <point x="1380.5" y="944.5" type="curve" smooth="yes"/>
      <point x="1380.5" y="1330.0"/>
      <point x="1136.0" y="1500.0"/>
      <point x="639.5" y="1500.0" type="curve" smooth="yes"/>
      <point x="446.5" y="1500.0"/>
      <point x="276.5" y="1480.0"/>
      <point x="119.5" y="1450.0" type="curve"/>
    </contour>
    <contour>
      <point x="695.0" y="712.5" type="curve" smooth="yes"/>
      <point x="649.0" y="712.5"/>
      <point x="616.5" y="714.5"/>
      <point x="574.5" y="720.0" type="curve"/>
      <point x="574.5" y="1169.0" type="line"/>
      <point x="609.5" y="1175.0"/>
      <point x="640.5" y="1177.0"/>
      <point x="683.5" y="1177.0" type="curve" smooth="yes"/>
      <point x="862.5" y="1177.0"/>
      <point x="942.0" y="1108.0"/>
      <point x="942.0" y="943.5" type="curve" smooth="yes"/>
      <point x="942.0" y="771.5"/>
      <point x="862.5" y="712.5"/>
    </contour>
  </outline>
</glyph>
<glyph name="Q" format="2">
  <advance width="1768.0"/>
  <unicode hex="0051"/>
  <outline>
    <contour>
      <point x="1608.5" y="-384.0" type="curve"/>
      <point x="1679.5" y="-42.0" type="line"/>
      <point x="1405.0" y="-7.5"/>
      <point x="1153.5" y="45.5"/>
      <point x="894.5" y="137.5" type="curve"/>
      <point x="741.0" y="29.5" type="line"/>
      <point x="1387.5" y="-53.5"/>
      <point x="1691.5" y="261.5"/>
      <point x="1691.5" y="740.0" type="curve" smooth="yes"/>
      <point x="1691.5" y="1223.5"/>
      <point x="1381.0" y="1500.0"/>
      <point x="884.0" y="1500.0" type="curve" smooth="yes"/>
      <point x="387.0" y="1500.0"/>
      <point x="76.5" y="1226.5"/>
      <point x="76.5" y="725.0" type="curve" smooth="yes"/>
      <point x="76.5" y="214.0"/>
      <point x="401.0" y="-198.0"/>
    </contour>
    <contour>
      <point x="884.0" y="337.0" type="curve" smooth="yes"/>
      <point x="658.0" y="337.0"/>
      <point x="540.5" y="460.5"/>
      <point x="540.5" y="748.0" type="curve" smooth="yes"/>
      <point x="540.5" y="1016.5"/>
      <point x="665.5" y="1143.0"/>
      <point x="884.0" y="1143.0" type="curve" smooth="yes"/>
      <point x="1102.5" y="1143.0"/>
      <point x="1227.5" y="1012.0"/>
      <point x="1227.5" y="732.0" type="curve" smooth="yes"/>
      <point x="1227.5" y="468.0"/>
      <point x="1107.0" y="337.0"/>
    </contour>
  </outline>
</glyph>
<glyph name="S" format="2">
  <advance width="1296.0"/>
  <unicode hex="0053"/>
  <anchor x="662.0" y="0.0" name="bottom"/>
  <anchor x="662.0" y="1520.0" name="top"/>
  <outline>
    <contour>
      <point x="573.5" y="-20.0" type="curve" smooth="yes"/>
      <point x="990.0" y="-20.0"/>
      <point x="1243.0" y="166.0"/>
      <point x="1243.0" y="463.5" type="curve" smooth="yes"/>
      <point x="1243.0" y="696.5"/>
      <point x="1108.5" y="841.0"/>
      <point x="773.5" y="913.0" type="curve" smooth="yes"/>
      <point x="635.5" y="944.0" type="line" smooth="yes"/>
      <point x="525.0" y="970.0"/>
      <point x="501.0" y="993.5"/>
      <point x="501.0" y="1040.5" type="curve" smooth="yes"/>
      <point x="501.0" y="1099.5"/>
      <point x="557.5" y="1146.5"/>
      <point x="784.5" y="1146.5" type="curve" smooth="yes"/>
      <point x="918.5" y="1146.5"/>
      <point x="1063.0" y="1126.5"/>
      <point x="1158.0" y="1098.0" type="curve"/>
      <point x="1158.0" y="1455.5" type="line"/>
      <point x="1057.5" y="1481.0"/>
      <point x="921.0" y="1500.0"/>
      <point x="763.5" y="1500.0" type="curve" smooth="yes"/>
      <point x="287.0" y="1500.0"/>
      <point x="53.0" y="1325.5"/>
      <point x="53.0" y="1021.0" type="curve" smooth="yes"/>
      <point x="53.0" y="784.0"/>
      <point x="188.5" y="642.0"/>
      <point x="492.5" y="576.5" type="curve" smooth="yes"/>
      <point x="630.5" y="545.5" type="line" smooth="yes"/>
      <point x="766.5" y="515.0"/>
      <point x="795.0" y="489.0"/>
      <point x="795.0" y="436.5" type="curve" smooth="yes"/>
      <point x="795.0" y="375.0"/>
      <point x="750.0" y="333.5"/>
      <point x="574.0" y="333.5" type="curve" smooth="yes"/>
      <point x="429.5" y="333.5"/>
      <point x="228.5" y="361.0"/>
      <point x="96.0" y="405.5" type="curve"/>
      <point x="96.0" y="48.0" type="line"/>
      <point x="229.5" y="6.5"/>
      <point x="392.0" y="-20.0"/>
    </contour>
  </outline>
</glyph>
<glyph name="T" format="2">
  <advance width="1445.5"/>
  <unicode hex="0054"/>
  <anchor x="723.0" y="0.0" name="bottom"/>
  <anchor x="723.0" y="700.0" name="center"/>
  <anchor x="723.0" y="1520.0" name="top"/>
  <outline>
    <contour>
      <point x="495.0" y="0.0" type="line"/>
      <point x="950.5" y="0.0" type="line"/>
      <point x="950.5" y="1117.5" type="line"/>
      <point x="1428.0" y="1117.5" type="line"/>
      <point x="1428.0" y="1480.0" type="line"/>
      <point x="17.5" y="1480.0" type="line"/>
      <point x="17.5" y="1117.5" type="line"/>
      <point x="495.0" y="1117.5" type="line"/>
    </contour>
  </outline>
</glyph>
<glyph name="V" format="2">
  <advance width="1625.0"/>
  <unicode hex="0056"/>
  <outline>
    <contour>
      <point x="479.5" y="0.0" type="line"/>
      <point x="1145.5" y="0.0" type="line"/>
      <point x="1625.0" y="1480.0" type="line"/>
      <point x="1180.5" y="1480.0" type="line"/>
      <point x="772.5" y="184.5" type="line"/>
      <point x="875.5" y="184.5" type="line"/>
      <point x="477.0" y="1480.0" type="line"/>
      <point x="0.0" y="1480.0" type="line"/>
    </contour>
  </outline>
</glyph>
<glyph name="X" format="2">
  <advance width="1516.5"/>
  <unicode hex="0058"/>
  <outline>
    <contour>
      <point x="1078.0" y="0.0" type="line"/>
      <point x="1579.5" y="0.0" type="line"/>
      <point x="1022.0" y="781.0" type="line"/>
      <point x="759.5" y="1088.5" type="line"/>
      <point x="485.0" y="1480.0" type="line"/>
      <point x="-18.0" y="1480.0" type="line"/>
      <point x="489.5" y="774.5" type="line"/>
      <point x="752.0" y="468.5" type="line"/>
    </contour>
    <contour>
      <point x="-64.0" y="0.0" type="line"/>
      <point x="427.0" y="0.0" type="line"/>
      <point x="752.0" y="468.5" type="line"/>
      <point x="1022.0" y="781.0" type="line"/>
      <point x="1520.0" y="1480.0" type="line"/>
      <point x="1032.5" y="1480.0" type="line"/>
      <point x="759.5" y="1088.5" type="line"/>
      <point x="489.5" y="774.5" type="line"/>
    </contour>
  </outline>
</glyph>
<glyph name="Y" format="2">
  <advance width="1445.5"/>
  <unicode hex="0059"/>
  <anchor x="721.5" y="0.0" name="bottom"/>
  <anchor x="722.0" y="1520.0" name="top"/>
  <anchor x="-2.5" y="1480.0" name="topleft"/>
  <outline>
    <contour>
      <point x="498.5" y="0.0" type="line"/>
      <point x="953.5" y="0.0" type="line"/>
      <point x="953.5" y="774.5" type="line"/>
      <point x="864.5" y="464.5" type="line"/>
      <point x="1492.0" y="1480.0" type="line"/>
      <point x="1047.0" y="1480.0" type="line"/>
      <point x="673.0" y="871.5" type="line"/>
      <point x="797.0" y="871.5" type="line"/>
      <point x="416.0" y="1480.0" type="line"/>
      <point x="-63.0" y="1480.0" type="line"/>
      <point x="587.5" y="464.5" type="line"/>
      <point x="498.5" y="780.5" type="line"/>
    </contour>
  </outline>
</glyph>
<glyph name="Z" format="2">
  <advance width="1389.5"/>
  <unicode hex="005A"/>
  <anchor x="694.0" y="0.0" name="bottom"/>
  <anchor x="696.0" y="1520.0" name="top"/>
  <outline>
    <contour>
      <point x="71.0" y="0.0" type="line"/>
      <point x="1318.5" y="0.0" type="line"/>
      <point x="1318.5" y="362.5" type="line"/>
      <point x="596.5" y="362.5" type="line"/>
      <point x="596.5" y="280.0" type="line"/>
      <point x="1308.5" y="1234.5" type="line"/>
      <point x="1308.5" y="1480.0" type="line"/>
      <point x="81.0" y="1480.0" type="line"/>
      <point x="81.0" y="1117.5" type="line"/>
      <point x="783.0" y="1117.5" type="line"/>
      <point x="783.0" y="1200.0" type="line"/>
      <point x="71.0" y="245.5" type="line"/>
    </contour>
  </outline>
</glyph>
<glyph name="bracketleft" format="2">
  <advance width="794.0"/>
  <unicode hex="005B"/>
  <outline>
    <contour>
      <point x="139.5" y="-440.0" type="line"/>
      <point x="803.0" y="-440.0" type="line"/>
      <point x="803.0" y="-95.0" type="line"/>
      <point x="584.0" y="-95.0" type="line"/>
      <point x="584.0" y="1271.0" type="line"/>
      <point x="818.0" y="1271.0" type="line"/>
      <point x="818.0" y="1616.0" type="line"/>
      <point x="139.5" y="1616.0" type="line"/>
    </contour>
  </outline>
</glyph>
<glyph name="backslash" format="2">
  <advance width="980.5"/>
  <unicode hex="005C"/>
  <outline>
    <contour>
      <point x="538.5" y="-240.0" type="line"/>
      <point x="980.5" y="-240.0" type="line"/>
      <point x="442.0" y="1616.0" type="line"/>
      <point x="0.0" y="1616.0" type="line"/>
    </contour>
  </outline>
</glyph>
<glyph name="bracketright" format="2">
  <advance width="794.0"/>
  <unicode hex="005D"/>
  <outline>
    <contour>
      <point x="-9.0" y="-440.0" type="line"/>
      <point x="654.5" y="-440.0" type="line"/>
      <point x="654.5" y="1616.0" type="line"/>
      <point x="-24.0" y="1616.0" type="line"/>
      <point x="-24.0" y="1271.0" type="line"/>
      <point x="210.0" y="1271.0" type="line"/>
      <point x="210.0" y="-95.0" type="line"/>
      <point x="-9.0" y="-95.0" type="line"/>
    </contour>
  </outline>
</glyph>
<glyph name="asciicircum" format="2">
  <advance width="1380.0"/>
  <unicode hex="005E"/>
  <outline>
    <contour>
      <point x="39.0" y="740.0" type="line"/>
      <point x="474.0" y="740.0" type="line"/>
      <point x="790.5" y="1280.5" type="line"/>
      <point x="589.5" y="1280.5" type="line"/>
      <point x="906.0" y="740.0" type="line"/>
      <point x="1341.0" y="740.0" type="line"/>
      <point x="903.5" y="1480.0" type="line"/>
      <point x="476.5" y="1480.0" type="line"/>
    </contour>
  </outline>
</glyph>
<glyph name="underscore" format="2">
  <advance width="1358.0"/>
  <unicode hex="005F"/>
  <outline>
    <contour>
      <point x="87.5" y="-346.5" type="line"/>
      <point x="1270.5" y="-346.5" type="line"/>
      <point x="1270.5" y="-1.5" type="line"/>
      <point x="87.5" y="-1.5" type="line"/>
    </contour>
  </outline>
</glyph>
<glyph name="b" format="2">
  <advance width="1393.5"/>
  <unicode hex="0062"/>
  <anchor x="700.0" y="0.0" name="bottom"/>
  <anchor x="329.0" y="1616.0" name="top"/>
  <outline>
    <contour>
      <point x="625.5" y="-21.5" type="curve" smooth="yes"/>
      <point x="1100.5" y="-22.0"/>
      <point x="1334.0" y="193.0"/>
      <point x="1334.0" y="576.5" type="curve" smooth="yes"/>
      <point x="1334.0" y="942.0"/>
      <point x="1119.0" y="1118.0"/>
      <point x="869.5" y="1118.0" type="curve" smooth="yes"/>
      <point x="742.5" y="1118.0"/>
      <point x="642.5" y="1078.0"/>
      <point x="570.5" y="1001.5" type="curve"/>
      <point x="551.0" y="1001.5" type="line"/>
      <point x="551.0" y="1616.0" type="line"/>
      <point x="106.5" y="1616.0" type="line"/>
      <point x="106.5" y="49.0" type="line"/>
      <point x="263.5" y="-1.0"/>
      <point x="454.0" y="-21.5"/>
    </contour>
    <contour>
      <point x="665.0" y="306.5" type="curve" smooth="yes"/>
      <point x="622.0" y="306.5"/>
      <point x="582.0" y="311.5"/>
      <point x="551.0" y="318.5" type="curve"/>
      <point x="551.0" y="732.5" type="line"/>
      <point x="594.5" y="754.0"/>
      <point x="648.5" y="764.0"/>
      <point x="699.0" y="764.0" type="curve" smooth="yes"/>
      <point x="819.5" y="764.0"/>
      <point x="892.0" y="709.0"/>
      <point x="892.0" y="544.0" type="curve" smooth="yes"/>
      <point x="892.0" y="377.0"/>
      <point x="818.5" y="306.5"/>
    </contour>
  </outline>
</glyph>
<glyph name="c" format="2">
  <advance width="1106.5"/>
  <unicode hex="0063"/>
  <anchor x="626.5" y="0.0" name="bottom"/>
  <anchor x="600.5" y="1200.0" name="top"/>
  <outline>
    <contour>
      <point x="735.5" y="-22.0" type="curve" smooth="yes"/>
      <point x="855.5" y="-22.0"/>
      <point x="966.0" y="-5.5"/>
      <point x="1046.0" y="18.5" type="curve"/>
      <point x="1046.0" y="357.5" type="line"/>
      <point x="939.0" y="335.0"/>
      <point x="872.5" y="325.0"/>
      <point x="793.5" y="325.0" type="curve" smooth="yes"/>
      <point x="608.0" y="325.0"/>
      <point x="514.0" y="397.0"/>
      <point x="514.0" y="548.0" type="curve" smooth="yes"/>
      <point x="514.0" y="695.5"/>
      <point x="600.5" y="771.0"/>
      <point x="814.5" y="771.0" type="curve" smooth="yes"/>
      <point x="894.0" y="771.0"/>
      <point x="962.5" y="764.0"/>
      <point x="1046.0" y="752.0" type="curve"/>
      <point x="1046.0" y="1091.0" type="line"/>
      <point x="961.0" y="1109.0"/>
      <point x="868.0" y="1118.0"/>
      <point x="759.5" y="1118.0" type="curve" smooth="yes"/>
      <point x="308.5" y="1118.0"/>
      <point x="59.5" y="917.5"/>
      <point x="59.5" y="546.5" type="curve" smooth="yes"/>
      <point x="59.5" y="179.0"/>
      <point x="296.0" y="-22.0"/>
    </contour>
  </outline>
</glyph>
<glyph name="f" format="2">
  <advance width="920.0"/>
  <unicode hex="0066"/>
  <outline>
    <contour>
      <point x="209.5" y="0.0" type="line"/>
      <point x="652.5" y="0.0" type="line"/>
      <point x="652.5" y="1127.5" type="line" smooth="yes"/>
      <point x="652.5" y="1235.5"/>
      <point x="714.5" y="1293.0"/>
      <point x="866.0" y="1293.0" type="curve" smooth="yes"/>
      <point x="901.0" y="1293.0"/>
      <point x="931.5" y="1291.0"/>
      <point x="969.5" y="1287.0" type="curve"/>
      <point x="969.5" y="1624.0" type="line"/>
      <point x="909.0" y="1632.0"/>
      <point x="861.0" y="1636.0"/>
      <point x="790.5" y="1636.0" type="curve" smooth="yes"/>
      <point x="422.0" y="1636.0"/>
      <point x="209.5" y="1431.5"/>
      <point x="209.5" y="1110.5" type="curve" smooth="yes"/>
    </contour>
    <contour>
      <point x="39.5" y="755.0" type="line"/>
      <point x="917.0" y="755.0" type="line"/>
      <point x="917.0" y="1100.0" type="line"/>
      <point x="39.5" y="1100.0" type="line"/>
    </contour>
  </outline>
</glyph>
<glyph name="i" format="2">
  <advance width="658.0"/>
  <unicode hex="0069"/>
  <anchor x="329.0" y="1200.0" name="_top"/>
  <anchor x="329.0" y="0.0" name="bottom"/>
  <anchor x="551.5" y="0.0" name="ogonek"/>
  <anchor x="329.0" y="1200.0" name="top"/>
  <outline>
    <contour>
      <point x="106.5" y="0.0" type="line"/>
      <point x="551.5" y="0.0" type="line"/>
      <point x="551.5" y="1100.0" type="line"/>
      <point x="106.5" y="1100.0" type="line"/>
    </contour>
    <contour>
      <point x="329.0" y="1207.0" type="curve" smooth="yes"/>
      <point x="512.0" y="1207.0"/>
      <point x="593.0" y="1282.0"/>
      <point x="593.0" y="1418.0" type="curve" smooth="yes"/>
      <point x="593.0" y="1554.0"/>
      <point x="512.0" y="1629.0"/>
      <point x="329.0" y="1629.0" type="curve" smooth="yes"/>
      <point x="146.0" y="1629.0"/>
      <point x="65.0" y="1554.0"/>
      <point x="65.0" y="1418.0" type="curve" smooth="yes"/>
      <point x="65.0" y="1282.0"/>
      <point x="146.0" y="1207.0"/>
    </contour>
  </outline>
</glyph>
<glyph name="j" format="2">
  <advance width="658.0"/>
  <unicode hex="006A"/>
  <anchor x="321.5" y="1200.0" name="_top"/>
  <anchor x="321.5" y="1200.0" name="top"/>
  <outline>
    <contour>
      <point x="242.5" y="-476.0" type="line"/>
      <point x="473.0" y="-258.0"/>
      <point x="551.5" y="-54.0"/>
      <point x="551.5" y="196.0" type="curve" smooth="yes"/>
      <point x="551.5" y="1100.0" type="line"/>
      <point x="106.5" y="1100.0" type="line"/>
      <point x="106.5" y="180.0" type="line" smooth="yes"/>
      <point x="106.5" y="-26.0"/>
      <point x="72.0" y="-152.0"/>
      <point x="-37.5" y="-290.0" type="curve"/>
    </contour>
    <contour>
      <point x="321.5" y="1207.0" type="curve" smooth="yes"/>
      <point x="504.5" y="1207.0"/>
      <point x="585.5" y="1282.0"/>
      <point x="585.5" y="1418.0" type="curve" smooth="yes"/>
      <point x="585.5" y="1554.0"/>
      <point x="504.5" y="1629.0"/>
      <point x="321.5" y="1629.0" type="curve" smooth="yes"/>
      <point x="138.5" y="1629.0"/>
      <point x="57.5" y="1554.0"/>
      <point x="57.5" y="1418.0" type="curve" smooth="yes"/>
      <point x="57.5" y="1282.0"/>
      <point x="138.5" y="1207.0"/>
    </contour>
  </outline>
</glyph>
<glyph name="k" format="2">
  <advance width="1364.5"/>
  <unicode hex="006B"/>
  <anchor x="707.5" y="0.0" name="bottom"/>
  <anchor x="329.0" y="1616.0" name="top"/>
  <outline>
    <contour>
      <point x="923.0" y="0.0" type="line"/>
      <point x="1404.0" y="0.0" type="line"/>
      <point x="995.5" y="631.0" type="line"/>
      <point x="995.5" y="521.0" type="line"/>
      <point x="1366.5" y="1100.0" type="line"/>
      <point x="895.5" y="1100.0" type="line"/>
      <point x="544.0" y="566.0" type="line"/>
    </contour>
    <contour>
      <point x="519.0" y="389.0" type="line"/>
      <point x="693.0" y="389.0" type="line"/>
      <point x="693.0" y="743.0" type="line"/>
      <point x="519.0" y="743.0" type="line"/>
    </contour>
    <contour>
      <point x="106.5" y="0.0" type="line"/>
      <point x="551.0" y="0.0" type="line"/>
      <point x="551.0" y="1616.0" type="line"/>
      <point x="106.5" y="1616.0" type="line"/>
    </contour>
  </outline>
</glyph>
<glyph name="m" format="2">
  <advance width="2001.5"/>
  <unicode hex="006D"/>
  <anchor x="1011.5" y="0.0" name="bottom"/>
  <anchor x="1011.5" y="1200.0" name="top"/>
  <outline>
    <contour>
      <point x="106.5" y="0.0" type="line"/>
      <point x="551.0" y="0.0" type="line"/>
      <point x="551.0" y="686.5" type="line"/>
      <point x="580.0" y="721.0"/>
      <point x="630.0" y="744.5"/>
      <point x="689.0" y="744.5" type="curve" smooth="yes"/>
      <point x="757.0" y="744.5"/>
      <point x="793.0" y="712.0"/>
      <point x="793.0" y="607.0" type="curve" smooth="yes"/>
      <point x="793.0" y="0.0" type="line"/>
      <point x="1228.0" y="0.0" type="line"/>
      <point x="1228.0" y="642.5" type="line" smooth="yes"/>
      <point x="1228.0" y="979.5"/>
      <point x="1061.0" y="1118.0"/>
      <point x="836.0" y="1118.0" type="curve" smooth="yes"/>
      <point x="701.5" y="1118.0"/>
      <point x="593.5" y="1075.5"/>
      <point x="517.0" y="1000.0" type="curve"/>
      <point x="498.0" y="1000.0" type="line"/>
      <point x="470.0" y="1100.0" type="line"/>
      <point x="106.5" y="1100.0" type="line"/>
    </contour>
    <contour>
      <point x="1459.0" y="0.0" type="line"/>
      <point x="1902.0" y="0.0" type="line"/>
      <point x="1902.0" y="632.0" type="line" smooth="yes"/>
      <point x="1902.0" y="978.5"/>
      <point x="1728.5" y="1118.0"/>
      <point x="1484.5" y="1118.0" type="curve" smooth="yes"/>
      <point x="1354.0" y="1118.0"/>
      <point x="1224.0" y="1073.5"/>
      <point x="1117.5" y="965.0" type="curve"/>
      <point x="1206.5" y="686.5" type="line"/>
      <point x="1236.5" y="721.0"/>
      <point x="1280.0" y="744.5"/>
      <point x="1348.0" y="744.5" type="curve" smooth="yes"/>
      <point x="1414.5" y="744.5"/>
      <point x="1459.0" y="712.0"/>
      <point x="1459.0" y="607.0" type="curve" smooth="yes"/>
    </contour>
  </outline>
</glyph>
<glyph name="n" format="2">
  <advance width="1371.0"/>
  <unicode hex="006E"/>
  <anchor x="11.5" y="1200.0" name="apostrophe"/>
  <anchor x="690.0" y="0.0" name="bottom"/>
  <anchor x="690.0" y="1200.0" name="top"/>
  <outline>
    <contour>
      <point x="106.5" y="0.0" type="line"/>
      <point x="551.0" y="0.0" type="line"/>
      <point x="551.0" y="686.5" type="line"/>
      <point x="586.5" y="721.0"/>
      <point x="645.0" y="744.5"/>
      <point x="707.0" y="744.5" type="curve" smooth="yes"/>
      <point x="784.5" y="744.5"/>
      <point x="827.0" y="712.0"/>
      <point x="827.0" y="606.0" type="curve" smooth="yes"/>
      <point x="827.0" y="0.0" type="line"/>
      <point x="1271.5" y="0.0" type="line"/>
      <point x="1271.5" y="633.0" type="line" smooth="yes"/>
      <point x="1271.5" y="978.0"/>
      <point x="1093.0" y="1118.0"/>
      <point x="847.0" y="1118.0" type="curve" smooth="yes"/>
      <point x="714.0" y="1118.0"/>
      <point x="597.5" y="1075.5"/>
      <point x="517.0" y="1000.0" type="curve"/>
      <point x="498.0" y="1000.0" type="line"/>
      <point x="470.0" y="1100.0" type="line"/>
      <point x="106.5" y="1100.0" type="line"/>
    </contour>
  </outline>
</glyph>
<glyph name="o" format="2">
  <advance width="1365.0"/>
  <unicode hex="006F"/>
  <anchor x="682.5" y="0.0" name="bottom"/>
  <anchor x="682.5" y="550.0" name="center"/>
  <anchor x="883.0" y="0.0" name="ogonek"/>
  <anchor x="682.5" y="1200.0" name="top"/>
  <anchor x="684.0" y="1100.0" name="topright"/>
  <outline>
    <contour>
      <point x="682.5" y="-22.0" type="curve" smooth="yes"/>
      <point x="1063.0" y="-22.0"/>
      <point x="1305.5" y="185.0"/>
      <point x="1305.5" y="549.0" type="curve" smooth="yes"/>
      <point x="1305.5" y="911.0"/>
      <point x="1079.5" y="1118.0"/>
      <point x="682.5" y="1118.0" type="curve" smooth="yes"/>
      <point x="285.5" y="1118.0"/>
      <point x="59.5" y="913.5"/>
      <point x="59.5" y="548.0" type="curve" smooth="yes"/>
      <point x="59.5" y="185.0"/>
      <point x="302.0" y="-22.0"/>
    </contour>
    <contour>
      <point x="682.5" y="310.0" type="curve" smooth="yes"/>
      <point x="563.5" y="310.0"/>
      <point x="501.5" y="372.5"/>
      <point x="501.5" y="549.0" type="curve" smooth="yes"/>
      <point x="501.5" y="725.5"/>
      <point x="564.5" y="786.0"/>
      <point x="682.5" y="786.0" type="curve" smooth="yes"/>
      <point x="800.5" y="786.0"/>
      <point x="863.5" y="725.5"/>
      <point x="863.5" y="548.0" type="curve" smooth="yes"/>
      <point x="863.5" y="372.5"/>
      <point x="801.5" y="310.0"/>
    </contour>
  </outline>
</glyph>
<glyph name="p" format="2">
  <advance width="1393.5"/>
  <unicode hex="0070"/>
  <outline>
    <contour>
      <point x="106.5" y="-440.0" type="line"/>
      <point x="551.0" y="-440.0" type="line"/>
      <point x="551.0" y="-15.5" type="line"/>
      <point x="590.0" y="-18.5"/>
      <point x="636.0" y="-21.5"/>
      <point x="682.5" y="-21.5" type="curve" smooth="yes"/>
      <point x="1096.0" y="-21.5"/>
      <point x="1334.0" y="198.0"/>
      <point x="1334.0" y="572.5" type="curve" smooth="yes"/>
      <point x="1334.0" y="956.0"/>
      <point x="1103.0" y="1118.0"/>
      <point x="834.5" y="1118.0" type="curve" smooth="yes"/>
      <point x="697.0" y="1118.0"/>
      <point x="592.5" y="1067.0"/>
      <point x="521.0" y="989.5" type="curve"/>
      <point x="502.0" y="989.5" type="line"/>
      <point x="477.5" y="1100.0" type="line"/>
      <point x="106.5" y="1100.0" type="line"/>
    </contour>
    <contour>
      <point x="665.0" y="308.0" type="curve" smooth="yes"/>
      <point x="623.5" y="308.0"/>
      <point x="582.0" y="313.0"/>
      <point x="551.0" y="318.0" type="curve"/>
      <point x="551.0" y="723.5" type="line"/>
      <point x="592.0" y="752.0"/>
      <point x="650.0" y="764.5"/>
      <point x="703.5" y="764.5" type="curve" smooth="yes"/>
      <point x="818.0" y="764.5"/>
      <point x="892.0" y="709.5"/>
      <point x="892.0" y="541.5" type="curve" smooth="yes"/>
      <point x="892.0" y="378.5"/>
      <point x="818.5" y="308.0"/>
    </contour>
  </outline>
</glyph>
<glyph name="q" format="2">
  <advance width="1393.5"/>
  <unicode hex="0071"/>
  <outline>
    <contour>
      <point x="842.5" y="-440.0" type="line"/>
      <point x="1287.0" y="-440.0" type="line"/>
      <point x="1287.0" y="1047.5" type="line"/>
      <point x="1143.5" y="1093.0"/>
      <point x="939.5" y="1118.0"/>
      <point x="768.0" y="1118.0" type="curve" smooth="yes"/>
      <point x="293.0" y="1118.0"/>
      <point x="59.5" y="903.5"/>
      <point x="59.5" y="520.0" type="curve" smooth="yes"/>
      <point x="59.5" y="154.5"/>
      <point x="274.5" y="-21.5"/>
      <point x="524.0" y="-21.5" type="curve" smooth="yes"/>
      <point x="651.0" y="-21.5"/>
      <point x="751.0" y="18.5"/>
      <point x="823.0" y="95.0" type="curve"/>
      <point x="842.5" y="95.0" type="line"/>
    </contour>
    <contour>
      <point x="694.5" y="332.5" type="curve" smooth="yes"/>
      <point x="574.0" y="332.5"/>
      <point x="501.5" y="387.5"/>
      <point x="501.5" y="552.5" type="curve" smooth="yes"/>
      <point x="501.5" y="719.5"/>
      <point x="582.0" y="790.0"/>
      <point x="728.0" y="790.0" type="curve" smooth="yes"/>
      <point x="772.5" y="790.0"/>
      <point x="811.5" y="785.0"/>
      <point x="842.5" y="778.5" type="curve"/>
      <point x="842.5" y="364.0" type="line"/>
      <point x="799.0" y="342.5"/>
      <point x="745.0" y="332.5"/>
    </contour>
  </outline>
</glyph>
<glyph name="v" format="2">
  <advance width="1331.0"/>
  <unicode hex="0076"/>
  <anchor x="665.5" y="0.0" name="bottom"/>
  <anchor x="665.5" y="1200.0" name="top"/>
  <outline>
    <contour>
      <point x="393.0" y="0.0" type="line"/>
      <point x="936.5" y="0.0" type="line"/>
      <point x="1344.0" y="1100.0" type="line"/>
      <point x="910.0" y="1100.0" type="line"/>
      <point x="668.5" y="357.0" type="line"/>
      <point x="693.5" y="357.0" type="line"/>
      <point x="452.0" y="1100.0" type="line"/>
      <point x="-13.0" y="1100.0" type="line"/>
    </contour>
  </outline>
</glyph>
<glyph name="x" format="2">
  <advance width="1280.0"/>
  <unicode hex="0078"/>
  <anchor x="640.0" y="0.0" name="bottom"/>
  <anchor x="640.5" y="1200.0" name="top"/>
  <outline>
    <contour>
      <point x="810.5" y="0.0" type="line"/>
      <point x="1297.0" y="0.0" type="line"/>
      <point x="895.5" y="559.5" type="line"/>
      <point x="645.5" y="853.0" type="line"/>
      <point x="476.5" y="1100.0" type="line"/>
      <point x="-10.0" y="1100.0" type="line"/>
      <point x="381.0" y="554.0" type="line"/>
      <point x="636.5" y="261.5" type="line"/>
    </contour>
    <contour>
      <point x="-17.5" y="0.0" type="line"/>
      <point x="455.5" y="0.0" type="line"/>
      <point x="636.5" y="261.5" type="line"/>
      <point x="895.5" y="559.5" type="line"/>
      <point x="1283.0" y="1100.0" type="line"/>
      <point x="810.0" y="1100.0" type="line"/>
      <point x="645.5" y="853.0" type="line"/>
      <point x="381.0" y="554.0" type="line"/>
    </contour>
  </outline>
</glyph>
<glyph name="z" format="2">
  <advance width="1174.5"/>
  <unicode hex="007A"/>
  <anchor x="599.0" y="0.0" name="bottom"/>
  <anchor x="599.0" y="1200.0" name="top"/>
  <outline>
    <contour>
      <point x="79.5" y="0.0" type="line"/>
      <point x="1117.0" y="0.0" type="line"/>
      <point x="1117.0" y="345.0" type="line"/>
      <point x="584.0" y="345.0" type="line"/>
      <point x="584.0" y="273.0" type="line"/>
      <point x="1107.0" y="815.0" type="line"/>
      <point x="1107.0" y="1100.0" type="line"/>
      <point x="89.5" y="1100.0" type="line"/>
      <point x="89.5" y="755.0" type="line"/>
      <point x="602.5" y="755.0" type="line"/>
      <point x="602.5" y="827.0" type="line"/>
      <point x="79.5" y="285.0" type="line"/>
    </contour>
  </outline>
</glyph>
<glyph name="braceleft" format="2">
  <advance width="834.0"/>
  <unicode hex="007B"/>
  <outline>
    <contour>
      <point x="652.5" y="-460.0" type="curve" smooth="yes"/>
      <point x="733.0" y="-460.0"/>
      <point x="798.5" y="-454.0"/>
      <point x="858.0" y="-446.0" type="curve"/>
      <point x="858.0" y="-109.0" type="line"/>
      <point x="735.5" y="-109.0" type="line" smooth="yes"/>
      <point x="662.5" y="-109.0"/>
      <point x="624.0" y="-83.0"/>
      <point x="624.0" y="-10.0" type="curve" smooth="yes"/>
      <point x="624.0" y="352.0" type="line" smooth="yes"/>
      <point x="624.0" y="548.0"/>
      <point x="510.0" y="656.0"/>
      <point x="221.0" y="656.0" type="curve"/>
      <point x="221.0" y="608.0" type="line"/>
      <point x="510.0" y="608.0"/>
      <point x="624.0" y="716.0"/>
      <point x="624.0" y="912.0" type="curve" smooth="yes"/>
      <point x="624.0" y="1186.0" type="line" smooth="yes"/>
      <point x="624.0" y="1259.0"/>
      <point x="662.5" y="1285.0"/>
      <point x="735.5" y="1285.0" type="curve" smooth="yes"/>
      <point x="858.0" y="1285.0" type="line"/>
      <point x="858.0" y="1622.0" type="line"/>
      <point x="798.5" y="1630.0"/>
      <point x="733.0" y="1636.0"/>
      <point x="652.5" y="1636.0" type="curve" smooth="yes"/>
      <point x="339.0" y="1636.0"/>
      <point x="179.5" y="1485.0"/>
      <point x="179.5" y="1212.0" type="curve" smooth="yes"/>
      <point x="179.5" y="918.0" type="line" smooth="yes"/>
      <point x="179.5" y="850.5"/>
      <point x="133.5" y="804.5"/>
      <point x="66.0" y="804.5" type="curve" smooth="yes"/>
      <point x="-5.0" y="804.5" type="line"/>
      <point x="-5.0" y="459.5" type="line"/>
      <point x="66.0" y="459.5" type="line" smooth="yes"/>
      <point x="133.5" y="459.5"/>
      <point x="179.5" y="413.5"/>
      <point x="179.5" y="346.0" type="curve" smooth="yes"/>
      <point x="179.5" y="-36.0" type="line" smooth="yes"/>
      <point x="179.5" y="-309.0"/>
      <point x="339.0" y="-460.0"/>
    </contour>
  </outline>
</glyph>
<glyph name="bar" format="2">
  <advance width="639.0"/>
  <unicode hex="007C"/>
  <outline>
    <contour>
      <point x="119.5" y="-440.0" type="line"/>
      <point x="519.5" y="-440.0" type="line"/>
      <point x="519.5" y="1616.0" type="line"/>
      <point x="119.5" y="1616.0" type="line"/>
    </contour>
  </outline>
</glyph>
<glyph name="braceright" format="2">
  <advance width="834.0"/>
  <unicode hex="007D"/>
  <outline>
    <contour>
      <point x="181.5" y="-460.0" type="curve" smooth="yes"/>
      <point x="495.0" y="-460.0"/>
      <point x="654.5" y="-309.0"/>
      <point x="654.5" y="-36.0" type="curve" smooth="yes"/>
      <point x="654.5" y="346.0" type="line" smooth="yes"/>
      <point x="654.5" y="413.5"/>
      <point x="700.5" y="459.5"/>
      <point x="768.0" y="459.5" type="curve" smooth="yes"/>
      <point x="839.0" y="459.5" type="line"/>
      <point x="839.0" y="804.5" type="line"/>
      <point x="768.0" y="804.5" type="line" smooth="yes"/>
      <point x="700.5" y="804.5"/>
      <point x="654.5" y="850.5"/>
      <point x="654.5" y="918.0" type="curve" smooth="yes"/>
      <point x="654.5" y="1212.0" type="line" smooth="yes"/>
      <point x="654.5" y="1485.0"/>
      <point x="495.0" y="1636.0"/>
      <point x="181.5" y="1636.0" type="curve" smooth="yes"/>
      <point x="101.0" y="1636.0"/>
      <point x="35.5" y="1630.0"/>
      <point x="-24.0" y="1622.0" type="curve"/>
      <point x="-24.0" y="1285.0" type="line"/>
      <point x="98.5" y="1285.0" type="line" smooth="yes"/>
      <point x="171.5" y="1285.0"/>
      <point x="210.0" y="1259.0"/>
      <point x="210.0" y="1186.0" type="curve" smooth="yes"/>
      <point x="210.0" y="912.0" type="line" smooth="yes"/>
      <point x="210.0" y="716.0"/>
      <point x="325.5" y="608.0"/>
      <point x="613.0" y="608.0" type="curve"/>
      <point x="613.0" y="656.0" type="line"/>
      <point x="325.5" y="656.0"/>
      <point x="210.0" y="548.0"/>
      <point x="210.0" y="352.0" type="curve" smooth="yes"/>
      <point x="210.0" y="-10.0" type="line" smooth="yes"/>
      <point x="210.0" y="-83.0"/>
      <point x="171.5" y="-109.0"/>
      <point x="98.5" y="-109.0" type="curve" smooth="yes"/>
      <point x="-24.0" y="-109.0" type="line"/>
      <point x="-24.0" y="-446.0" type="line"/>
      <point x="35.5" y="-454.0"/>
      <point x="101.0" y="-460.0"/>
    </contour>
  </outline>
</glyph>
<glyph name="asciitilde" format="2">
  <advance width="1156.0"/>
  <unicode hex="007E"/>
  <outline>
    <contour>
      <point x="789.0" y="539.0" type="curve" smooth="yes"/>
      <point x="902.5" y="539.0"/>
      <point x="980.5" y="569.0"/>
      <point x="1051.0" y="641.0" type="curve"/>
      <point x="1051.0" y="973.0" type="line"/>
      <point x="967.0" y="895.0"/>
      <point x="892.5" y="863.0"/>
      <point x="793.0" y="863.0" type="curve" smooth="yes"/>
      <point x="658.0" y="863.0"/>
      <point x="535.0" y="981.0"/>
      <point x="367.0" y="981.0" type="curve" smooth="yes"/>
      <point x="253.5" y="981.0"/>
      <point x="175.5" y="951.0"/>
      <point x="105.0" y="879.0" type="curve"/>
      <point x="105.0" y="547.0" type="line"/>
      <point x="189.0" y="625.0"/>
      <point x="263.5" y="657.0"/>
      <point x="363.0" y="657.0" type="curve" smooth="yes"/>
      <point x="498.0" y="657.0"/>
      <point x="621.0" y="539.0"/>
    </contour>
  </outline>
</glyph>
<glyph name="exclamdown" format="2">
  <advance width="698.0"/>
  <unicode hex="00A1"/>
  <outline>
    <contour>
      <point x="218.0" y="535.0" type="line"/>
      <point x="114.0" y="87.5" type="line"/>
      <point x="114.0" y="-380.0" type="line"/>
      <point x="584.0" y="-380.0" type="line"/>
      <point x="584.0" y="87.5" type="line"/>
      <point x="485.5" y="535.0" type="line"/>
    </contour>
    <contour>
      <point x="349.0" y="1120.0" type="curve" smooth="yes"/>
      <point x="176.5" y="1120.0"/>
      <point x="70.0" y="1023.5"/>
      <point x="70.0" y="867.5" type="curve" smooth="yes"/>
      <point x="70.0" y="711.5"/>
      <point x="172.5" y="615.0"/>
      <point x="349.0" y="615.0" type="curve" smooth="yes"/>
      <point x="525.5" y="615.0"/>
      <point x="628.0" y="715.5"/>
      <point x="628.0" y="867.5" type="curve" smooth="yes"/>
      <point x="628.0" y="1019.5"/>
      <point x="521.5" y="1120.0"/>
    </contour>
  </outline>
</glyph>
<glyph name="sterling" format="2">
  <advance width="1489.5"/>
  <unicode hex="00A3"/>
  <outline>
    <contour>
      <point x="270.0" y="124.0" type="line"/>
      <point x="707.0" y="124.0" type="line"/>
      <point x="707.0" y="983.0" type="line" smooth="yes"/>
      <point x="707.0" y="1101.0"/>
      <point x="771.5" y="1146.5"/>
      <point x="1020.5" y="1146.5" type="curve" smooth="yes"/>
      <point x="1135.5" y="1146.5"/>
      <point x="1280.0" y="1128.5"/>
      <point x="1375.0" y="1102.5" type="curve"/>
      <point x="1375.0" y="1460.0" type="line"/>
      <point x="1274.5" y="1483.0"/>
      <point x="1139.0" y="1500.0"/>
      <point x="993.0" y="1500.0" type="curve" smooth="yes"/>
      <point x="504.0" y="1500.0"/>
      <point x="270.0" y="1310.5"/>
      <point x="270.0" y="961.0" type="curve" smooth="yes"/>
    </contour>
    <contour>
      <point x="80.0" y="0.0" type="line"/>
      <point x="1428.5" y="0.0" type="line"/>
      <point x="1428.5" y="346.0" type="line"/>
      <point x="80.0" y="346.0" type="line"/>
    </contour>
    <contour>
      <point x="80.0" y="592.5" type="line"/>
      <point x="1155.0" y="592.5" type="line"/>
      <point x="1155.0" y="907.5" type="line"/>
      <point x="80.0" y="907.5" type="line"/>
    </contour>
  </outline>
</glyph>
<glyph name="currency" format="2">
  <advance width="1380.0"/>
  <unicode hex="00A4"/>
  <outline>
    <contour>
      <point x="466.0" y="800.0" type="line"/>
      <point x="630.0" y="964.0" type="line"/>
      <point x="426.0" y="1200.0" type="line"/>
      <point x="297.0" y="1331.0" type="line"/>
      <point x="99.0" y="1133.0" type="line"/>
      <point x="230.0" y="1004.0" type="line"/>
    </contour>
    <contour>
      <point x="914.0" y="800.0" type="line"/>
      <point x="1150.0" y="1004.0" type="line"/>
      <point x="1281.0" y="1133.0" type="line"/>
      <point x="1083.0" y="1331.0" type="line"/>
      <point x="954.0" y="1200.0" type="line"/>
      <point x="750.0" y="964.0" type="line"/>
    </contour>
    <contour>
      <point x="1083.0" y="149.0" type="line"/>
      <point x="1281.0" y="347.0" type="line"/>
      <point x="1150.0" y="476.0" type="line"/>
      <point x="914.0" y="680.0" type="line"/>
      <point x="750.0" y="516.0" type="line"/>
      <point x="954.0" y="280.0" type="line"/>
    </contour>
    <contour>
      <point x="297.0" y="149.0" type="line"/>
      <point x="426.0" y="280.0" type="line"/>
      <point x="630.0" y="516.0" type="line"/>
      <point x="466.0" y="680.0" type="line"/>
      <point x="230.0" y="476.0" type="line"/>
      <point x="99.0" y="347.0" type="line"/>
    </contour>
    <contour>
      <point x="690.0" y="356.0" type="curve" smooth="yes"/>
      <point x="910.0" y="356.0"/>
      <point x="1080.0" y="510.0"/>
      <point x="1080.0" y="740.0" type="curve" smooth="yes"/>
      <point x="1080.0" y="968.0"/>
      <point x="910.0" y="1122.0"/>
      <point x="690.0" y="1122.0" type="curve" smooth="yes"/>
      <point x="470.0" y="1122.0"/>
      <point x="300.0" y="968.0"/>
      <point x="300.0" y="740.0" type="curve" smooth="yes"/>
      <point x="300.0" y="510.0"/>
      <point x="470.0" y="356.0"/>
    </contour>
    <contour>
      <point x="690.0" y="580.0" type="curve" smooth="yes"/>
      <point x="606.0" y="580.0"/>
      <point x="542.0" y="640.0"/>
      <point x="542.0" y="740.0" type="curve" smooth="yes"/>
      <point x="542.0" y="840.0"/>
      <point x="606.0" y="900.0"/>
      <point x="692.0" y="900.0" type="curve" smooth="yes"/>
      <point x="778.0" y="900.0"/>
      <point x="838.0" y="832.0"/>
      <point x="838.0" y="740.0" type="curve" smooth="yes"/>
      <point x="838.0" y="640.0"/>
      <point x="774.0" y="580.0"/>
    </contour>
  </outline>
</glyph>
<glyph name="yen" format="2">
  <advance width="1442.5"/>
  <unicode hex="00A5"/>
  <outline>
    <contour>
      <point x="497.0" y="0.0" type="line"/>
      <point x="952.0" y="0.0" type="line"/>
      <point x="952.0" y="774.5" type="line"/>
      <point x="863.0" y="464.5" type="line"/>
      <point x="1490.5" y="1480.0" type="line"/>
      <point x="1045.5" y="1480.0" type="line"/>
      <point x="671.5" y="871.5" type="line"/>
      <point x="795.5" y="871.5" type="line"/>
      <point x="414.5" y="1480.0" type="line"/>
      <point x="-64.5" y="1480.0" type="line"/>
      <point x="586.0" y="464.5" type="line"/>
      <point x="497.0" y="780.5" type="line"/>
    </contour>
    <contour>
      <point x="177.0" y="229.5" type="line"/>
      <point x="1272.0" y="229.5" type="line"/>
      <point x="1272.0" y="475.5" type="line"/>
      <point x="177.0" y="475.5" type="line"/>
    </contour>
    <contour>
      <point x="177.0" y="572.5" type="line"/>
      <point x="1272.0" y="572.5" type="line"/>
      <point x="1272.0" y="818.5" type="line"/>
      <point x="177.0" y="818.5" type="line"/>
    </contour>
  </outline>
</glyph>
<glyph name="section" format="2">
  <advance width="1268.0"/>
  <unicode hex="00A7"/>
  <outline>
    <contour>
      <point x="532.5" y="-22.0" type="curve" smooth="yes"/>
      <point x="927.5" y="-22.0"/>
      <point x="1119.5" y="120.0"/>
      <point x="1119.5" y="347.5" type="curve" smooth="yes"/>
      <point x="1119.5" y="516.0"/>
      <point x="1000.0" y="600.5"/>
      <point x="815.0" y="634.0" type="curve" smooth="yes"/>
      <point x="535.0" y="683.0" type="line" smooth="yes"/>
      <point x="465.5" y="695.5"/>
      <point x="445.0" y="723.0"/>
      <point x="445.0" y="759.5" type="curve" smooth="yes"/>
      <point x="445.0" y="787.0"/>
      <point x="457.5" y="817.0"/>
      <point x="496.0" y="864.0" type="curve"/>
      <point x="276.0" y="1008.0" type="line"/>
      <point x="156.5" y="946.0"/>
      <point x="83.0" y="858.0"/>
      <point x="83.0" y="732.0" type="curve" smooth="yes"/>
      <point x="83.0" y="542.0"/>
      <point x="210.0" y="447.0"/>
      <point x="385.5" y="416.0" type="curve" smooth="yes"/>
      <point x="664.0" y="368.0" type="line" smooth="yes"/>
      <point x="705.0" y="361.5"/>
      <point x="722.0" y="348.0"/>
      <point x="722.0" y="322.0" type="curve" smooth="yes"/>
      <point x="722.0" y="292.0"/>
      <point x="690.0" y="266.0"/>
      <point x="525.5" y="266.0" type="curve" smooth="yes"/>
      <point x="398.5" y="266.0"/>
      <point x="266.0" y="280.0"/>
      <point x="145.5" y="310.0" type="curve"/>
      <point x="145.5" y="22.0" type="line"/>
      <point x="264.0" y="-7.0"/>
      <point x="415.5" y="-22.0"/>
    </contour>
    <contour>
      <point x="971.5" y="460.0" type="line"/>
      <point x="1102.0" y="524.0"/>
      <point x="1185.0" y="616.0"/>
      <point x="1185.0" y="750.0" type="curve" smooth="yes"/>
      <point x="1185.0" y="942.0"/>
      <point x="1065.5" y="1032.5"/>
      <point x="886.0" y="1062.0" type="curve" smooth="yes"/>
      <point x="592.5" y="1108.0" type="line" smooth="yes"/>
      <point x="551.5" y="1114.5"/>
      <point x="531.0" y="1126.0"/>
      <point x="531.0" y="1150.0" type="curve" smooth="yes"/>
      <point x="531.0" y="1176.0"/>
      <point x="568.5" y="1210.0"/>
      <point x="800.0" y="1210.0" type="curve" smooth="yes"/>
      <point x="893.5" y="1210.0"/>
      <point x="987.0" y="1201.0"/>
      <point x="1077.5" y="1182.0" type="curve"/>
      <point x="1077.5" y="1470.0" type="line"/>
      <point x="990.0" y="1487.0"/>
      <point x="871.0" y="1498.0"/>
      <point x="764.5" y="1498.0" type="curve" smooth="yes"/>
      <point x="310.0" y="1498.0"/>
      <point x="133.5" y="1351.0"/>
      <point x="133.5" y="1124.5" type="curve" smooth="yes"/>
      <point x="133.5" y="968.0"/>
      <point x="258.5" y="876.5"/>
      <point x="456.5" y="842.0" type="curve" smooth="yes"/>
      <point x="735.0" y="793.0" type="line" smooth="yes"/>
      <point x="804.5" y="780.5"/>
      <point x="823.0" y="751.0"/>
      <point x="823.0" y="715.0" type="curve" smooth="yes"/>
      <point x="823.0" y="677.5"/>
      <point x="801.5" y="652.5"/>
      <point x="740.0" y="602.5" type="curve"/>
    </contour>
  </outline>
</glyph>
<glyph name="dieresis" format="2">
  <advance width="1200.0"/>
  <unicode hex="00A8"/>
  <anchor x="600.0" y="1200.0" name="_top"/>
  <anchor x="600.0" y="1616.0" name="top"/>
  <outline>
    <contour>
      <point x="875.0" y="1212.5" type="curve" smooth="yes"/>
      <point x="1027.5" y="1212.5"/>
      <point x="1101.5" y="1289.5"/>
      <point x="1101.5" y="1418.0" type="curve" smooth="yes"/>
      <point x="1101.5" y="1546.5"/>
      <point x="1027.5" y="1623.5"/>
      <point x="875.0" y="1623.5" type="curve" smooth="yes"/>
      <point x="722.5" y="1623.5"/>
      <point x="648.5" y="1546.5"/>
      <point x="648.5" y="1418.0" type="curve" smooth="yes"/>
      <point x="648.5" y="1289.5"/>
      <point x="722.5" y="1212.5"/>
    </contour>
    <contour>
      <point x="325.0" y="1212.5" type="curve" smooth="yes"/>
      <point x="477.5" y="1212.5"/>
      <point x="551.5" y="1289.5"/>
      <point x="551.5" y="1418.0" type="curve" smooth="yes"/>
      <point x="551.5" y="1546.5"/>
      <point x="477.5" y="1623.5"/>
      <point x="325.0" y="1623.5" type="curve" smooth="yes"/>
      <point x="172.5" y="1623.5"/>
      <point x="98.5" y="1546.5"/>
      <point x="98.5" y="1418.0" type="curve" smooth="yes"/>
      <point x="98.5" y="1289.5"/>
      <point x="172.5" y="1212.5"/>
    </contour>
  </outline>
</glyph>
<glyph name="copyright" format="2">
  <advance width="1653.0"/>
  <unicode hex="00A9"/>
  <outline>
    <contour>
      <point x="826.5" y="-22.0" type="curve" smooth="yes"/>
      <point x="1278.5" y="-22.0"/>
      <point x="1576.5" y="282.0"/>
      <point x="1576.5" y="740.0" type="curve" smooth="yes"/>
      <point x="1576.5" y="1198.0"/>
      <point x="1278.5" y="1502.0"/>
      <point x="826.5" y="1502.0" type="curve" smooth="yes"/>
      <point x="374.5" y="1502.0"/>
      <point x="76.5" y="1198.0"/>
      <point x="76.5" y="740.0" type="curve" smooth="yes"/>
      <point x="76.5" y="282.0"/>
      <point x="374.5" y="-22.0"/>
    </contour>
    <contour>
      <point x="896.5" y="324.0" type="curve" smooth="yes"/>
      <point x="978.5" y="324.0"/>
      <point x="1050.5" y="336.0"/>
      <point x="1100.5" y="354.0" type="curve"/>
      <point x="1100.5" y="604.0" type="line"/>
      <point x="1022.5" y="586.0"/>
      <point x="980.5" y="580.0"/>
      <point x="924.5" y="580.0" type="curve" smooth="yes"/>
      <point x="812.5" y="580.0"/>
      <point x="750.5" y="634.0"/>
      <point x="750.5" y="732.0" type="curve" smooth="yes"/>
      <point x="750.5" y="832.0"/>
      <point x="806.5" y="888.0"/>
      <point x="936.5" y="888.0" type="curve" smooth="yes"/>
      <point x="992.5" y="888.0"/>
      <point x="1040.5" y="882.0"/>
      <point x="1100.5" y="872.0" type="curve"/>
      <point x="1100.5" y="1122.0" type="line"/>
      <point x="1044.5" y="1136.0"/>
      <point x="982.5" y="1144.0"/>
      <point x="908.5" y="1144.0" type="curve" smooth="yes"/>
      <point x="628.5" y="1144.0"/>
      <point x="450.5" y="992.0"/>
      <point x="450.5" y="732.0" type="curve" smooth="yes"/>
      <point x="450.5" y="474.0"/>
      <point x="624.5" y="324.0"/>
    </contour>
    <contour>
      <point x="826.5" y="190.0" type="curve" smooth="yes"/>
      <point x="488.5" y="190.0"/>
      <point x="298.5" y="400.0"/>
      <point x="298.5" y="740.0" type="curve" smooth="yes"/>
      <point x="298.5" y="1080.0"/>
      <point x="488.5" y="1290.0"/>
      <point x="826.5" y="1290.0" type="curve" smooth="yes"/>
      <point x="1164.5" y="1290.0"/>
      <point x="1354.5" y="1080.0"/>
      <point x="1354.5" y="740.0" type="curve" smooth="yes"/>
      <point x="1354.5" y="400.0"/>
      <point x="1164.5" y="190.0"/>
    </contour>
  </outline>
</glyph>
<glyph name="ordfeminine" format="2">
  <advance width="1054.0"/>
  <unicode hex="00AA"/>
  <outline>
    <contour>
      <point x="360.5" y="592.0" type="curve" smooth="yes"/>
      <point x="457.0" y="592.0"/>
      <point x="547.0" y="619.5"/>
      <point x="601.0" y="687.5" type="curve"/>
      <point x="618.5" y="687.5" type="line"/>
      <point x="647.5" y="610.0" type="line"/>
      <point x="990.0" y="610.0" type="line"/>
      <point x="990.0" y="1062.5" type="line" smooth="yes"/>
      <point x="990.0" y="1389.0"/>
      <point x="837.0" y="1502.0"/>
      <point x="462.5" y="1502.0" type="curve" smooth="yes"/>
      <point x="357.5" y="1502.0"/>
      <point x="227.5" y="1490.0"/>
      <point x="114.5" y="1462.5" type="curve"/>
      <point x="114.5" y="1181.0" type="line"/>
      <point x="197.0" y="1202.0"/>
      <point x="299.5" y="1215.0"/>
      <point x="384.0" y="1215.0" type="curve" smooth="yes"/>
      <point x="552.5" y="1215.0"/>
      <point x="579.5" y="1182.0"/>
      <point x="579.5" y="1124.5" type="curve" smooth="yes"/>
      <point x="579.5" y="853.0" type="line"/>
      <point x="557.0" y="848.0"/>
      <point x="530.5" y="846.5"/>
      <point x="512.5" y="846.5" type="curve" smooth="yes"/>
      <point x="455.0" y="846.5"/>
      <point x="428.5" y="869.0"/>
      <point x="428.5" y="905.5" type="curve" smooth="yes"/>
      <point x="428.5" y="941.5"/>
      <point x="451.5" y="963.0"/>
      <point x="515.0" y="965.0" type="curve" smooth="yes"/>
      <point x="688.0" y="970.0" type="line"/>
      <point x="640.5" y="1150.0" type="line"/>
      <point x="447.5" y="1143.0" type="line" smooth="yes"/>
      <point x="149.0" y="1132.5"/>
      <point x="24.5" y="1039.5"/>
      <point x="24.5" y="859.5" type="curve" smooth="yes"/>
      <point x="24.5" y="707.0"/>
      <point x="129.0" y="592.0"/>
    </contour>
  </outline>
</glyph>
<glyph name="guillemetleft" format="2">
  <advance width="1464.0"/>
  <unicode hex="00AB"/>
  <outline>
    <contour>
      <point x="342.0" y="130.0" type="line"/>
      <point x="797.0" y="130.0" type="line"/>
      <point x="524.0" y="570.0" type="line"/>
      <point x="797.0" y="1010.0" type="line"/>
      <point x="342.0" y="1010.0" type="line"/>
      <point x="69.0" y="570.0" type="line"/>
    </contour>
    <contour>
      <point x="980.0" y="130.0" type="line"/>
      <point x="1435.0" y="130.0" type="line"/>
      <point x="1162.0" y="570.0" type="line"/>
      <point x="1435.0" y="1010.0" type="line"/>
      <point x="980.0" y="1010.0" type="line"/>
      <point x="707.0" y="570.0" type="line"/>
    </contour>
  </outline>
</glyph>
<glyph name="logicalnot" format="2">
  <advance width="1378.0"/>
  <unicode hex="00AC"/>
  <outline>
    <contour>
      <point x="933.5" y="205.0" type="line"/>
      <point x="1278.5" y="205.0" type="line"/>
      <point x="1278.5" y="925.0" type="line"/>
      <point x="105.0" y="925.0" type="line"/>
      <point x="105.0" y="595.0" type="line"/>
      <point x="933.5" y="595.0" type="line"/>
    </contour>
  </outline>
</glyph>
<glyph name="softhyphen" format="2">
  <advance width="1053.0"/>
  <unicode hex="00AD"/>
  <outline>
    <contour>
      <point x="105.0" y="391.5" type="line"/>
      <point x="948.0" y="391.5" type="line"/>
      <point x="948.0" y="748.5" type="line"/>
      <point x="105.0" y="748.5" type="line"/>
    </contour>
  </outline>
</glyph>
<glyph name="registered" format="2">
  <advance width="1413.0"/>
  <unicode hex="00AE"/>
  <outline>
    <contour>
      <point x="706.5" y="268.0" type="curve" smooth="yes"/>
      <point x="1068.5" y="268.0"/>
      <point x="1316.5" y="518.0"/>
      <point x="1316.5" y="882.0" type="curve" smooth="yes"/>
      <point x="1316.5" y="1246.0"/>
      <point x="1068.5" y="1498.0"/>
      <point x="706.5" y="1498.0" type="curve" smooth="yes"/>
      <point x="344.5" y="1498.0"/>
      <point x="96.5" y="1246.0"/>
      <point x="96.5" y="882.0" type="curve" smooth="yes"/>
      <point x="96.5" y="518.0"/>
      <point x="344.5" y="268.0"/>
    </contour>
    <contour>
      <point x="812.5" y="600.0" type="line"/>
      <point x="994.5" y="600.0" type="line"/>
      <point x="842.5" y="820.0" type="line"/>
      <point x="678.5" y="794.0" type="line"/>
    </contour>
    <contour>
      <point x="706.5" y="424.0" type="curve" smooth="yes"/>
      <point x="438.5" y="424.0"/>
      <point x="264.5" y="604.0"/>
      <point x="264.5" y="882.0" type="curve" smooth="yes"/>
      <point x="264.5" y="1162.0"/>
      <point x="438.5" y="1342.0"/>
      <point x="706.5" y="1342.0" type="curve" smooth="yes"/>
      <point x="974.5" y="1342.0"/>
      <point x="1148.5" y="1162.0"/>
      <point x="1148.5" y="882.0" type="curve" smooth="yes"/>
      <point x="1148.5" y="604.0"/>
      <point x="974.5" y="424.0"/>
    </contour>
    <contour>
      <point x="484.5" y="600.0" type="line"/>
      <point x="650.5" y="600.0" type="line"/>
      <point x="656.5" y="786.0" type="line"/>
      <point x="698.5" y="786.0" type="line" smooth="yes"/>
      <point x="878.5" y="786.0"/>
      <point x="962.5" y="850.0"/>
      <point x="962.5" y="988.0" type="curve" smooth="yes"/>
      <point x="962.5" y="1126.0"/>
      <point x="876.5" y="1192.0"/>
      <point x="698.5" y="1192.0" type="curve" smooth="yes"/>
      <point x="484.5" y="1192.0" type="line"/>
    </contour>
    <contour>
      <point x="656.5" y="918.0" type="line"/>
      <point x="656.5" y="1060.0" type="line"/>
      <point x="724.5" y="1060.0" type="line" smooth="yes"/>
      <point x="772.5" y="1060.0"/>
      <point x="800.5" y="1036.0"/>
      <point x="800.5" y="988.0" type="curve" smooth="yes"/>
      <point x="800.5" y="940.0"/>
      <point x="774.5" y="918.0"/>
      <point x="724.5" y="918.0" type="curve" smooth="yes"/>
    </contour>
  </outline>
</glyph>
<glyph name="degree" format="2">
  <advance width="995.0"/>
  <unicode hex="00B0"/>
  <outline>
    <contour>
      <point x="497.5" y="712.0" type="curve" smooth="yes"/>
      <point x="728.5" y="712.0"/>
      <point x="898.5" y="878.0"/>
      <point x="898.5" y="1107.0" type="curve" smooth="yes"/>
      <point x="898.5" y="1336.0"/>
      <point x="728.5" y="1500.0"/>
      <point x="497.5" y="1500.0" type="curve" smooth="yes"/>
      <point x="266.5" y="1500.0"/>
      <point x="96.5" y="1336.0"/>
      <point x="96.5" y="1107.0" type="curve" smooth="yes"/>
      <point x="96.5" y="878.0"/>
      <point x="266.5" y="712.0"/>
    </contour>
    <contour>
      <point x="497.5" y="954.5" type="curve" smooth="yes"/>
      <point x="417.0" y="954.5"/>
      <point x="355.0" y="1012.5"/>
      <point x="355.0" y="1107.0" type="curve" smooth="yes"/>
      <point x="355.0" y="1203.0"/>
      <point x="419.0" y="1257.5"/>
      <point x="497.5" y="1257.5" type="curve" smooth="yes"/>
      <point x="576.0" y="1257.5"/>
      <point x="640.0" y="1203.0"/>
      <point x="640.0" y="1107.0" type="curve" smooth="yes"/>
      <point x="640.0" y="1012.5"/>
      <point x="578.0" y="954.5"/>
    </contour>
  </outline>
</glyph>
<glyph name="plusminus" format="2">
  <advance width="1156.0"/>
  <unicode hex="00B1"/>
  <outline>
    <contour>
      <point x="405.5" y="404.0" type="line"/>
      <point x="750.5" y="404.0" type="line"/>
      <point x="750.5" y="672.0" type="line"/>
      <point x="1051.0" y="672.0" type="line"/>
      <point x="1051.0" y="1002.0" type="line"/>
      <point x="750.5" y="1002.0" type="line"/>
      <point x="750.5" y="1270.0" type="line"/>
      <point x="405.5" y="1270.0" type="line"/>
      <point x="405.5" y="1002.0" type="line"/>
      <point x="105.0" y="1002.0" type="line"/>
      <point x="105.0" y="672.0" type="line"/>
      <point x="405.5" y="672.0" type="line"/>
    </contour>
    <contour>
      <point x="105.0" y="0.5" type="line"/>
      <point x="1051.0" y="0.5" type="line"/>
      <point x="1051.0" y="330.5" type="line"/>
      <point x="105.0" y="330.5" type="line"/>
    </contour>
  </outline>
</glyph>
<glyph name="paragraph" format="2">
  <advance width="1450.5"/>
  <unicode hex="00B6"/>
  <outline>
    <contour>
      <point x="580.0" y="0.0" type="line"/>
      <point x="885.5" y="0.0" type="line"/>
      <point x="885.5" y="1480.0" type="line"/>
      <point x="788.0" y="1493.5"/>
      <point x="680.5" y="1500.0"/>
      <point x="575.5" y="1500.0" type="curve" smooth="yes"/>
      <point x="226.5" y="1500.0"/>
      <point x="70.0" y="1330.0"/>
      <point x="70.0" y="944.5" type="curve" smooth="yes"/>
      <point x="70.0" y="576.5"/>
      <point x="223.5" y="389.5"/>
      <point x="512.5" y="389.5" type="curve" smooth="yes"/>
      <point x="536.5" y="389.5"/>
      <point x="558.0" y="391.0"/>
      <point x="580.0" y="391.0" type="curve"/>
    </contour>
    <contour>
      <point x="1025.5" y="0.0" type="line"/>
      <point x="1331.0" y="0.0" type="line"/>
      <point x="1331.0" y="1480.0" type="line"/>
      <point x="1025.5" y="1480.0" type="line"/>
    </contour>
  </outline>
</glyph>
<glyph name="periodcentered" format="2">
  <advance width="658.0"/>
  <unicode hex="00B7"/>
  <anchor x="329.0" y="560.0" name="_periodcentered"/>
  <outline>
    <contour>
      <point x="329.0" y="307.5" type="curve" smooth="yes"/>
      <point x="501.5" y="307.5"/>
      <point x="608.0" y="408.0"/>
      <point x="608.0" y="560.0" type="curve" smooth="yes"/>
      <point x="608.0" y="712.0"/>
      <point x="505.5" y="812.5"/>
      <point x="329.0" y="812.5" type="curve" smooth="yes"/>
      <point x="152.5" y="812.5"/>
      <point x="50.0" y="716.0"/>
      <point x="50.0" y="560.0" type="curve" smooth="yes"/>
      <point x="50.0" y="404.0"/>
      <point x="156.5" y="307.5"/>
    </contour>
  </outline>
</glyph>
<glyph name="ordmasculine" format="2">
  <advance width="1138.0"/>
  <unicode hex="00BA"/>
  <outline>
    <contour>
      <point x="568.5" y="592.0" type="curve" smooth="yes"/>
      <point x="916.0" y="592.0"/>
      <point x="1109.0" y="773.5"/>
      <point x="1109.0" y="1048.5" type="curve" smooth="yes"/>
      <point x="1109.0" y="1323.5"/>
      <point x="916.0" y="1502.0"/>
      <point x="568.5" y="1502.0" type="curve" smooth="yes"/>
      <point x="221.0" y="1502.0"/>
      <point x="29.0" y="1326.0"/>
      <point x="29.0" y="1048.5" type="curve" smooth="yes"/>
      <point x="29.0" y="771.0"/>
      <point x="221.0" y="592.0"/>
    </contour>
    <contour>
      <point x="568.5" y="891.0" type="curve" smooth="yes"/>
      <point x="489.0" y="891.0"/>
      <point x="438.0" y="936.5"/>
      <point x="438.0" y="1048.5" type="curve" smooth="yes"/>
      <point x="438.0" y="1161.0"/>
      <point x="489.0" y="1203.0"/>
      <point x="568.5" y="1203.0" type="curve" smooth="yes"/>
      <point x="651.0" y="1203.0"/>
      <point x="700.0" y="1161.0"/>
      <point x="700.0" y="1048.5" type="curve" smooth="yes"/>
      <point x="700.0" y="936.5"/>
      <point x="651.0" y="891.0"/>
    </contour>
  </outline>
</glyph>
<glyph name="guillemetright" format="2">
  <advance width="1464.0"/>
  <unicode hex="00BB"/>
  <outline>
    <contour>
      <point x="29.0" y="130.0" type="line"/>
      <point x="484.0" y="130.0" type="line"/>
      <point x="757.0" y="570.0" type="line"/>
      <point x="484.0" y="1010.0" type="line"/>
      <point x="29.0" y="1010.0" type="line"/>
      <point x="302.0" y="570.0" type="line"/>
    </contour>
    <contour>
      <point x="667.0" y="130.0" type="line"/>
      <point x="1122.0" y="130.0" type="line"/>
      <point x="1395.0" y="570.0" type="line"/>
      <point x="1122.0" y="1010.0" type="line"/>
      <point x="667.0" y="1010.0" type="line"/>
      <point x="940.0" y="570.0" type="line"/>
    </contour>
  </outline>
</glyph>
<glyph name="onequarter" format="2">
  <advance width="2353.5"/>
  <unicode hex="00BC"/>
  <outline>
    <contour>
      <point x="341.0" y="651.0" type="line"/>
      <point x="692.5" y="651.0" type="line"/>
      <point x="692.5" y="1620.0" type="line"/>
      <point x="460.0" y="1620.0" type="line"/>
      <point x="129.0" y="1419.0" type="line"/>
      <point x="129.0" y="1126.5" type="line"/>
      <point x="460.0" y="1327.5" type="line"/>
      <point x="341.0" y="1443.5" type="line"/>
    </contour>
    <contour>
      <point x="125.5" y="616.0" type="line"/>
      <point x="895.5" y="616.0" type="line"/>
      <point x="895.5" y="885.5" type="line"/>
      <point x="125.5" y="885.5" type="line"/>
    </contour>
    <contour>
      <point x="567.5" y="-136.0" type="line"/>
      <point x="933.0" y="-136.0" type="line"/>
      <point x="1786.0" y="1616.0" type="line"/>
      <point x="1420.5" y="1616.0" type="line"/>
    </contour>
    <contour>
      <point x="1434.5" y="31.5" type="line"/>
      <point x="2333.0" y="31.5" type="line"/>
      <point x="2333.0" y="288.5" type="line"/>
      <point x="1732.5" y="288.5" type="line"/>
      <point x="1754.5" y="212.5" type="line"/>
      <point x="2036.5" y="864.0" type="line"/>
      <point x="1718.5" y="864.0" type="line"/>
      <point x="1434.5" y="212.5" type="line"/>
    </contour>
    <contour>
      <point x="1909.5" y="-136.0" type="line"/>
      <point x="2214.5" y="-136.0" type="line"/>
      <point x="2214.5" y="526.0" type="line"/>
      <point x="1964.0" y="526.0" type="line"/>
      <point x="1909.5" y="288.5" type="line"/>
    </contour>
  </outline>
</glyph>
<glyph name="onehalf" format="2">
  <advance width="2353.5"/>
  <unicode hex="00BD"/>
  <outline>
    <contour>
      <point x="341.0" y="651.0" type="line"/>
      <point x="692.5" y="651.0" type="line"/>
      <point x="692.5" y="1620.0" type="line"/>
      <point x="460.0" y="1620.0" type="line"/>
      <point x="129.0" y="1419.0" type="line"/>
      <point x="129.0" y="1126.5" type="line"/>
      <point x="460.0" y="1327.5" type="line"/>
      <point x="341.0" y="1443.5" type="line"/>
    </contour>
    <contour>
      <point x="125.5" y="616.0" type="line"/>
      <point x="895.5" y="616.0" type="line"/>
      <point x="895.5" y="885.5" type="line"/>
      <point x="125.5" y="885.5" type="line"/>
    </contour>
    <contour>
      <point x="567.5" y="-136.0" type="line"/>
      <point x="933.0" y="-136.0" type="line"/>
      <point x="1786.0" y="1616.0" type="line"/>
      <point x="1420.5" y="1616.0" type="line"/>
    </contour>
    <contour>
      <point x="1485.5" y="-136.0" type="line"/>
      <point x="2283.0" y="-136.0" type="line"/>
      <point x="2283.0" y="133.5" type="line"/>
      <point x="1883.0" y="133.5" type="line"/>
      <point x="1873.5" y="48.5" type="line"/>
      <point x="2087.0" y="264.0" type="line" smooth="yes"/>
      <point x="2193.5" y="373.0"/>
      <point x="2239.5" y="466.5"/>
      <point x="2239.5" y="568.5" type="curve" smooth="yes"/>
      <point x="2239.5" y="779.5"/>
      <point x="2090.5" y="878.0"/>
      <point x="1775.5" y="878.0" type="curve" smooth="yes"/>
      <point x="1668.5" y="878.0"/>
      <point x="1552.5" y="864.0"/>
      <point x="1473.0" y="839.5" type="curve"/>
      <point x="1473.0" y="573.5" type="line"/>
      <point x="1534.5" y="595.0"/>
      <point x="1635.5" y="616.0"/>
      <point x="1725.0" y="616.0" type="curve" smooth="yes"/>
      <point x="1857.0" y="616.0"/>
      <point x="1894.5" y="586.0"/>
      <point x="1894.5" y="530.5" type="curve" smooth="yes"/>
      <point x="1894.5" y="487.0"/>
      <point x="1864.5" y="439.0"/>
      <point x="1788.0" y="358.0" type="curve" smooth="yes"/>
      <point x="1485.5" y="40.0" type="line"/>
    </contour>
  </outline>
</glyph>
<glyph name="threequarters" format="2">
  <advance width="2353.5"/>
  <unicode hex="00BE"/>
  <outline>
    <contour>
      <point x="377.5" y="602.0" type="curve" smooth="yes"/>
      <point x="709.5" y="602.0"/>
      <point x="852.5" y="718.5"/>
      <point x="852.5" y="902.5" type="curve" smooth="yes"/>
      <point x="852.5" y="1038.0"/>
      <point x="773.5" y="1112.0"/>
      <point x="649.5" y="1134.0" type="curve"/>
      <point x="649.5" y="1127.5" type="line"/>
      <point x="753.0" y="1151.5"/>
      <point x="817.0" y="1234.5"/>
      <point x="817.0" y="1343.0" type="curve" smooth="yes"/>
      <point x="817.0" y="1526.0"/>
      <point x="676.0" y="1630.0"/>
      <point x="370.0" y="1630.0" type="curve" smooth="yes"/>
      <point x="271.0" y="1630.0"/>
      <point x="147.0" y="1613.0"/>
      <point x="77.0" y="1591.5" type="curve"/>
      <point x="77.0" y="1350.0" type="line"/>
      <point x="148.0" y="1375.0"/>
      <point x="253.5" y="1391.5"/>
      <point x="331.5" y="1391.5" type="curve" smooth="yes"/>
      <point x="445.5" y="1391.5"/>
      <point x="484.0" y="1362.5"/>
      <point x="484.0" y="1314.5" type="curve" smooth="yes"/>
      <point x="484.0" y="1275.0"/>
      <point x="458.0" y="1246.5"/>
      <point x="358.5" y="1246.5" type="curve" smooth="yes"/>
      <point x="155.0" y="1246.5" type="line"/>
      <point x="155.0" y="1005.0" type="line"/>
      <point x="374.5" y="1005.0" type="line" smooth="yes"/>
      <point x="491.5" y="1005.0"/>
      <point x="527.0" y="977.5"/>
      <point x="527.0" y="924.5" type="curve" smooth="yes"/>
      <point x="527.0" y="871.5"/>
      <point x="484.0" y="842.0"/>
      <point x="358.0" y="842.0" type="curve" smooth="yes"/>
      <point x="269.5" y="842.0"/>
      <point x="158.5" y="855.0"/>
      <point x="64.5" y="877.5" type="curve"/>
      <point x="64.5" y="636.0" type="line"/>
      <point x="161.5" y="613.5"/>
      <point x="266.5" y="602.0"/>
    </contour>
    <contour>
      <point x="567.5" y="-136.0" type="line"/>
      <point x="933.0" y="-136.0" type="line"/>
      <point x="1786.0" y="1616.0" type="line"/>
      <point x="1420.5" y="1616.0" type="line"/>
    </contour>
    <contour>
      <point x="1434.5" y="31.5" type="line"/>
      <point x="2333.0" y="31.5" type="line"/>
      <point x="2333.0" y="288.5" type="line"/>
      <point x="1732.5" y="288.5" type="line"/>
      <point x="1754.5" y="212.5" type="line"/>
      <point x="2036.5" y="864.0" type="line"/>
      <point x="1718.5" y="864.0" type="line"/>
      <point x="1434.5" y="212.5" type="line"/>
    </contour>
    <contour>
      <point x="1909.5" y="-136.0" type="line"/>
      <point x="2214.5" y="-136.0" type="line"/>
      <point x="2214.5" y="526.0" type="line"/>
      <point x="1964.0" y="526.0" type="line"/>
      <point x="1909.5" y="288.5" type="line"/>
    </contour>
  </outline>
</glyph>
<glyph name="questiondown" format="2">
  <advance width="1119.0"/>
  <unicode hex="00BF"/>
  <outline>
    <contour>
      <point x="746.0" y="568.0" type="line"/>
      <point x="478.5" y="568.0" type="line"/>
      <point x="450.0" y="433.5" type="line"/>
      <point x="210.5" y="375.0"/>
      <point x="52.5" y="244.0"/>
      <point x="52.5" y="25.0" type="curve" smooth="yes"/>
      <point x="52.5" y="-247.5"/>
      <point x="252.0" y="-400.0"/>
      <point x="672.0" y="-400.0" type="curve" smooth="yes"/>
      <point x="810.5" y="-400.0"/>
      <point x="982.0" y="-375.5"/>
      <point x="1085.0" y="-342.5" type="curve"/>
      <point x="1085.0" y="-4.0" type="line"/>
      <point x="979.0" y="-40.0"/>
      <point x="840.5" y="-62.5"/>
      <point x="722.0" y="-62.5" type="curve" smooth="yes"/>
      <point x="549.5" y="-62.5"/>
      <point x="485.0" y="-18.5"/>
      <point x="485.0" y="59.0" type="curve" smooth="yes"/>
      <point x="485.0" y="131.0"/>
      <point x="554.0" y="194.0"/>
      <point x="822.5" y="224.5" type="curve"/>
    </contour>
    <contour>
      <point x="611.5" y="1120.0" type="curve" smooth="yes"/>
      <point x="439.0" y="1120.0"/>
      <point x="332.5" y="1025.5"/>
      <point x="332.5" y="884.0" type="curve" smooth="yes"/>
      <point x="332.5" y="742.5"/>
      <point x="435.0" y="648.0"/>
      <point x="611.5" y="648.0" type="curve" smooth="yes"/>
      <point x="788.0" y="648.0"/>
      <point x="890.5" y="738.5"/>
      <point x="890.5" y="884.0" type="curve" smooth="yes"/>
      <point x="890.5" y="1029.5"/>
      <point x="784.0" y="1120.0"/>
    </contour>
  </outline>
</glyph>
<glyph name="Aacute" format="2">
  <advance width="1645.0"/>
  <unicode hex="00C1"/>
  <anchor x="821.0" y="1520.0" name="_top"/>
  <anchor x="822.5" y="0.0" name="bottom"/>
  <anchor x="1635.0" y="0.0" name="ogonek"/>
  <anchor x="821.0" y="1520.0" name="top"/>
  <outline>
    <contour>
      <point x="10.0" y="0.0" type="line"/>
      <point x="450.0" y="0.0" type="line"/>
      <point x="839.5" y="1289.5" type="line"/>
      <point x="800.5" y="1289.5" type="line"/>
      <point x="1191.0" y="0.0" type="line"/>
      <point x="1635.0" y="0.0" type="line"/>
      <point x="1154.0" y="1480.0" type="line"/>
      <point x="491.0" y="1480.0" type="line"/>
    </contour>
    <contour>
      <point x="436.5" y="336.5" type="line"/>
      <point x="1205.0" y="336.5" type="line"/>
      <point x="1106.0" y="681.5" type="line"/>
      <point x="537.0" y="681.5" type="line"/>
    </contour>
    <contour>
      <point x="617.5" y="1586.0" type="line"/>
      <point x="1018.5" y="1586.0" type="line"/>
      <point x="1277.0" y="1902.0" type="line"/>
      <point x="811.0" y="1902.0" type="line"/>
    </contour>
  </outline>
</glyph>
<glyph name="Atilde" format="2">
  <advance width="1645.0"/>
  <unicode hex="00C3"/>
  <anchor x="821.0" y="1520.0" name="_top"/>
  <anchor x="822.5" y="0.0" name="bottom"/>
  <anchor x="1635.0" y="0.0" name="ogonek"/>
  <anchor x="821.0" y="1520.0" name="top"/>
  <outline>
    <contour>
      <point x="10.0" y="0.0" type="line"/>
      <point x="450.0" y="0.0" type="line"/>
      <point x="839.5" y="1289.5" type="line"/>
      <point x="800.5" y="1289.5" type="line"/>
      <point x="1191.0" y="0.0" type="line"/>
      <point x="1635.0" y="0.0" type="line"/>
      <point x="1154.0" y="1480.0" type="line"/>
      <point x="491.0" y="1480.0" type="line"/>
    </contour>
    <contour>
      <point x="436.5" y="336.5" type="line"/>
      <point x="1205.0" y="336.5" type="line"/>
      <point x="1106.0" y="681.5" type="line"/>
      <point x="537.0" y="681.5" type="line"/>
    </contour>
    <contour>
      <point x="1012.0" y="1586.0" type="curve" smooth="yes"/>
      <point x="1116.0" y="1586.0"/>
      <point x="1185.0" y="1608.0"/>
      <point x="1248.0" y="1660.5" type="curve"/>
      <point x="1248.0" y="1893.0" type="line"/>
      <point x="1175.5" y="1847.5"/>
      <point x="1113.5" y="1826.0"/>
      <point x="1022.0" y="1826.0" type="curve" smooth="yes"/>
      <point x="885.5" y="1826.0"/>
      <point x="784.5" y="1902.0"/>
      <point x="630.0" y="1902.0" type="curve" smooth="yes"/>
      <point x="526.0" y="1902.0"/>
      <point x="457.0" y="1878.0"/>
      <point x="394.0" y="1825.5" type="curve"/>
      <point x="394.0" y="1593.0" type="line"/>
      <point x="466.5" y="1638.5"/>
      <point x="528.5" y="1660.0"/>
      <point x="620.0" y="1660.0" type="curve" smooth="yes"/>
      <point x="756.5" y="1660.0"/>
      <point x="857.5" y="1586.0"/>
    </contour>
  </outline>
</glyph>
<glyph name="Adieresis" format="2">
  <advance width="1645.0"/>
  <unicode hex="00C4"/>
  <anchor x="821.0" y="1520.0" name="_top"/>
  <anchor x="822.5" y="0.0" name="bottom"/>
  <anchor x="1635.0" y="0.0" name="ogonek"/>
  <anchor x="821.0" y="1520.0" name="top"/>
  <outline>
    <contour>
      <point x="10.0" y="0.0" type="line"/>
      <point x="450.0" y="0.0" type="line"/>
      <point x="839.5" y="1289.5" type="line"/>
      <point x="800.5" y="1289.5" type="line"/>
      <point x="1191.0" y="0.0" type="line"/>
      <point x="1635.0" y="0.0" type="line"/>
      <point x="1154.0" y="1480.0" type="line"/>
      <point x="491.0" y="1480.0" type="line"/>
    </contour>
    <contour>
      <point x="436.5" y="336.5" type="line"/>
      <point x="1205.0" y="336.5" type="line"/>
      <point x="1106.0" y="681.5" type="line"/>
      <point x="537.0" y="681.5" type="line"/>
    </contour>
    <contour>
      <point x="1105.5" y="1570.0" type="curve" smooth="yes"/>
      <point x="1258.5" y="1570.0"/>
      <point x="1328.5" y="1637.0"/>
      <point x="1328.5" y="1750.0" type="curve" smooth="yes"/>
      <point x="1328.5" y="1863.0"/>
      <point x="1258.5" y="1930.0"/>
      <point x="1105.5" y="1930.0" type="curve" smooth="yes"/>
      <point x="952.5" y="1930.0"/>
      <point x="882.5" y="1863.0"/>
      <point x="882.5" y="1750.0" type="curve" smooth="yes"/>
      <point x="882.5" y="1637.0"/>
      <point x="952.5" y="1570.0"/>
    </contour>
    <contour>
      <point x="536.5" y="1570.0" type="curve" smooth="yes"/>
      <point x="689.5" y="1570.0"/>
      <point x="759.5" y="1637.0"/>
      <point x="759.5" y="1750.0" type="curve" smooth="yes"/>
      <point x="759.5" y="1863.0"/>
      <point x="689.5" y="1930.0"/>
      <point x="536.5" y="1930.0" type="curve" smooth="yes"/>
      <point x="383.5" y="1930.0"/>
      <point x="313.5" y="1863.0"/>
      <point x="313.5" y="1750.0" type="curve" smooth="yes"/>
      <point x="313.5" y="1637.0"/>
      <point x="383.5" y="1570.0"/>
    </contour>
  </outline>
</glyph>
<glyph name="AE" format="2">
  <advance width="2247.0"/>
  <unicode hex="00C6"/>
  <anchor x="1165.5" y="0.0" name="bottom"/>
  <anchor x="1165.5" y="1520.0" name="top"/>
  <outline>
    <contour>
      <point x="10.0" y="0.0" type="line"/>
      <point x="451.5" y="0.0" type="line"/>
      <point x="794.0" y="1134.0" type="line"/>
      <point x="1143.5" y="1134.0" type="line"/>
      <point x="1143.5" y="1480.0" type="line"/>
      <point x="491.0" y="1480.0" type="line"/>
    </contour>
    <contour>
      <point x="436.5" y="336.0" type="line"/>
      <point x="1135.0" y="336.0" type="line"/>
      <point x="1135.0" y="682.0" type="line"/>
      <point x="537.0" y="682.0" type="line"/>
    </contour>
    <contour>
      <point x="1059.5" y="0.0" type="line"/>
      <point x="2168.0" y="0.0" type="line"/>
      <point x="2168.0" y="346.0" type="line"/>
      <point x="1482.5" y="346.0" type="line"/>
      <point x="1406.5" y="1134.0" type="line"/>
      <point x="2158.0" y="1134.0" type="line"/>
      <point x="2158.0" y="1480.0" type="line"/>
      <point x="936.5" y="1480.0" type="line"/>
    </contour>
    <contour>
      <point x="1201.0" y="582.0" type="line"/>
      <point x="2052.5" y="582.0" type="line"/>
      <point x="2052.5" y="928.0" type="line"/>
      <point x="1201.0" y="928.0" type="line"/>
    </contour>
  </outline>
</glyph>
<glyph name="Ccedilla" format="2">
  <advance width="1391.5"/>
  <unicode hex="00C7"/>
  <anchor x="832.0" y="0.0" name="_bottom"/>
  <anchor x="832.0" y="0.0" name="bottom"/>
  <anchor x="832.0" y="1520.0" name="top"/>
  <outline>
    <contour>
      <point x="978.5" y="-20.0" type="curve" smooth="yes"/>
      <point x="1100.5" y="-20.0"/>
      <point x="1229.0" y="-3.5"/>
      <point x="1329.0" y="22.0" type="curve"/>
      <point x="1329.0" y="386.0" type="line"/>
      <point x="1233.0" y="364.0"/>
      <point x="1125.0" y="347.5"/>
      <point x="1015.5" y="347.5" type="curve" smooth="yes"/>
      <point x="690.5" y="347.5"/>
      <point x="552.5" y="474.5"/>
      <point x="552.5" y="740.0" type="curve" smooth="yes"/>
      <point x="552.5" y="1003.0"/>
      <point x="692.5" y="1132.5"/>
      <point x="1030.5" y="1132.5" type="curve" smooth="yes"/>
      <point x="1138.5" y="1132.5"/>
      <point x="1236.5" y="1122.0"/>
      <point x="1329.0" y="1104.5" type="curve"/>
      <point x="1329.0" y="1468.5" type="line"/>
      <point x="1222.5" y="1490.0"/>
      <point x="1110.0" y="1500.0"/>
      <point x="991.5" y="1500.0" type="curve" smooth="yes"/>
      <point x="393.0" y="1500.0"/>
      <point x="76.5" y="1215.0"/>
      <point x="76.5" y="736.0" type="curve" smooth="yes"/>
      <point x="76.5" y="231.0"/>
      <point x="385.5" y="-20.0"/>
    </contour>
    <contour>
      <point x="784.5" y="-460.0" type="curve" smooth="yes"/>
      <point x="997.5" y="-460.0"/>
      <point x="1097.0" y="-382.0"/>
      <point x="1097.0" y="-260.5" type="curve" smooth="yes"/>
      <point x="1097.0" y="-141.0"/>
      <point x="1008.5" y="-67.5"/>
      <point x="810.0" y="-67.5" type="curve"/>
      <point x="904.0" y="-122.0" type="line"/>
      <point x="904.0" y="20.0" type="line"/>
      <point x="706.0" y="20.0" type="line"/>
      <point x="706.0" y="-182.5" type="line"/>
      <point x="763.0" y="-182.5" type="line" smooth="yes"/>
      <point x="837.5" y="-182.5"/>
      <point x="877.5" y="-200.0"/>
      <point x="877.5" y="-246.0" type="curve" smooth="yes"/>
      <point x="877.5" y="-289.5"/>
      <point x="838.5" y="-305.5"/>
      <point x="762.5" y="-305.5" type="curve" smooth="yes"/>
      <point x="703.0" y="-305.5"/>
      <point x="627.0" y="-296.0"/>
      <point x="566.0" y="-276.5" type="curve"/>
      <point x="566.0" y="-429.5" type="line"/>
      <point x="630.0" y="-448.5"/>
      <point x="698.5" y="-460.0"/>
    </contour>
  </outline>
</glyph>
<glyph name="Edieresis" format="2">
  <advance width="1405.5"/>
  <unicode hex="00CB"/>
  <anchor x="740.0" y="1520.0" name="_top"/>
  <anchor x="740.0" y="0.0" name="bottom"/>
  <anchor x="1231.5" y="0.0" name="ogonek"/>
  <anchor x="740.0" y="1520.0" name="top"/>
  <anchor x="39.0" y="1480.0" name="topleft"/>
  <outline>
    <contour>
      <point x="119.5" y="0.0" type="line"/>
      <point x="1326.5" y="0.0" type="line"/>
      <point x="1326.5" y="346.0" type="line"/>
      <point x="568.5" y="346.0" type="line"/>
      <point x="568.5" y="1134.0" type="line"/>
      <point x="1316.5" y="1134.0" type="line"/>
      <point x="1316.5" y="1480.0" type="line"/>
      <point x="119.5" y="1480.0" type="line"/>
    </contour>
    <contour>
      <point x="360.0" y="582.0" type="line"/>
      <point x="1211.0" y="582.0" type="line"/>
      <point x="1211.0" y="928.0" type="line"/>
      <point x="360.0" y="928.0" type="line"/>
    </contour>
    <contour>
      <point x="1024.5" y="1570.0" type="curve" smooth="yes"/>
      <point x="1177.5" y="1570.0"/>
      <point x="1247.5" y="1637.0"/>
      <point x="1247.5" y="1750.0" type="curve" smooth="yes"/>
      <point x="1247.5" y="1863.0"/>
      <point x="1177.5" y="1930.0"/>
      <point x="1024.5" y="1930.0" type="curve" smooth="yes"/>
      <point x="871.5" y="1930.0"/>
      <point x="801.5" y="1863.0"/>
      <point x="801.5" y="1750.0" type="curve" smooth="yes"/>
      <point x="801.5" y="1637.0"/>
      <point x="871.5" y="1570.0"/>
    </contour>
    <contour>
      <point x="455.5" y="1570.0" type="curve" smooth="yes"/>
      <point x="608.5" y="1570.0"/>
      <point x="678.5" y="1637.0"/>
      <point x="678.5" y="1750.0" type="curve" smooth="yes"/>
      <point x="678.5" y="1863.0"/>
      <point x="608.5" y="1930.0"/>
      <point x="455.5" y="1930.0" type="curve" smooth="yes"/>
      <point x="302.5" y="1930.0"/>
      <point x="232.5" y="1863.0"/>
      <point x="232.5" y="1750.0" type="curve" smooth="yes"/>
      <point x="232.5" y="1637.0"/>
      <point x="302.5" y="1570.0"/>
    </contour>
  </outline>
</glyph>
<glyph name="Igrave" format="2">
  <advance width="694.0"/>
  <unicode hex="00CC"/>
  <anchor x="347.0" y="1520.0" name="_top"/>
  <anchor x="345.5" y="0.0" name="bottom"/>
  <anchor x="574.5" y="0.0" name="ogonek"/>
  <anchor x="347.0" y="1520.0" name="top"/>
  <outline>
    <contour>
      <point x="119.5" y="0.0" type="line"/>
      <point x="574.5" y="0.0" type="line"/>
      <point x="574.5" y="1480.0" type="line"/>
      <point x="119.5" y="1480.0" type="line"/>
    </contour>
    <contour>
      <point x="146.5" y="1586.0" type="line"/>
      <point x="547.5" y="1586.0" type="line"/>
      <point x="354.0" y="1902.0" type="line"/>
      <point x="-112.0" y="1902.0" type="line"/>
    </contour>
  </outline>
</glyph>
<glyph name="Iacute" format="2">
  <advance width="694.0"/>
  <unicode hex="00CD"/>
  <anchor x="347.0" y="1520.0" name="_top"/>
  <anchor x="345.5" y="0.0" name="bottom"/>
  <anchor x="574.5" y="0.0" name="ogonek"/>
  <anchor x="347.0" y="1520.0" name="top"/>
  <outline>
    <contour>
      <point x="119.5" y="0.0" type="line"/>
      <point x="574.5" y="0.0" type="line"/>
      <point x="574.5" y="1480.0" type="line"/>
      <point x="119.5" y="1480.0" type="line"/>
    </contour>
    <contour>
      <point x="143.5" y="1586.0" type="line"/>
      <point x="544.5" y="1586.0" type="line"/>
      <point x="803.0" y="1902.0" type="line"/>
      <point x="337.0" y="1902.0" type="line"/>
    </contour>
  </outline>
</glyph>
<glyph name="Idieresis" format="2">
  <advance width="694.0"/>
  <unicode hex="00CF"/>
  <anchor x="347.0" y="1520.0" name="_top"/>
  <anchor x="345.5" y="0.0" name="bottom"/>
  <anchor x="574.5" y="0.0" name="ogonek"/>
  <anchor x="347.0" y="1520.0" name="top"/>
  <outline>
    <contour>
      <point x="119.5" y="0.0" type="line"/>
      <point x="574.5" y="0.0" type="line"/>
      <point x="574.5" y="1480.0" type="line"/>
      <point x="119.5" y="1480.0" type="line"/>
    </contour>
    <contour>
      <point x="631.5" y="1570.0" type="curve" smooth="yes"/>
      <point x="784.5" y="1570.0"/>
      <point x="854.5" y="1637.0"/>
      <point x="854.5" y="1750.0" type="curve" smooth="yes"/>
      <point x="854.5" y="1863.0"/>
      <point x="784.5" y="1930.0"/>
      <point x="631.5" y="1930.0" type="curve" smooth="yes"/>
      <point x="478.5" y="1930.0"/>
      <point x="408.5" y="1863.0"/>
      <point x="408.5" y="1750.0" type="curve" smooth="yes"/>
      <point x="408.5" y="1637.0"/>
      <point x="478.5" y="1570.0"/>
    </contour>
    <contour>
      <point x="62.5" y="1570.0" type="curve" smooth="yes"/>
      <point x="215.5" y="1570.0"/>
      <point x="285.5" y="1637.0"/>
      <point x="285.5" y="1750.0" type="curve" smooth="yes"/>
      <point x="285.5" y="1863.0"/>
      <point x="215.5" y="1930.0"/>
      <point x="62.5" y="1930.0" type="curve" smooth="yes"/>
      <point x="-90.5" y="1930.0"/>
      <point x="-160.5" y="1863.0"/>
      <point x="-160.5" y="1750.0" type="curve" smooth="yes"/>
      <point x="-160.5" y="1637.0"/>
      <point x="-90.5" y="1570.0"/>
    </contour>
  </outline>
</glyph>
<glyph name="Ntilde" format="2">
  <advance width="1698.0"/>
  <unicode hex="00D1"/>
  <anchor x="849.0" y="1520.0" name="_top"/>
  <anchor x="849.0" y="0.0" name="bottom"/>
  <anchor x="849.0" y="1520.0" name="top"/>
  <outline>
    <contour>
      <point x="119.5" y="0.0" type="line"/>
      <point x="547.0" y="0.0" type="line"/>
      <point x="547.0" y="933.0" type="line"/>
      <point x="477.0" y="933.0" type="line"/>
      <point x="1124.0" y="0.0" type="line"/>
      <point x="1578.5" y="0.0" type="line"/>
      <point x="1578.5" y="1480.0" type="line"/>
      <point x="1151.0" y="1480.0" type="line"/>
      <point x="1151.0" y="547.0" type="line"/>
      <point x="1221.0" y="547.0" type="line"/>
      <point x="574.0" y="1480.0" type="line"/>
      <point x="119.5" y="1480.0" type="line"/>
    </contour>
    <contour>
      <point x="1040.0" y="1586.0" type="curve" smooth="yes"/>
      <point x="1144.0" y="1586.0"/>
      <point x="1213.0" y="1608.0"/>
      <point x="1276.0" y="1660.5" type="curve"/>
      <point x="1276.0" y="1893.0" type="line"/>
      <point x="1203.5" y="1847.5"/>
      <point x="1141.5" y="1826.0"/>
      <point x="1050.0" y="1826.0" type="curve" smooth="yes"/>
      <point x="913.5" y="1826.0"/>
      <point x="812.5" y="1902.0"/>
      <point x="658.0" y="1902.0" type="curve" smooth="yes"/>
      <point x="554.0" y="1902.0"/>
      <point x="485.0" y="1878.0"/>
      <point x="422.0" y="1825.5" type="curve"/>
      <point x="422.0" y="1593.0" type="line"/>
      <point x="494.5" y="1638.5"/>
      <point x="556.5" y="1660.0"/>
      <point x="648.0" y="1660.0" type="curve" smooth="yes"/>
      <point x="784.5" y="1660.0"/>
      <point x="885.5" y="1586.0"/>
    </contour>
  </outline>
</glyph>
<glyph name="Otilde" format="2">
  <advance width="1768.0"/>
  <unicode hex="00D5"/>
  <anchor x="884.0" y="1520.0" name="_top"/>
  <anchor x="884.0" y="0.0" name="bottom"/>
  <anchor x="884.0" y="740.0" name="center"/>
  <anchor x="1050.5" y="0.0" name="ogonek"/>
  <anchor x="884.0" y="1520.0" name="top"/>
  <anchor x="55.5" y="1480.0" name="topleft"/>
  <anchor x="1102.5" y="1480.0" name="topright"/>
  <outline>
    <contour>
      <point x="884.0" y="-20.0" type="curve" smooth="yes"/>
      <point x="1379.5" y="-20.0"/>
      <point x="1691.5" y="256.5"/>
      <point x="1691.5" y="740.0" type="curve" smooth="yes"/>
      <point x="1691.5" y="1223.5"/>
      <point x="1381.0" y="1500.0"/>
      <point x="884.0" y="1500.0" type="curve" smooth="yes"/>
      <point x="387.0" y="1500.0"/>
      <point x="76.5" y="1226.5"/>
      <point x="76.5" y="740.0" type="curve" smooth="yes"/>
      <point x="76.5" y="253.5"/>
      <point x="388.5" y="-20.0"/>
    </contour>
    <contour>
      <point x="884.0" y="337.0" type="curve" smooth="yes"/>
      <point x="661.0" y="337.0"/>
      <point x="540.5" y="463.5"/>
      <point x="540.5" y="748.0" type="curve" smooth="yes"/>
      <point x="540.5" y="1016.5"/>
      <point x="665.5" y="1143.0"/>
      <point x="884.0" y="1143.0" type="curve" smooth="yes"/>
      <point x="1102.5" y="1143.0"/>
      <point x="1227.5" y="1012.0"/>
      <point x="1227.5" y="732.0" type="curve" smooth="yes"/>
      <point x="1227.5" y="468.0"/>
      <point x="1107.0" y="337.0"/>
    </contour>
    <contour>
      <point x="1075.0" y="1586.0" type="curve" smooth="yes"/>
      <point x="1179.0" y="1586.0"/>
      <point x="1248.0" y="1608.0"/>
      <point x="1311.0" y="1660.5" type="curve"/>
      <point x="1311.0" y="1893.0" type="line"/>
      <point x="1238.5" y="1847.5"/>
      <point x="1176.5" y="1826.0"/>
      <point x="1085.0" y="1826.0" type="curve" smooth="yes"/>
      <point x="948.5" y="1826.0"/>
      <point x="847.5" y="1902.0"/>
      <point x="693.0" y="1902.0" type="curve" smooth="yes"/>
      <point x="589.0" y="1902.0"/>
      <point x="520.0" y="1878.0"/>
      <point x="457.0" y="1825.5" type="curve"/>
      <point x="457.0" y="1593.0" type="line"/>
      <point x="529.5" y="1638.5"/>
      <point x="591.5" y="1660.0"/>
      <point x="683.0" y="1660.0" type="curve" smooth="yes"/>
      <point x="819.5" y="1660.0"/>
      <point x="920.5" y="1586.0"/>
    </contour>
  </outline>
</glyph>
<glyph name="multiply" format="2">
  <advance width="1098.0"/>
  <unicode hex="00D7"/>
  <outline>
    <contour>
      <point x="303.0" y="281.0" type="line"/>
      <point x="549.0" y="527.0" type="line"/>
      <point x="795.0" y="281.0" type="line"/>
      <point x="1028.0" y="514.0" type="line"/>
      <point x="782.0" y="760.0" type="line"/>
      <point x="1028.0" y="1006.0" type="line"/>
      <point x="795.0" y="1239.0" type="line"/>
      <point x="549.0" y="993.0" type="line"/>
      <point x="303.0" y="1239.0" type="line"/>
      <point x="70.0" y="1006.0" type="line"/>
      <point x="316.0" y="760.0" type="line"/>
      <point x="70.0" y="514.0" type="line"/>
    </contour>
  </outline>
</glyph>
<glyph name="Oslash" format="2">
  <advance width="1768.0"/>
  <unicode hex="00D8"/>
  <anchor x="884.0" y="740.0" name="_center"/>
  <anchor x="881.5" y="0.0" name="bottom"/>
  <anchor x="884.0" y="740.0" name="center"/>
  <anchor x="1050.5" y="0.0" name="ogonek"/>
  <anchor x="881.5" y="1520.0" name="top"/>
  <anchor x="55.5" y="1480.0" name="topleft"/>
  <anchor x="1102.5" y="1480.0" name="topright"/>
  <outline>
    <contour>
      <point x="884.0" y="-20.0" type="curve" smooth="yes"/>
      <point x="1379.5" y="-20.0"/>
      <point x="1691.5" y="256.5"/>
      <point x="1691.5" y="740.0" type="curve" smooth="yes"/>
      <point x="1691.5" y="1223.5"/>
      <point x="1381.0" y="1500.0"/>
      <point x="884.0" y="1500.0" type="curve" smooth="yes"/>
      <point x="387.0" y="1500.0"/>
      <point x="76.5" y="1226.5"/>
      <point x="76.5" y="740.0" type="curve" smooth="yes"/>
      <point x="76.5" y="253.5"/>
      <point x="388.5" y="-20.0"/>
    </contour>
    <contour>
      <point x="884.0" y="337.0" type="curve" smooth="yes"/>
      <point x="661.0" y="337.0"/>
      <point x="540.5" y="463.5"/>
      <point x="540.5" y="748.0" type="curve" smooth="yes"/>
      <point x="540.5" y="1016.5"/>
      <point x="665.5" y="1143.0"/>
      <point x="884.0" y="1143.0" type="curve" smooth="yes"/>
      <point x="1102.5" y="1143.0"/>
      <point x="1227.5" y="1012.0"/>
      <point x="1227.5" y="732.0" type="curve" smooth="yes"/>
      <point x="1227.5" y="468.0"/>
      <point x="1107.0" y="337.0"/>
    </contour>
    <contour>
      <point x="334.5" y="-62.0" type="line"/>
      <point x="1602.0" y="1398.0" type="line"/>
      <point x="1433.5" y="1542.0" type="line"/>
      <point x="166.0" y="82.0" type="line"/>
    </contour>
  </outline>
</glyph>
<glyph name="Uacute" format="2">
  <advance width="1651.5"/>
  <unicode hex="00DA"/>
  <anchor x="830.0" y="1520.0" name="_top"/>
  <anchor x="830.0" y="0.0" name="bottom"/>
  <anchor x="1086.5" y="0.0" name="ogonek"/>
  <anchor x="830.0" y="1520.0" name="top"/>
  <anchor x="1108.0" y="1480.0" name="topright"/>
  <outline>
    <contour>
      <point x="830.0" y="-20.0" type="curve" smooth="yes"/>
      <point x="1326.5" y="-20.0"/>
      <point x="1538.0" y="224.0"/>
      <point x="1538.0" y="671.5" type="curve" smooth="yes"/>
      <point x="1538.0" y="1480.0" type="line"/>
      <point x="1091.0" y="1480.0" type="line"/>
      <point x="1091.0" y="632.0" type="line" smooth="yes"/>
      <point x="1091.0" y="430.0"/>
      <point x="1002.0" y="344.0"/>
      <point x="830.0" y="344.0" type="curve" smooth="yes"/>
      <point x="658.0" y="344.0"/>
      <point x="568.5" y="430.0"/>
      <point x="568.5" y="632.0" type="curve" smooth="yes"/>
      <point x="568.5" y="1480.0" type="line"/>
      <point x="113.5" y="1480.0" type="line"/>
      <point x="113.5" y="671.5" type="line" smooth="yes"/>
      <point x="113.5" y="224.0"/>
      <point x="325.0" y="-20.0"/>
    </contour>
    <contour>
      <point x="626.5" y="1586.0" type="line"/>
      <point x="1027.5" y="1586.0" type="line"/>
      <point x="1286.0" y="1902.0" type="line"/>
      <point x="820.0" y="1902.0" type="line"/>
    </contour>
  </outline>
</glyph>
<glyph name="Ucircumflex" format="2">
  <advance width="1651.5"/>
  <unicode hex="00DB"/>
  <anchor x="830.0" y="1520.0" name="_top"/>
  <anchor x="830.0" y="0.0" name="bottom"/>
  <anchor x="1086.5" y="0.0" name="ogonek"/>
  <anchor x="830.0" y="1520.0" name="top"/>
  <anchor x="1108.0" y="1480.0" name="topright"/>
  <outline>
    <contour>
      <point x="830.0" y="-20.0" type="curve" smooth="yes"/>
      <point x="1326.5" y="-20.0"/>
      <point x="1538.0" y="224.0"/>
      <point x="1538.0" y="671.5" type="curve" smooth="yes"/>
      <point x="1538.0" y="1480.0" type="line"/>
      <point x="1091.0" y="1480.0" type="line"/>
      <point x="1091.0" y="632.0" type="line" smooth="yes"/>
      <point x="1091.0" y="430.0"/>
      <point x="1002.0" y="344.0"/>
      <point x="830.0" y="344.0" type="curve" smooth="yes"/>
      <point x="658.0" y="344.0"/>
      <point x="568.5" y="430.0"/>
      <point x="568.5" y="632.0" type="curve" smooth="yes"/>
      <point x="568.5" y="1480.0" type="line"/>
      <point x="113.5" y="1480.0" type="line"/>
      <point x="113.5" y="671.5" type="line" smooth="yes"/>
      <point x="113.5" y="224.0"/>
      <point x="325.0" y="-20.0"/>
    </contour>
    <contour>
      <point x="348.5" y="1586.0" type="line"/>
      <point x="685.5" y="1586.0" type="line"/>
      <point x="864.0" y="1784.5" type="line"/>
      <point x="796.0" y="1784.5" type="line"/>
      <point x="974.5" y="1586.0" type="line"/>
      <point x="1311.5" y="1586.0" type="line"/>
      <point x="1014.5" y="1902.0" type="line"/>
      <point x="645.5" y="1902.0" type="line"/>
    </contour>
  </outline>
</glyph>
<glyph name="Udieresis" format="2">
  <advance width="1651.5"/>
  <unicode hex="00DC"/>
  <anchor x="830.0" y="1520.0" name="_top"/>
  <anchor x="830.0" y="0.0" name="bottom"/>
  <anchor x="1086.5" y="0.0" name="ogonek"/>
  <anchor x="830.0" y="1520.0" name="top"/>
  <anchor x="1108.0" y="1480.0" name="topright"/>
  <outline>
    <contour>
      <point x="830.0" y="-20.0" type="curve" smooth="yes"/>
      <point x="1326.5" y="-20.0"/>
      <point x="1538.0" y="224.0"/>
      <point x="1538.0" y="671.5" type="curve" smooth="yes"/>
      <point x="1538.0" y="1480.0" type="line"/>
      <point x="1091.0" y="1480.0" type="line"/>
      <point x="1091.0" y="632.0" type="line" smooth="yes"/>
      <point x="1091.0" y="430.0"/>
      <point x="1002.0" y="344.0"/>
      <point x="830.0" y="344.0" type="curve" smooth="yes"/>
      <point x="658.0" y="344.0"/>
      <point x="568.5" y="430.0"/>
      <point x="568.5" y="632.0" type="curve" smooth="yes"/>
      <point x="568.5" y="1480.0" type="line"/>
      <point x="113.5" y="1480.0" type="line"/>
      <point x="113.5" y="671.5" type="line" smooth="yes"/>
      <point x="113.5" y="224.0"/>
      <point x="325.0" y="-20.0"/>
    </contour>
    <contour>
      <point x="1114.5" y="1570.0" type="curve" smooth="yes"/>
      <point x="1267.5" y="1570.0"/>
      <point x="1337.5" y="1637.0"/>
      <point x="1337.5" y="1750.0" type="curve" smooth="yes"/>
      <point x="1337.5" y="1863.0"/>
      <point x="1267.5" y="1930.0"/>
      <point x="1114.5" y="1930.0" type="curve" smooth="yes"/>
      <point x="961.5" y="1930.0"/>
      <point x="891.5" y="1863.0"/>
      <point x="891.5" y="1750.0" type="curve" smooth="yes"/>
      <point x="891.5" y="1637.0"/>
      <point x="961.5" y="1570.0"/>
    </contour>
    <contour>
      <point x="545.5" y="1570.0" type="curve" smooth="yes"/>
      <point x="698.5" y="1570.0"/>
      <point x="768.5" y="1637.0"/>
      <point x="768.5" y="1750.0" type="curve" smooth="yes"/>
      <point x="768.5" y="1863.0"/>
      <point x="698.5" y="1930.0"/>
      <point x="545.5" y="1930.0" type="curve" smooth="yes"/>
      <point x="392.5" y="1930.0"/>
      <point x="322.5" y="1863.0"/>
      <point x="322.5" y="1750.0" type="curve" smooth="yes"/>
      <point x="322.5" y="1637.0"/>
      <point x="392.5" y="1570.0"/>
    </contour>
  </outline>
</glyph>
<glyph name="Yacute" format="2">
  <advance width="1445.5"/>
  <unicode hex="00DD"/>
  <anchor x="722.0" y="1520.0" name="_top"/>
  <anchor x="721.5" y="0.0" name="bottom"/>
  <anchor x="722.0" y="1520.0" name="top"/>
  <anchor x="-2.5" y="1480.0" name="topleft"/>
  <outline>
    <contour>
      <point x="498.5" y="0.0" type="line"/>
      <point x="953.5" y="0.0" type="line"/>
      <point x="953.5" y="774.5" type="line"/>
      <point x="864.5" y="464.5" type="line"/>
      <point x="1492.0" y="1480.0" type="line"/>
      <point x="1047.0" y="1480.0" type="line"/>
      <point x="673.0" y="871.5" type="line"/>
      <point x="797.0" y="871.5" type="line"/>
      <point x="416.0" y="1480.0" type="line"/>
      <point x="-63.0" y="1480.0" type="line"/>
      <point x="587.5" y="464.5" type="line"/>
      <point x="498.5" y="780.5" type="line"/>
    </contour>
    <contour>
      <point x="518.5" y="1586.0" type="line"/>
      <point x="919.5" y="1586.0" type="line"/>
      <point x="1178.0" y="1902.0" type="line"/>
      <point x="712.0" y="1902.0" type="line"/>
    </contour>
  </outline>
</glyph>
<glyph name="Thorn" format="2">
  <advance width="1460.5"/>
  <unicode hex="00DE"/>
  <outline>
    <contour>
      <point x="119.5" y="0.0" type="line"/>
      <point x="574.5" y="0.0" type="line"/>
      <point x="574.5" y="207.0" type="line"/>
      <point x="611.5" y="207.0"/>
      <point x="653.5" y="205.0"/>
      <point x="695.0" y="205.0" type="curve" smooth="yes"/>
      <point x="1141.0" y="205.0"/>
      <point x="1380.5" y="391.0"/>
      <point x="1380.5" y="760.0" type="curve" smooth="yes"/>
      <point x="1380.5" y="1145.5"/>
      <point x="1139.0" y="1315.5"/>
      <point x="648.0" y="1315.5" type="curve" smooth="yes"/>
      <point x="626.0" y="1315.5"/>
      <point x="596.5" y="1313.5"/>
      <point x="574.5" y="1313.5" type="curve"/>
      <point x="574.5" y="1480.0" type="line"/>
      <point x="119.5" y="1480.0" type="line"/>
    </contour>
    <contour>
      <point x="695.0" y="528.0" type="curve" smooth="yes"/>
      <point x="649.0" y="528.0"/>
      <point x="616.5" y="530.0"/>
      <point x="574.5" y="534.0" type="curve"/>
      <point x="574.5" y="984.5" type="line"/>
      <point x="609.5" y="990.5"/>
      <point x="640.5" y="992.5"/>
      <point x="683.5" y="992.5" type="curve" smooth="yes"/>
      <point x="862.5" y="992.5"/>
      <point x="942.0" y="923.5"/>
      <point x="942.0" y="759.0" type="curve" smooth="yes"/>
      <point x="942.0" y="587.0"/>
      <point x="862.5" y="528.0"/>
    </contour>
  </outline>
</glyph>
<glyph name="germandbls" format="2">
  <advance width="1813.0"/>
  <unicode hex="00DF"/>
  <outline>
    <contour>
      <point x="1166.0" y="-22.0" type="curve" smooth="yes"/>
      <point x="1561.0" y="-22.0"/>
      <point x="1768.0" y="120.0"/>
      <point x="1768.0" y="354.5" type="curve" smooth="yes"/>
      <point x="1768.0" y="573.5"/>
      <point x="1644.0" y="656.0"/>
      <point x="1436.5" y="686.5" type="curve" smooth="yes"/>
      <point x="1219.5" y="718.5" type="line" smooth="yes"/>
      <point x="1174.0" y="725.0"/>
      <point x="1161.0" y="735.0"/>
      <point x="1161.0" y="754.5" type="curve" smooth="yes"/>
      <point x="1161.0" y="783.5"/>
      <point x="1189.5" y="814.5"/>
      <point x="1397.0" y="814.5" type="curve" smooth="yes"/>
      <point x="1461.5" y="814.5"/>
      <point x="1520.0" y="812.5"/>
      <point x="1573.0" y="808.0" type="curve"/>
      <point x="1593.0" y="890.0"/>
      <point x="1608.0" y="958.0"/>
      <point x="1608.0" y="1047.0" type="curve" smooth="yes"/>
      <point x="1608.0" y="1446.0"/>
      <point x="1349.5" y="1636.0"/>
      <point x="961.0" y="1636.0" type="curve" smooth="yes"/>
      <point x="485.5" y="1636.0"/>
      <point x="209.5" y="1385.0"/>
      <point x="209.5" y="972.0" type="curve" smooth="yes"/>
      <point x="209.5" y="0.0" type="line"/>
      <point x="654.0" y="0.0" type="line"/>
      <point x="654.0" y="983.5" type="line" smooth="yes"/>
      <point x="654.0" y="1222.5"/>
      <point x="762.5" y="1345.0"/>
      <point x="999.0" y="1345.0" type="curve" smooth="yes"/>
      <point x="1183.0" y="1345.0"/>
      <point x="1301.0" y="1268.0"/>
      <point x="1301.0" y="1099.0" type="curve" smooth="yes"/>
      <point x="1301.0" y="1029.0"/>
      <point x="1289.5" y="965.0"/>
      <point x="1270.5" y="901.0" type="curve"/>
      <point x="1509.5" y="1100.0" type="line"/>
      <point x="1466.0" y="1104.0"/>
      <point x="1364.5" y="1106.0"/>
      <point x="1322.5" y="1106.0" type="curve" smooth="yes"/>
      <point x="944.5" y="1106.0"/>
      <point x="747.0" y="971.0"/>
      <point x="747.0" y="740.0" type="curve" smooth="yes"/>
      <point x="747.0" y="554.5"/>
      <point x="842.0" y="444.0"/>
      <point x="1080.5" y="409.5" type="curve" smooth="yes"/>
      <point x="1297.5" y="377.5" type="line" smooth="yes"/>
      <point x="1343.0" y="371.0"/>
      <point x="1354.0" y="360.5"/>
      <point x="1354.0" y="337.5" type="curve" smooth="yes"/>
      <point x="1354.0" y="303.0"/>
      <point x="1317.5" y="281.5"/>
      <point x="1159.0" y="281.5" type="curve" smooth="yes"/>
      <point x="1041.0" y="281.5"/>
      <point x="880.0" y="303.0"/>
      <point x="779.0" y="327.0" type="curve"/>
      <point x="779.0" y="22.0" type="line"/>
      <point x="897.5" y="-7.0"/>
      <point x="1053.5" y="-22.0"/>
    </contour>
    <contour>
      <point x="39.5" y="746.0" type="line"/>
      <point x="361.5" y="746.0" type="line"/>
      <point x="361.5" y="1100.0" type="line"/>
      <point x="39.5" y="1100.0" type="line"/>
    </contour>
  </outline>
</glyph>
<glyph name="acircumflex" format="2">
  <advance width="1260.0"/>
  <unicode hex="00E2"/>
  <anchor x="626.5" y="1200.0" name="_top"/>
  <anchor x="626.5" y="0.0" name="bottom"/>
  <anchor x="1160.5" y="0.0" name="ogonek"/>
  <anchor x="626.5" y="1200.0" name="top"/>
  <outline>
    <contour>
      <point x="452.0" y="-22.0" type="curve" smooth="yes"/>
      <point x="570.5" y="-22.0"/>
      <point x="676.0" y="11.0"/>
      <point x="746.0" y="95.5" type="curve"/>
      <point x="765.0" y="95.5" type="line"/>
      <point x="794.5" y="0.0" type="line"/>
      <point x="1160.5" y="0.0" type="line"/>
      <point x="1160.5" y="592.0" type="line" smooth="yes"/>
      <point x="1160.5" y="987.0"/>
      <point x="986.5" y="1118.0"/>
      <point x="560.0" y="1118.0" type="curve" smooth="yes"/>
      <point x="440.0" y="1118.0"/>
      <point x="285.0" y="1102.5"/>
      <point x="158.0" y="1069.5" type="curve"/>
      <point x="158.0" y="752.0" type="line"/>
      <point x="260.0" y="780.5"/>
      <point x="387.5" y="795.5"/>
      <point x="477.5" y="795.5" type="curve" smooth="yes"/>
      <point x="670.0" y="795.5"/>
      <point x="726.5" y="749.5"/>
      <point x="726.5" y="626.5" type="curve" smooth="yes"/>
      <point x="726.5" y="296.0" type="line"/>
      <point x="687.5" y="275.0"/>
      <point x="640.5" y="269.0"/>
      <point x="601.5" y="269.0" type="curve" smooth="yes"/>
      <point x="526.5" y="269.0"/>
      <point x="488.0" y="300.5"/>
      <point x="488.0" y="350.0" type="curve" smooth="yes"/>
      <point x="488.0" y="403.5"/>
      <point x="524.5" y="437.0"/>
      <point x="622.0" y="442.5" type="curve" smooth="yes"/>
      <point x="839.0" y="453.5" type="line"/>
      <point x="793.0" y="681.0" type="line"/>
      <point x="575.5" y="670.0" type="line" smooth="yes"/>
      <point x="207.5" y="651.5"/>
      <point x="51.0" y="525.5"/>
      <point x="51.0" y="310.5" type="curve" smooth="yes"/>
      <point x="51.0" y="120.0"/>
      <point x="189.5" y="-22.0"/>
    </contour>
    <contour>
      <point x="190.0" y="1220.0" type="line"/>
      <point x="504.5" y="1220.0" type="line"/>
      <point x="657.5" y="1465.0" type="line"/>
      <point x="595.5" y="1465.0" type="line"/>
      <point x="748.5" y="1220.0" type="line"/>
      <point x="1063.0" y="1220.0" type="line"/>
      <point x="800.5" y="1616.0" type="line"/>
      <point x="452.5" y="1616.0" type="line"/>
    </contour>
  </outline>
</glyph>
<glyph name="atilde" format="2">
  <advance width="1260.0"/>
  <unicode hex="00E3"/>
  <anchor x="626.5" y="1200.0" name="_top"/>
  <anchor x="626.5" y="0.0" name="bottom"/>
  <anchor x="1160.5" y="0.0" name="ogonek"/>
  <anchor x="626.5" y="1200.0" name="top"/>
  <outline>
    <contour>
      <point x="452.0" y="-22.0" type="curve" smooth="yes"/>
      <point x="570.5" y="-22.0"/>
      <point x="676.0" y="11.0"/>
      <point x="746.0" y="95.5" type="curve"/>
      <point x="765.0" y="95.5" type="line"/>
      <point x="794.5" y="0.0" type="line"/>
      <point x="1160.5" y="0.0" type="line"/>
      <point x="1160.5" y="592.0" type="line" smooth="yes"/>
      <point x="1160.5" y="987.0"/>
      <point x="986.5" y="1118.0"/>
      <point x="560.0" y="1118.0" type="curve" smooth="yes"/>
      <point x="440.0" y="1118.0"/>
      <point x="285.0" y="1102.5"/>
      <point x="158.0" y="1069.5" type="curve"/>
      <point x="158.0" y="752.0" type="line"/>
      <point x="260.0" y="780.5"/>
      <point x="387.5" y="795.5"/>
      <point x="477.5" y="795.5" type="curve" smooth="yes"/>
      <point x="670.0" y="795.5"/>
      <point x="726.5" y="749.5"/>
      <point x="726.5" y="626.5" type="curve" smooth="yes"/>
      <point x="726.5" y="296.0" type="line"/>
      <point x="687.5" y="275.0"/>
      <point x="640.5" y="269.0"/>
      <point x="601.5" y="269.0" type="curve" smooth="yes"/>
      <point x="526.5" y="269.0"/>
      <point x="488.0" y="300.5"/>
      <point x="488.0" y="350.0" type="curve" smooth="yes"/>
      <point x="488.0" y="403.5"/>
      <point x="524.5" y="437.0"/>
      <point x="622.0" y="442.5" type="curve" smooth="yes"/>
      <point x="839.0" y="453.5" type="line"/>
      <point x="793.0" y="681.0" type="line"/>
      <point x="575.5" y="670.0" type="line" smooth="yes"/>
      <point x="207.5" y="651.5"/>
      <point x="51.0" y="525.5"/>
      <point x="51.0" y="310.5" type="curve" smooth="yes"/>
      <point x="51.0" y="120.0"/>
      <point x="189.5" y="-22.0"/>
    </contour>
    <contour>
      <point x="799.5" y="1242.5" type="curve" smooth="yes"/>
      <point x="895.5" y="1242.5"/>
      <point x="964.5" y="1268.0"/>
      <point x="1027.5" y="1327.5" type="curve"/>
      <point x="1027.5" y="1586.5" type="line"/>
      <point x="955.0" y="1521.5"/>
      <point x="893.0" y="1495.0"/>
      <point x="809.5" y="1495.0" type="curve" smooth="yes"/>
      <point x="691.0" y="1495.0"/>
      <point x="590.0" y="1595.5"/>
      <point x="453.5" y="1595.5" type="curve" smooth="yes"/>
      <point x="357.5" y="1595.5"/>
      <point x="288.5" y="1570.0"/>
      <point x="225.5" y="1510.5" type="curve"/>
      <point x="225.5" y="1251.5" type="line"/>
      <point x="298.0" y="1316.5"/>
      <point x="360.0" y="1343.0"/>
      <point x="443.5" y="1343.0" type="curve" smooth="yes"/>
      <point x="562.0" y="1343.0"/>
      <point x="663.0" y="1242.5"/>
    </contour>
  </outline>
</glyph>
<glyph name="aring" format="2">
  <advance width="1260.0"/>
  <unicode hex="00E5"/>
  <anchor x="626.5" y="1200.0" name="_top"/>
  <anchor x="626.5" y="0.0" name="bottom"/>
  <anchor x="1160.5" y="0.0" name="ogonek"/>
  <anchor x="626.5" y="1200.0" name="top"/>
  <outline>
    <contour>
      <point x="452.0" y="-22.0" type="curve" smooth="yes"/>
      <point x="570.5" y="-22.0"/>
      <point x="676.0" y="11.0"/>
      <point x="746.0" y="95.5" type="curve"/>
      <point x="765.0" y="95.5" type="line"/>
      <point x="794.5" y="0.0" type="line"/>
      <point x="1160.5" y="0.0" type="line"/>
      <point x="1160.5" y="592.0" type="line" smooth="yes"/>
      <point x="1160.5" y="987.0"/>
      <point x="986.5" y="1118.0"/>
      <point x="560.0" y="1118.0" type="curve" smooth="yes"/>
      <point x="440.0" y="1118.0"/>
      <point x="285.0" y="1102.5"/>
      <point x="158.0" y="1069.5" type="curve"/>
      <point x="158.0" y="752.0" type="line"/>
      <point x="260.0" y="780.5"/>
      <point x="387.5" y="795.5"/>
      <point x="477.5" y="795.5" type="curve" smooth="yes"/>
      <point x="670.0" y="795.5"/>
      <point x="726.5" y="749.5"/>
      <point x="726.5" y="626.5" type="curve" smooth="yes"/>
      <point x="726.5" y="296.0" type="line"/>
      <point x="687.5" y="275.0"/>
      <point x="640.5" y="269.0"/>
      <point x="601.5" y="269.0" type="curve" smooth="yes"/>
      <point x="526.5" y="269.0"/>
      <point x="488.0" y="300.5"/>
      <point x="488.0" y="350.0" type="curve" smooth="yes"/>
      <point x="488.0" y="403.5"/>
      <point x="524.5" y="437.0"/>
      <point x="622.0" y="442.5" type="curve" smooth="yes"/>
      <point x="839.0" y="453.5" type="line"/>
      <point x="793.0" y="681.0" type="line"/>
      <point x="575.5" y="670.0" type="line" smooth="yes"/>
      <point x="207.5" y="651.5"/>
      <point x="51.0" y="525.5"/>
      <point x="51.0" y="310.5" type="curve" smooth="yes"/>
      <point x="51.0" y="120.0"/>
      <point x="189.5" y="-22.0"/>
    </contour>
    <contour>
      <point x="626.5" y="1214.0" type="curve" smooth="yes"/>
      <point x="758.5" y="1214.0"/>
      <point x="854.5" y="1306.0"/>
      <point x="854.5" y="1434.0" type="curve" smooth="yes"/>
      <point x="854.5" y="1562.0"/>
      <point x="758.5" y="1654.0"/>
      <point x="626.5" y="1654.0" type="curve" smooth="yes"/>
      <point x="494.5" y="1654.0"/>
      <point x="398.5" y="1562.0"/>
      <point x="398.5" y="1434.0" type="curve" smooth="yes"/>
      <point x="398.5" y="1306.0"/>
      <point x="494.5" y="1214.0"/>
    </contour>
    <contour>
      <point x="626.5" y="1352.0" type="curve" smooth="yes"/>
      <point x="580.5" y="1352.0"/>
      <point x="548.5" y="1384.0"/>
      <point x="548.5" y="1434.0" type="curve" smooth="yes"/>
      <point x="548.5" y="1484.0"/>
      <point x="580.5" y="1516.0"/>
      <point x="626.5" y="1516.0" type="curve" smooth="yes"/>
      <point x="672.5" y="1516.0"/>
      <point x="704.5" y="1484.0"/>
      <point x="704.5" y="1434.0" type="curve" smooth="yes"/>
      <point x="704.5" y="1384.0"/>
      <point x="672.5" y="1352.0"/>
    </contour>
  </outline>
</glyph>
<glyph name="ae" format="2">
  <advance width="1899.0"/>
  <unicode hex="00E6"/>
  <anchor x="954.5" y="0.0" name="bottom"/>
  <anchor x="954.5" y="1200.0" name="top"/>
  <outline>
    <contour>
      <point x="1417.0" y="-22.0" type="curve" smooth="yes"/>
      <point x="1527.5" y="-22.0"/>
      <point x="1645.5" y="-14.5"/>
      <point x="1779.0" y="9.5" type="curve"/>
      <point x="1779.0" y="324.0" type="line"/>
      <point x="1683.0" y="308.5"/>
      <point x="1573.5" y="297.5"/>
      <point x="1484.0" y="297.5" type="curve" smooth="yes"/>
      <point x="1209.5" y="297.5"/>
      <point x="1160.5" y="343.0"/>
      <point x="1160.5" y="475.0" type="curve" smooth="yes"/>
      <point x="1160.5" y="650.5" type="line" smooth="yes"/>
      <point x="1160.5" y="797.0"/>
      <point x="1204.5" y="852.0"/>
      <point x="1301.0" y="852.0" type="curve" smooth="yes"/>
      <point x="1397.0" y="852.0"/>
      <point x="1440.5" y="795.5"/>
      <point x="1440.5" y="649.0" type="curve"/>
      <point x="1505.0" y="666.5" type="line"/>
      <point x="1071.5" y="666.5" type="line"/>
      <point x="1071.5" y="429.5" type="line"/>
      <point x="1849.5" y="429.5" type="line"/>
      <point x="1849.5" y="533.5" type="line" smooth="yes"/>
      <point x="1849.5" y="900.0"/>
      <point x="1661.5" y="1118.0"/>
      <point x="1327.5" y="1118.0" type="curve" smooth="yes"/>
      <point x="996.0" y="1118.0"/>
      <point x="792.0" y="894.5"/>
      <point x="792.0" y="574.5" type="curve"/>
      <point x="728.5" y="548.5" type="line"/>
      <point x="728.5" y="154.5"/>
      <point x="935.5" y="-22.0"/>
    </contour>
    <contour>
      <point x="492.0" y="-22.0" type="curve" smooth="yes"/>
      <point x="646.5" y="-22.0"/>
      <point x="797.0" y="29.0"/>
      <point x="913.0" y="149.5" type="curve"/>
      <point x="788.5" y="338.0" type="line"/>
      <point x="722.5" y="285.0"/>
      <point x="672.5" y="269.5"/>
      <point x="604.5" y="269.5" type="curve" smooth="yes"/>
      <point x="526.5" y="269.5"/>
      <point x="488.0" y="298.0"/>
      <point x="488.0" y="347.5" type="curve" smooth="yes"/>
      <point x="488.0" y="400.5"/>
      <point x="522.5" y="436.0"/>
      <point x="621.0" y="436.0" type="curve" smooth="yes"/>
      <point x="803.0" y="436.0" type="line"/>
      <point x="803.0" y="666.5" type="line"/>
      <point x="576.0" y="666.5" type="line" smooth="yes"/>
      <point x="209.0" y="666.5"/>
      <point x="51.0" y="528.5"/>
      <point x="51.0" y="313.5" type="curve" smooth="yes"/>
      <point x="51.0" y="119.0"/>
      <point x="189.5" y="-22.0"/>
    </contour>
    <contour>
      <point x="728.5" y="548.5" type="line"/>
      <point x="1097.5" y="548.5" type="line"/>
      <point x="1097.5" y="598.0" type="line" smooth="yes"/>
      <point x="1097.5" y="978.0"/>
      <point x="931.5" y="1118.0"/>
      <point x="540.5" y="1118.0" type="curve" smooth="yes"/>
      <point x="423.0" y="1118.0"/>
      <point x="290.0" y="1103.5"/>
      <point x="158.5" y="1069.5" type="curve"/>
      <point x="158.5" y="752.0" type="line"/>
      <point x="260.5" y="780.5"/>
      <point x="388.0" y="795.5"/>
      <point x="476.5" y="795.5" type="curve" smooth="yes"/>
      <point x="667.5" y="795.5"/>
      <point x="728.5" y="750.0"/>
      <point x="728.5" y="625.0" type="curve" smooth="yes"/>
    </contour>
  </outline>
</glyph>
<glyph name="iacute" format="2">
  <advance width="658.0"/>
  <unicode hex="00ED"/>
  <anchor x="329.0" y="1200.0" name="_top"/>
  <anchor x="329.0" y="0.0" name="bottom"/>
  <anchor x="551.5" y="0.0" name="ogonek"/>
  <anchor x="329.0" y="1200.0" name="top"/>
  <outline>
    <contour>
      <point x="106.5" y="0.0" type="line"/>
      <point x="551.5" y="0.0" type="line"/>
      <point x="551.5" y="1100.0" type="line"/>
      <point x="106.5" y="1100.0" type="line"/>
    </contour>
    <contour>
      <point x="122.0" y="1220.0" type="line"/>
      <point x="536.0" y="1220.0" type="line"/>
      <point x="845.5" y="1616.0" type="line"/>
      <point x="367.5" y="1616.0" type="line"/>
    </contour>
  </outline>
</glyph>
<glyph name="icircumflex" format="2">
  <advance width="658.0"/>
  <unicode hex="00EE"/>
  <anchor x="329.0" y="1200.0" name="_top"/>
  <anchor x="329.0" y="0.0" name="bottom"/>
  <anchor x="551.5" y="0.0" name="ogonek"/>
  <anchor x="329.0" y="1200.0" name="top"/>
  <outline>
    <contour>
      <point x="106.5" y="0.0" type="line"/>
      <point x="551.5" y="0.0" type="line"/>
      <point x="551.5" y="1100.0" type="line"/>
      <point x="106.5" y="1100.0" type="line"/>
    </contour>
    <contour>
      <point x="-107.5" y="1220.0" type="line"/>
      <point x="207.0" y="1220.0" type="line"/>
      <point x="360.0" y="1465.0" type="line"/>
      <point x="298.0" y="1465.0" type="line"/>
      <point x="451.0" y="1220.0" type="line"/>
      <point x="765.5" y="1220.0" type="line"/>
      <point x="503.0" y="1616.0" type="line"/>
      <point x="155.0" y="1616.0" type="line"/>
    </contour>
  </outline>
</glyph>
<glyph name="idieresis" format="2">
  <advance width="658.0"/>
  <unicode hex="00EF"/>
  <anchor x="329.0" y="1200.0" name="_top"/>
  <anchor x="329.0" y="0.0" name="bottom"/>
  <anchor x="551.5" y="0.0" name="ogonek"/>
  <anchor x="329.0" y="1200.0" name="top"/>
  <outline>
    <contour>
      <point x="106.5" y="0.0" type="line"/>
      <point x="551.5" y="0.0" type="line"/>
      <point x="551.5" y="1100.0" type="line"/>
      <point x="106.5" y="1100.0" type="line"/>
    </contour>
    <contour>
      <point x="604.0" y="1212.5" type="curve" smooth="yes"/>
      <point x="756.5" y="1212.5"/>
      <point x="830.5" y="1289.5"/>
      <point x="830.5" y="1418.0" type="curve" smooth="yes"/>
      <point x="830.5" y="1546.5"/>
      <point x="756.5" y="1623.5"/>
      <point x="604.0" y="1623.5" type="curve" smooth="yes"/>
      <point x="451.5" y="1623.5"/>
      <point x="377.5" y="1546.5"/>
      <point x="377.5" y="1418.0" type="curve" smooth="yes"/>
      <point x="377.5" y="1289.5"/>
      <point x="451.5" y="1212.5"/>
    </contour>
    <contour>
      <point x="54.0" y="1212.5" type="curve" smooth="yes"/>
      <point x="206.5" y="1212.5"/>
      <point x="280.5" y="1289.5"/>
      <point x="280.5" y="1418.0" type="curve" smooth="yes"/>
      <point x="280.5" y="1546.5"/>
      <point x="206.5" y="1623.5"/>
      <point x="54.0" y="1623.5" type="curve" smooth="yes"/>
      <point x="-98.5" y="1623.5"/>
      <point x="-172.5" y="1546.5"/>
      <point x="-172.5" y="1418.0" type="curve" smooth="yes"/>
      <point x="-172.5" y="1289.5"/>
      <point x="-98.5" y="1212.5"/>
    </contour>
  </outline>
</glyph>
<glyph name="eth" format="2">
  <advance width="1365.0"/>
  <unicode hex="00F0"/>
  <outline>
    <contour>
      <point x="682.5" y="-23.0" type="curve" smooth="yes"/>
      <point x="1076.5" y="-23.0"/>
      <point x="1307.0" y="184.0"/>
      <point x="1310.0" y="621.5" type="curve" smooth="yes"/>
      <point x="1313.0" y="984.0"/>
      <point x="1072.0" y="1386.5"/>
      <point x="753.5" y="1616.0" type="curve"/>
      <point x="216.5" y="1616.0" type="line"/>
      <point x="496.5" y="1435.0"/>
      <point x="738.5" y="1174.5"/>
      <point x="815.0" y="924.0" type="curve"/>
      <point x="968.0" y="941.5" type="line"/>
      <point x="886.5" y="1059.0"/>
      <point x="768.0" y="1106.0"/>
      <point x="636.0" y="1106.0" type="curve" smooth="yes"/>
      <point x="292.5" y="1106.0"/>
      <point x="59.5" y="914.5"/>
      <point x="59.5" y="548.0" type="curve" smooth="yes"/>
      <point x="59.5" y="188.5"/>
      <point x="297.5" y="-23.0"/>
    </contour>
    <contour>
      <point x="682.5" y="309.0" type="curve" smooth="yes"/>
      <point x="560.5" y="309.0"/>
      <point x="501.5" y="374.5"/>
      <point x="501.5" y="547.5" type="curve" smooth="yes"/>
      <point x="501.5" y="721.0"/>
      <point x="561.5" y="787.5"/>
      <point x="682.5" y="787.5" type="curve" smooth="yes"/>
      <point x="803.5" y="787.5"/>
      <point x="863.5" y="721.0"/>
      <point x="863.5" y="546.5" type="curve" smooth="yes"/>
      <point x="863.5" y="374.5"/>
      <point x="804.5" y="309.0"/>
    </contour>
    <contour>
      <point x="184.5" y="1147.5" type="line"/>
      <point x="1270.5" y="1331.5" type="line"/>
      <point x="1227.0" y="1566.0" type="line"/>
      <point x="141.0" y="1382.0" type="line"/>
    </contour>
  </outline>
</glyph>
<glyph name="ntilde" format="2">
  <advance width="1371.0"/>
  <unicode hex="00F1"/>
  <anchor x="690.0" y="1200.0" name="_top"/>
  <anchor x="11.5" y="1200.0" name="apostrophe"/>
  <anchor x="690.0" y="0.0" name="bottom"/>
  <anchor x="690.0" y="1200.0" name="top"/>
  <outline>
    <contour>
      <point x="106.5" y="0.0" type="line"/>
      <point x="551.0" y="0.0" type="line"/>
      <point x="551.0" y="686.5" type="line"/>
      <point x="586.5" y="721.0"/>
      <point x="645.0" y="744.5"/>
      <point x="707.0" y="744.5" type="curve" smooth="yes"/>
      <point x="784.5" y="744.5"/>
      <point x="827.0" y="712.0"/>
      <point x="827.0" y="606.0" type="curve" smooth="yes"/>
      <point x="827.0" y="0.0" type="line"/>
      <point x="1271.5" y="0.0" type="line"/>
      <point x="1271.5" y="633.0" type="line" smooth="yes"/>
      <point x="1271.5" y="978.0"/>
      <point x="1093.0" y="1118.0"/>
      <point x="847.0" y="1118.0" type="curve" smooth="yes"/>
      <point x="714.0" y="1118.0"/>
      <point x="597.5" y="1075.5"/>
      <point x="517.0" y="1000.0" type="curve"/>
      <point x="498.0" y="1000.0" type="line"/>
      <point x="470.0" y="1100.0" type="line"/>
      <point x="106.5" y="1100.0" type="line"/>
    </contour>
    <contour>
      <point x="863.0" y="1242.5" type="curve" smooth="yes"/>
      <point x="959.0" y="1242.5"/>
      <point x="1028.0" y="1268.0"/>
      <point x="1091.0" y="1327.5" type="curve"/>
      <point x="1091.0" y="1586.5" type="line"/>
      <point x="1018.5" y="1521.5"/>
      <point x="956.5" y="1495.0"/>
      <point x="873.0" y="1495.0" type="curve" smooth="yes"/>
      <point x="754.5" y="1495.0"/>
      <point x="653.5" y="1595.5"/>
      <point x="517.0" y="1595.5" type="curve" smooth="yes"/>
      <point x="421.0" y="1595.5"/>
      <point x="352.0" y="1570.0"/>
      <point x="289.0" y="1510.5" type="curve"/>
      <point x="289.0" y="1251.5" type="line"/>
      <point x="361.5" y="1316.5"/>
      <point x="423.5" y="1343.0"/>
      <point x="507.0" y="1343.0" type="curve" smooth="yes"/>
      <point x="625.5" y="1343.0"/>
      <point x="726.5" y="1242.5"/>
    </contour>
  </outline>
</glyph>
<glyph name="otilde" format="2">
  <advance width="1365.0"/>
  <unicode hex="00F5"/>
  <anchor x="682.5" y="1200.0" name="_top"/>
  <anchor x="682.5" y="0.0" name="bottom"/>
  <anchor x="682.5" y="550.0" name="center"/>
  <anchor x="883.0" y="0.0" name="ogonek"/>
  <anchor x="682.5" y="1200.0" name="top"/>
  <anchor x="684.0" y="1100.0" name="topright"/>
  <outline>
    <contour>
      <point x="682.5" y="-22.0" type="curve" smooth="yes"/>
      <point x="1063.0" y="-22.0"/>
      <point x="1305.5" y="185.0"/>
      <point x="1305.5" y="549.0" type="curve" smooth="yes"/>
      <point x="1305.5" y="911.0"/>
      <point x="1079.5" y="1118.0"/>
      <point x="682.5" y="1118.0" type="curve" smooth="yes"/>
      <point x="285.5" y="1118.0"/>
      <point x="59.5" y="913.5"/>
      <point x="59.5" y="548.0" type="curve" smooth="yes"/>
      <point x="59.5" y="185.0"/>
      <point x="302.0" y="-22.0"/>
    </contour>
    <contour>
      <point x="682.5" y="310.0" type="curve" smooth="yes"/>
      <point x="563.5" y="310.0"/>
      <point x="501.5" y="372.5"/>
      <point x="501.5" y="549.0" type="curve" smooth="yes"/>
      <point x="501.5" y="725.5"/>
      <point x="564.5" y="786.0"/>
      <point x="682.5" y="786.0" type="curve" smooth="yes"/>
      <point x="800.5" y="786.0"/>
      <point x="863.5" y="725.5"/>
      <point x="863.5" y="548.0" type="curve" smooth="yes"/>
      <point x="863.5" y="372.5"/>
      <point x="801.5" y="310.0"/>
    </contour>
    <contour>
      <point x="855.5" y="1242.5" type="curve" smooth="yes"/>
      <point x="951.5" y="1242.5"/>
      <point x="1020.5" y="1268.0"/>
      <point x="1083.5" y="1327.5" type="curve"/>
      <point x="1083.5" y="1586.5" type="line"/>
      <point x="1011.0" y="1521.5"/>
      <point x="949.0" y="1495.0"/>
      <point x="865.5" y="1495.0" type="curve" smooth="yes"/>
      <point x="747.0" y="1495.0"/>
      <point x="646.0" y="1595.5"/>
      <point x="509.5" y="1595.5" type="curve" smooth="yes"/>
      <point x="413.5" y="1595.5"/>
      <point x="344.5" y="1570.0"/>
      <point x="281.5" y="1510.5" type="curve"/>
      <point x="281.5" y="1251.5" type="line"/>
      <point x="354.0" y="1316.5"/>
      <point x="416.0" y="1343.0"/>
      <point x="499.5" y="1343.0" type="curve" smooth="yes"/>
      <point x="618.0" y="1343.0"/>
      <point x="719.0" y="1242.5"/>
    </contour>
  </outline>
</glyph>
<glyph name="divide" format="2">
  <advance width="1156.0"/>
  <unicode hex="00F7"/>
  <outline>
    <contour>
      <point x="105.0" y="595.0" type="line"/>
      <point x="1051.0" y="595.0" type="line"/>
      <point x="1051.0" y="925.0" type="line"/>
      <point x="105.0" y="925.0" type="line"/>
    </contour>
    <contour>
      <point x="578.0" y="77.0" type="curve" smooth="yes"/>
      <point x="735.5" y="77.0"/>
      <point x="833.0" y="168.5"/>
      <point x="833.0" y="307.0" type="curve" smooth="yes"/>
      <point x="833.0" y="445.5"/>
      <point x="739.5" y="537.0"/>
      <point x="578.0" y="537.0" type="curve" smooth="yes"/>
      <point x="416.5" y="537.0"/>
      <point x="323.0" y="449.5"/>
      <point x="323.0" y="307.0" type="curve" smooth="yes"/>
      <point x="323.0" y="164.5"/>
      <point x="420.5" y="77.0"/>
    </contour>
    <contour>
      <point x="578.0" y="983.0" type="curve" smooth="yes"/>
      <point x="735.5" y="983.0"/>
      <point x="833.0" y="1074.5"/>
      <point x="833.0" y="1213.0" type="curve" smooth="yes"/>
      <point x="833.0" y="1351.5"/>
      <point x="739.5" y="1443.0"/>
      <point x="578.0" y="1443.0" type="curve" smooth="yes"/>
      <point x="416.5" y="1443.0"/>
      <point x="323.0" y="1355.5"/>
      <point x="323.0" y="1213.0" type="curve" smooth="yes"/>
      <point x="323.0" y="1070.5"/>
      <point x="420.5" y="983.0"/>
    </contour>
  </outline>
</glyph>
<glyph name="oslash" format="2">
  <advance width="1365.0"/>
  <unicode hex="00F8"/>
  <anchor x="682.5" y="550.0" name="_center"/>
  <anchor x="682.5" y="-165.0" name="bottom"/>
  <anchor x="682.5" y="550.0" name="center"/>
  <anchor x="743.5" y="81.0" name="ogonek"/>
  <anchor x="679.5" y="1200.0" name="top"/>
  <anchor x="1298.0" y="1100.0" name="topright"/>
  <outline>
    <contour>
      <point x="682.5" y="-22.0" type="curve" smooth="yes"/>
      <point x="1063.0" y="-22.0"/>
      <point x="1305.5" y="185.0"/>
      <point x="1305.5" y="549.0" type="curve" smooth="yes"/>
      <point x="1305.5" y="911.0"/>
      <point x="1079.5" y="1118.0"/>
      <point x="682.5" y="1118.0" type="curve" smooth="yes"/>
      <point x="285.5" y="1118.0"/>
      <point x="59.5" y="913.5"/>
      <point x="59.5" y="548.0" type="curve" smooth="yes"/>
      <point x="59.5" y="185.0"/>
      <point x="302.0" y="-22.0"/>
    </contour>
    <contour>
      <point x="682.5" y="305.0" type="curve" smooth="yes"/>
      <point x="557.5" y="305.0"/>
      <point x="493.0" y="368.5"/>
      <point x="493.0" y="549.0" type="curve" smooth="yes"/>
      <point x="493.0" y="729.5"/>
      <point x="558.5" y="791.0"/>
      <point x="682.5" y="791.0" type="curve" smooth="yes"/>
      <point x="806.5" y="791.0"/>
      <point x="872.0" y="729.5"/>
      <point x="872.0" y="548.0" type="curve" smooth="yes"/>
      <point x="872.0" y="368.5"/>
      <point x="807.5" y="305.0"/>
    </contour>
    <contour>
      <point x="328.5" y="-83.0" type="line"/>
      <point x="459.0" y="86.0" type="line"/>
      <point x="538.5" y="219.0" type="line"/>
      <point x="963.0" y="779.0" type="line"/>
      <point x="1066.5" y="888.0" type="line"/>
      <point x="1197.0" y="1057.0" type="line"/>
      <point x="1036.5" y="1183.0" type="line"/>
      <point x="906.0" y="1014.0" type="line"/>
      <point x="826.5" y="881.0" type="line"/>
      <point x="402.0" y="321.0" type="line"/>
      <point x="298.5" y="212.0" type="line"/>
      <point x="168.0" y="43.0" type="line"/>
    </contour>
  </outline>
</glyph>
<glyph name="udieresis" format="2">
  <advance width="1361.5"/>
  <unicode hex="00FC"/>
  <anchor x="677.5" y="1200.0" name="_top"/>
  <anchor x="677.5" y="0.0" name="bottom"/>
  <anchor x="1255.0" y="0.0" name="ogonek"/>
  <anchor x="677.5" y="1200.0" name="top"/>
  <anchor x="844.0" y="1100.0" name="topright"/>
  <outline>
    <contour>
      <point x="536.5" y="-18.5" type="curve" smooth="yes"/>
      <point x="655.0" y="-18.5"/>
      <point x="763.0" y="24.0"/>
      <point x="847.5" y="100.0" type="curve"/>
      <point x="863.5" y="100.0" type="line"/>
      <point x="891.5" y="0.0" type="line"/>
      <point x="1255.0" y="0.0" type="line"/>
      <point x="1255.0" y="1100.0" type="line"/>
      <point x="810.5" y="1100.0" type="line"/>
      <point x="810.5" y="413.0" type="line"/>
      <point x="775.0" y="378.5"/>
      <point x="715.5" y="355.0"/>
      <point x="658.5" y="355.0" type="curve" smooth="yes"/>
      <point x="586.5" y="355.0"/>
      <point x="544.0" y="388.0"/>
      <point x="544.0" y="494.0" type="curve" smooth="yes"/>
      <point x="544.0" y="1100.0" type="line"/>
      <point x="99.5" y="1100.0" type="line"/>
      <point x="99.5" y="465.5" type="line" smooth="yes"/>
      <point x="99.5" y="121.0"/>
      <point x="281.0" y="-18.5"/>
    </contour>
    <contour>
      <point x="952.5" y="1212.5" type="curve" smooth="yes"/>
      <point x="1105.0" y="1212.5"/>
      <point x="1179.0" y="1289.5"/>
      <point x="1179.0" y="1418.0" type="curve" smooth="yes"/>
      <point x="1179.0" y="1546.5"/>
      <point x="1105.0" y="1623.5"/>
      <point x="952.5" y="1623.5" type="curve" smooth="yes"/>
      <point x="800.0" y="1623.5"/>
      <point x="726.0" y="1546.5"/>
      <point x="726.0" y="1418.0" type="curve" smooth="yes"/>
      <point x="726.0" y="1289.5"/>
      <point x="800.0" y="1212.5"/>
    </contour>
    <contour>
      <point x="402.5" y="1212.5" type="curve" smooth="yes"/>
      <point x="555.0" y="1212.5"/>
      <point x="629.0" y="1289.5"/>
      <point x="629.0" y="1418.0" type="curve" smooth="yes"/>
      <point x="629.0" y="1546.5"/>
      <point x="555.0" y="1623.5"/>
      <point x="402.5" y="1623.5" type="curve" smooth="yes"/>
      <point x="250.0" y="1623.5"/>
      <point x="176.0" y="1546.5"/>
      <point x="176.0" y="1418.0" type="curve" smooth="yes"/>
      <point x="176.0" y="1289.5"/>
      <point x="250.0" y="1212.5"/>
    </contour>
  </outline>
</glyph>
<glyph name="yacute" format="2">
  <advance width="1331.0"/>
  <unicode hex="00FD"/>
  <anchor x="665.5" y="1200.0" name="_top"/>
  <anchor x="1143.0" y="0.0" name="bottom"/>
  <anchor x="665.5" y="1200.0" name="top"/>
  <outline>
    <contour>
      <point x="339.5" y="-440.0" type="line"/>
      <point x="772.5" y="-440.0" type="line"/>
      <point x="1344.0" y="1100.0" type="line"/>
      <point x="910.0" y="1100.0" type="line"/>
      <point x="668.5" y="357.0" type="line"/>
      <point x="505.0" y="0.0" type="line"/>
    </contour>
    <contour>
      <point x="393.0" y="0.0" type="line"/>
      <point x="812.0" y="0.0" type="line"/>
      <point x="452.0" y="1100.0" type="line"/>
      <point x="-13.0" y="1100.0" type="line"/>
    </contour>
    <contour>
      <point x="458.5" y="1220.0" type="line"/>
      <point x="872.5" y="1220.0" type="line"/>
      <point x="1182.0" y="1616.0" type="line"/>
      <point x="704.0" y="1616.0" type="line"/>
    </contour>
  </outline>
</glyph>
<glyph name="thorn" format="2">
  <advance width="1393.5"/>
  <unicode hex="00FE"/>
  <outline>
    <contour>
      <point x="106.5" y="-440.0" type="line"/>
      <point x="551.0" y="-440.0" type="line"/>
      <point x="551.0" y="-15.5" type="line"/>
      <point x="590.0" y="-18.5"/>
      <point x="636.0" y="-21.5"/>
      <point x="682.5" y="-21.5" type="curve" smooth="yes"/>
      <point x="1096.0" y="-21.5"/>
      <point x="1334.0" y="198.0"/>
      <point x="1334.0" y="572.5" type="curve" smooth="yes"/>
      <point x="1334.0" y="942.0"/>
      <point x="1119.0" y="1118.0"/>
      <point x="869.5" y="1118.0" type="curve" smooth="yes"/>
      <point x="742.5" y="1118.0"/>
      <point x="642.5" y="1078.0"/>
      <point x="570.5" y="1001.5" type="curve"/>
      <point x="551.0" y="1001.5" type="line"/>
      <point x="551.0" y="1616.0" type="line"/>
      <point x="106.5" y="1616.0" type="line"/>
    </contour>
    <contour>
      <point x="665.0" y="308.0" type="curve" smooth="yes"/>
      <point x="623.5" y="308.0"/>
      <point x="582.0" y="313.0"/>
      <point x="551.0" y="318.0" type="curve"/>
      <point x="551.0" y="725.0" type="line"/>
      <point x="591.5" y="752.5"/>
      <point x="648.5" y="764.0"/>
      <point x="700.5" y="764.0" type="curve" smooth="yes"/>
      <point x="818.0" y="764.0"/>
      <point x="892.0" y="709.0"/>
      <point x="892.0" y="541.5" type="curve" smooth="yes"/>
      <point x="892.0" y="378.5"/>
      <point x="818.5" y="308.0"/>
    </contour>
  </outline>
</glyph>
<glyph name="ydieresis" format="2">
  <advance width="1331.0"/>
  <unicode hex="00FF"/>
  <anchor x="665.5" y="1200.0" name="_top"/>
  <anchor x="1143.0" y="0.0" name="bottom"/>
  <anchor x="665.5" y="1200.0" name="top"/>
  <outline>
    <contour>
      <point x="339.5" y="-440.0" type="line"/>
      <point x="772.5" y="-440.0" type="line"/>
      <point x="1344.0" y="1100.0" type="line"/>
      <point x="910.0" y="1100.0" type="line"/>
      <point x="668.5" y="357.0" type="line"/>
      <point x="505.0" y="0.0" type="line"/>
    </contour>
    <contour>
      <point x="393.0" y="0.0" type="line"/>
      <point x="812.0" y="0.0" type="line"/>
      <point x="452.0" y="1100.0" type="line"/>
      <point x="-13.0" y="1100.0" type="line"/>
    </contour>
    <contour>
      <point x="940.5" y="1212.5" type="curve" smooth="yes"/>
      <point x="1093.0" y="1212.5"/>
      <point x="1167.0" y="1289.5"/>
      <point x="1167.0" y="1418.0" type="curve" smooth="yes"/>
      <point x="1167.0" y="1546.5"/>
      <point x="1093.0" y="1623.5"/>
      <point x="940.5" y="1623.5" type="curve" smooth="yes"/>
      <point x="788.0" y="1623.5"/>
      <point x="714.0" y="1546.5"/>
      <point x="714.0" y="1418.0" type="curve" smooth="yes"/>
      <point x="714.0" y="1289.5"/>
      <point x="788.0" y="1212.5"/>
    </contour>
    <contour>
      <point x="390.5" y="1212.5" type="curve" smooth="yes"/>
      <point x="543.0" y="1212.5"/>
      <point x="617.0" y="1289.5"/>
      <point x="617.0" y="1418.0" type="curve" smooth="yes"/>
      <point x="617.0" y="1546.5"/>
      <point x="543.0" y="1623.5"/>
      <point x="390.5" y="1623.5" type="curve" smooth="yes"/>
      <point x="238.0" y="1623.5"/>
      <point x="164.0" y="1546.5"/>
      <point x="164.0" y="1418.0" type="curve" smooth="yes"/>
      <point x="164.0" y="1289.5"/>
      <point x="238.0" y="1212.5"/>
    </contour>
  </outline>
</glyph>
<glyph name="Amacron" format="2">
  <advance width="1645.0"/>
  <unicode hex="0100"/>
  <anchor x="821.0" y="1520.0" name="_top"/>
  <anchor x="822.5" y="0.0" name="bottom"/>
  <anchor x="1635.0" y="0.0" name="ogonek"/>
  <anchor x="821.0" y="1520.0" name="top"/>
  <outline>
    <contour>
      <point x="10.0" y="0.0" type="line"/>
      <point x="450.0" y="0.0" type="line"/>
      <point x="839.5" y="1289.5" type="line"/>
      <point x="800.5" y="1289.5" type="line"/>
      <point x="1191.0" y="0.0" type="line"/>
      <point x="1635.0" y="0.0" type="line"/>
      <point x="1154.0" y="1480.0" type="line"/>
      <point x="491.0" y="1480.0" type="line"/>
    </contour>
    <contour>
      <point x="436.5" y="336.5" type="line"/>
      <point x="1205.0" y="336.5" type="line"/>
      <point x="1106.0" y="681.5" type="line"/>
      <point x="537.0" y="681.5" type="line"/>
    </contour>
    <contour>
      <point x="394.0" y="1620.5" type="line"/>
      <point x="1248.0" y="1620.5" type="line"/>
      <point x="1248.0" y="1869.5" type="line"/>
      <point x="394.0" y="1869.5" type="line"/>
    </contour>
  </outline>
</glyph>
<glyph name="Aogonek" format="2">
  <advance width="1645.0"/>
  <unicode hex="0104"/>
  <anchor x="1635.0" y="0.0" name="_ogonek"/>
  <anchor x="822.5" y="0.0" name="bottom"/>
  <anchor x="1635.0" y="0.0" name="ogonek"/>
  <anchor x="821.0" y="1520.0" name="top"/>
  <outline>
    <contour>
      <point x="10.0" y="0.0" type="line"/>
      <point x="450.0" y="0.0" type="line"/>
      <point x="839.5" y="1289.5" type="line"/>
      <point x="800.5" y="1289.5" type="line"/>
      <point x="1191.0" y="0.0" type="line"/>
      <point x="1635.0" y="0.0" type="line"/>
      <point x="1154.0" y="1480.0" type="line"/>
      <point x="491.0" y="1480.0" type="line"/>
    </contour>
    <contour>
      <point x="436.5" y="336.5" type="line"/>
      <point x="1205.0" y="336.5" type="line"/>
      <point x="1106.0" y="681.5" type="line"/>
      <point x="537.0" y="681.5" type="line"/>
    </contour>
    <contour>
      <point x="1465.0" y="-460.0" type="curve" smooth="yes"/>
      <point x="1546.5" y="-460.0"/>
      <point x="1607.0" y="-448.0"/>
      <point x="1663.5" y="-430.0" type="curve"/>
      <point x="1663.5" y="-272.5" type="line"/>
      <point x="1609.5" y="-290.5"/>
      <point x="1565.5" y="-297.0"/>
      <point x="1532.0" y="-297.0" type="curve" smooth="yes"/>
      <point x="1431.0" y="-297.0"/>
      <point x="1389.0" y="-260.0"/>
      <point x="1389.0" y="-201.0" type="curve" smooth="yes"/>
      <point x="1389.0" y="-127.5"/>
      <point x="1445.0" y="-63.0"/>
      <point x="1635.0" y="0.0" type="curve"/>
      <point x="1523.0" y="80.0" type="line"/>
      <point x="1235.0" y="8.5"/>
      <point x="1143.0" y="-104.0"/>
      <point x="1143.0" y="-235.0" type="curve" smooth="yes"/>
      <point x="1143.0" y="-371.0"/>
      <point x="1245.5" y="-460.0"/>
    </contour>
  </outline>
</glyph>
<glyph name="aogonek" format="2">
  <advance width="1260.0"/>
  <unicode hex="0105"/>
  <anchor x="1160.5" y="0.0" name="_ogonek"/>
  <anchor x="626.5" y="0.0" name="bottom"/>
  <anchor x="1160.5" y="0.0" name="ogonek"/>
  <anchor x="626.5" y="1200.0" name="top"/>
  <outline>
    <contour>
      <point x="452.0" y="-22.0" type="curve" smooth="yes"/>
      <point x="570.5" y="-22.0"/>
      <point x="676.0" y="11.0"/>
      <point x="746.0" y="95.5" type="curve"/>
      <point x="765.0" y="95.5" type="line"/>
      <point x="794.5" y="0.0" type="line"/>
      <point x="1160.5" y="0.0" type="line"/>
      <point x="1160.5" y="592.0" type="line" smooth="yes"/>
      <point x="1160.5" y="987.0"/>
      <point x="986.5" y="1118.0"/>
      <point x="560.0" y="1118.0" type="curve" smooth="yes"/>
      <point x="440.0" y="1118.0"/>
      <point x="285.0" y="1102.5"/>
      <point x="158.0" y="1069.5" type="curve"/>
      <point x="158.0" y="752.0" type="line"/>
      <point x="260.0" y="780.5"/>
      <point x="387.5" y="795.5"/>
      <point x="477.5" y="795.5" type="curve" smooth="yes"/>
      <point x="670.0" y="795.5"/>
      <point x="726.5" y="749.5"/>
      <point x="726.5" y="626.5" type="curve" smooth="yes"/>
      <point x="726.5" y="296.0" type="line"/>
      <point x="687.5" y="275.0"/>
      <point x="640.5" y="269.0"/>
      <point x="601.5" y="269.0" type="curve" smooth="yes"/>
      <point x="526.5" y="269.0"/>
      <point x="488.0" y="300.5"/>
      <point x="488.0" y="350.0" type="curve" smooth="yes"/>
      <point x="488.0" y="403.5"/>
      <point x="524.5" y="437.0"/>
      <point x="622.0" y="442.5" type="curve" smooth="yes"/>
      <point x="839.0" y="453.5" type="line"/>
      <point x="793.0" y="681.0" type="line"/>
      <point x="575.5" y="670.0" type="line" smooth="yes"/>
      <point x="207.5" y="651.5"/>
      <point x="51.0" y="525.5"/>
      <point x="51.0" y="310.5" type="curve" smooth="yes"/>
      <point x="51.0" y="120.0"/>
      <point x="189.5" y="-22.0"/>
    </contour>
    <contour>
      <point x="990.5" y="-460.0" type="curve" smooth="yes"/>
      <point x="1072.0" y="-460.0"/>
      <point x="1123.5" y="-447.5"/>
      <point x="1175.5" y="-430.0" type="curve"/>
      <point x="1175.5" y="-272.5" type="line"/>
      <point x="1130.5" y="-290.5"/>
      <point x="1089.5" y="-297.0"/>
      <point x="1057.5" y="-297.0" type="curve" smooth="yes"/>
      <point x="975.0" y="-297.0"/>
      <point x="934.5" y="-260.0"/>
      <point x="934.5" y="-204.0" type="curve" smooth="yes"/>
      <point x="934.5" y="-127.5"/>
      <point x="983.0" y="-63.0"/>
      <point x="1160.5" y="0.0" type="curve"/>
      <point x="1048.5" y="80.0" type="line"/>
      <point x="770.5" y="8.5"/>
      <point x="688.5" y="-104.0"/>
      <point x="688.5" y="-235.0" type="curve" smooth="yes"/>
      <point x="688.5" y="-371.0"/>
      <point x="788.0" y="-460.0"/>
    </contour>
  </outline>
</glyph>
<glyph name="Ccircumflex" format="2">
  <advance width="1391.5"/>
  <unicode hex="0108"/>
  <anchor x="832.0" y="1520.0" name="_top"/>
  <anchor x="832.0" y="0.0" name="bottom"/>
  <anchor x="832.0" y="1520.0" name="top"/>
  <outline>
    <contour>
      <point x="978.5" y="-20.0" type="curve" smooth="yes"/>
      <point x="1100.5" y="-20.0"/>
      <point x="1229.0" y="-3.5"/>
      <point x="1329.0" y="22.0" type="curve"/>
      <point x="1329.0" y="386.0" type="line"/>
      <point x="1233.0" y="364.0"/>
      <point x="1125.0" y="347.5"/>
      <point x="1015.5" y="347.5" type="curve" smooth="yes"/>
      <point x="690.5" y="347.5"/>
      <point x="552.5" y="474.5"/>
      <point x="552.5" y="740.0" type="curve" smooth="yes"/>
      <point x="552.5" y="1003.0"/>
      <point x="692.5" y="1132.5"/>
      <point x="1030.5" y="1132.5" type="curve" smooth="yes"/>
      <point x="1138.5" y="1132.5"/>
      <point x="1236.5" y="1122.0"/>
      <point x="1329.0" y="1104.5" type="curve"/>
      <point x="1329.0" y="1468.5" type="line"/>
      <point x="1222.5" y="1490.0"/>
      <point x="1110.0" y="1500.0"/>
      <point x="991.5" y="1500.0" type="curve" smooth="yes"/>
      <point x="393.0" y="1500.0"/>
      <point x="76.5" y="1215.0"/>
      <point x="76.5" y="736.0" type="curve" smooth="yes"/>
      <point x="76.5" y="231.0"/>
      <point x="385.5" y="-20.0"/>
    </contour>
    <contour>
      <point x="350.5" y="1586.0" type="line"/>
      <point x="687.5" y="1586.0" type="line"/>
      <point x="866.0" y="1784.5" type="line"/>
      <point x="798.0" y="1784.5" type="line"/>
      <point x="976.5" y="1586.0" type="line"/>
      <point x="1313.5" y="1586.0" type="line"/>
      <point x="1016.5" y="1902.0" type="line"/>
      <point x="647.5" y="1902.0" type="line"/>
    </contour>
  </outline>
</glyph>
<glyph name="Dcaron" format="2">
  <advance width="1683.0"/>
  <unicode hex="010E"/>
  <anchor x="735.0" y="1520.0" name="_top"/>
  <anchor x="755.0" y="0.0" name="bottom"/>
  <anchor x="827.5" y="740.0" name="center"/>
  <anchor x="119.5" y="762.0" name="stroke"/>
  <anchor x="735.0" y="1520.0" name="top"/>
  <outline>
    <contour>
      <point x="592.0" y="-15.5" type="curve" smooth="yes"/>
      <point x="1275.0" y="-15.5"/>
      <point x="1606.5" y="201.5"/>
      <point x="1606.5" y="740.0" type="curve" smooth="yes"/>
      <point x="1606.5" y="1259.5"/>
      <point x="1292.0" y="1495.5"/>
      <point x="686.5" y="1495.5" type="curve" smooth="yes"/>
      <point x="497.5" y="1495.5"/>
      <point x="275.0" y="1472.5"/>
      <point x="119.5" y="1436.5" type="curve"/>
      <point x="119.5" y="11.0" type="line"/>
      <point x="269.5" y="-7.5"/>
      <point x="457.5" y="-15.5"/>
    </contour>
    <contour>
      <point x="716.5" y="343.5" type="curve" smooth="yes"/>
      <point x="667.5" y="343.5"/>
      <point x="621.5" y="343.5"/>
      <point x="574.5" y="347.0" type="curve"/>
      <point x="574.5" y="1125.5" type="line"/>
      <point x="613.5" y="1133.0"/>
      <point x="673.5" y="1138.5"/>
      <point x="715.0" y="1138.5" type="curve" smooth="yes"/>
      <point x="1000.5" y="1138.5"/>
      <point x="1142.5" y="1027.0"/>
      <point x="1142.5" y="743.0" type="curve" smooth="yes"/>
      <point x="1142.5" y="453.5"/>
      <point x="1010.0" y="343.5"/>
    </contour>
    <contour>
      <point x="550.5" y="1586.0" type="line"/>
      <point x="919.5" y="1586.0" type="line"/>
      <point x="1216.5" y="1902.0" type="line"/>
      <point x="879.5" y="1902.0" type="line"/>
      <point x="701.0" y="1703.5" type="line"/>
      <point x="769.0" y="1703.5" type="line"/>
      <point x="590.5" y="1902.0" type="line"/>
      <point x="253.5" y="1902.0" type="line"/>
    </contour>
  </outline>
</glyph>
<glyph name="emacron" format="2">
  <advance width="1244.0"/>
  <unicode hex="0113"/>
  <anchor x="640.0" y="1200.0" name="_top"/>
  <anchor x="640.0" y="0.0" name="bottom"/>
  <anchor x="1114.5" y="0.0" name="ogonek"/>
  <anchor x="640.0" y="1200.0" name="top"/>
  <outline>
    <contour>
      <point x="761.0" y="-22.0" type="curve" smooth="yes"/>
      <point x="872.5" y="-22.0"/>
      <point x="990.5" y="-14.5"/>
      <point x="1124.0" y="9.5" type="curve"/>
      <point x="1124.0" y="324.0" type="line"/>
      <point x="1028.0" y="308.5"/>
      <point x="918.5" y="297.5"/>
      <point x="829.0" y="297.5" type="curve" smooth="yes"/>
      <point x="546.5" y="297.5"/>
      <point x="497.5" y="343.0"/>
      <point x="497.5" y="475.0" type="curve" smooth="yes"/>
      <point x="497.5" y="650.5" type="line" smooth="yes"/>
      <point x="497.5" y="797.0"/>
      <point x="541.5" y="852.0"/>
      <point x="642.0" y="852.0" type="curve" smooth="yes"/>
      <point x="742.0" y="852.0"/>
      <point x="785.5" y="795.5"/>
      <point x="785.5" y="649.0" type="curve"/>
      <point x="850.0" y="666.5" type="line"/>
      <point x="283.5" y="666.5" type="line"/>
      <point x="283.5" y="429.5" type="line"/>
      <point x="1194.5" y="429.5" type="line"/>
      <point x="1194.5" y="533.5" type="line" smooth="yes"/>
      <point x="1194.5" y="896.5"/>
      <point x="1010.5" y="1118.0"/>
      <point x="648.5" y="1118.0" type="curve" smooth="yes"/>
      <point x="265.0" y="1118.0"/>
      <point x="59.5" y="896.5"/>
      <point x="59.5" y="548.5" type="curve" smooth="yes"/>
      <point x="59.5" y="154.5"/>
      <point x="270.5" y="-22.0"/>
    </contour>
    <contour>
      <point x="239.0" y="1294.5" type="line"/>
      <point x="1041.0" y="1294.5" type="line"/>
      <point x="1041.0" y="1543.5" type="line"/>
      <point x="239.0" y="1543.5" type="line"/>
    </contour>
  </outline>
</glyph>
<glyph name="Eogonek" format="2">
  <advance width="1405.5"/>
  <unicode hex="0118"/>
  <anchor x="1231.5" y="0.0" name="_ogonek"/>
  <anchor x="740.0" y="0.0" name="bottom"/>
  <anchor x="1231.5" y="0.0" name="ogonek"/>
  <anchor x="740.0" y="1520.0" name="top"/>
  <anchor x="39.0" y="1480.0" name="topleft"/>
  <outline>
    <contour>
      <point x="119.5" y="0.0" type="line"/>
      <point x="1326.5" y="0.0" type="line"/>
      <point x="1326.5" y="346.0" type="line"/>
      <point x="568.5" y="346.0" type="line"/>
      <point x="568.5" y="1134.0" type="line"/>
      <point x="1316.5" y="1134.0" type="line"/>
      <point x="1316.5" y="1480.0" type="line"/>
      <point x="119.5" y="1480.0" type="line"/>
    </contour>
    <contour>
      <point x="360.0" y="582.0" type="line"/>
      <point x="1211.0" y="582.0" type="line"/>
      <point x="1211.0" y="928.0" type="line"/>
      <point x="360.0" y="928.0" type="line"/>
    </contour>
    <contour>
      <point x="1061.5" y="-460.0" type="curve" smooth="yes"/>
      <point x="1143.0" y="-460.0"/>
      <point x="1203.5" y="-448.0"/>
      <point x="1260.0" y="-430.0" type="curve"/>
      <point x="1260.0" y="-272.5" type="line"/>
      <point x="1206.0" y="-290.5"/>
      <point x="1162.0" y="-297.0"/>
      <point x="1128.5" y="-297.0" type="curve" smooth="yes"/>
      <point x="1027.5" y="-297.0"/>
      <point x="985.5" y="-260.0"/>
      <point x="985.5" y="-201.0" type="curve" smooth="yes"/>
      <point x="985.5" y="-127.5"/>
      <point x="1041.5" y="-63.0"/>
      <point x="1231.5" y="0.0" type="curve"/>
      <point x="1119.5" y="80.0" type="line"/>
      <point x="831.5" y="8.5"/>
      <point x="739.5" y="-104.0"/>
      <point x="739.5" y="-235.0" type="curve" smooth="yes"/>
      <point x="739.5" y="-371.0"/>
      <point x="842.0" y="-460.0"/>
    </contour>
  </outline>
</glyph>
<glyph name="eogonek" format="2">
  <advance width="1244.0"/>
  <unicode hex="0119"/>
  <outline>
    <contour>
      <point x="939.0" y="-460.0" type="curve" smooth="yes"/>
      <point x="1020.5" y="-460.0"/>
      <point x="1072.0" y="-447.5"/>
      <point x="1124.0" y="-430.0" type="curve"/>
      <point x="1124.0" y="-272.5" type="line"/>
      <point x="1079.0" y="-290.5"/>
      <point x="1038.0" y="-297.0"/>
      <point x="1006.0" y="-297.0" type="curve" smooth="yes"/>
      <point x="923.5" y="-297.0"/>
      <point x="883.0" y="-260.0"/>
      <point x="883.0" y="-204.0" type="curve" smooth="yes"/>
      <point x="883.0" y="-127.5"/>
      <point x="934.5" y="-54.0"/>
      <point x="1124.0" y="9.5" type="curve"/>
      <point x="1124.0" y="324.0" type="line"/>
      <point x="1028.0" y="308.5"/>
      <point x="918.5" y="297.5"/>
      <point x="829.0" y="297.5" type="curve" smooth="yes"/>
      <point x="546.5" y="297.5"/>
      <point x="497.5" y="343.0"/>
      <point x="497.5" y="475.0" type="curve" smooth="yes"/>
      <point x="497.5" y="640.5" type="line" smooth="yes"/>
      <point x="497.5" y="787.0"/>
      <point x="541.5" y="842.0"/>
      <point x="642.0" y="842.0" type="curve" smooth="yes"/>
      <point x="742.0" y="842.0"/>
      <point x="785.5" y="785.5"/>
      <point x="785.5" y="639.0" type="curve"/>
      <point x="850.0" y="656.5" type="line"/>
      <point x="283.5" y="656.5" type="line"/>
      <point x="283.5" y="429.5" type="line"/>
      <point x="1194.5" y="429.5" type="line"/>
      <point x="1194.5" y="533.5" type="line" smooth="yes"/>
      <point x="1194.5" y="896.5"/>
      <point x="1010.5" y="1118.0"/>
      <point x="648.5" y="1118.0" type="curve" smooth="yes"/>
      <point x="265.0" y="1118.0"/>
      <point x="59.5" y="896.5"/>
      <point x="59.5" y="548.5" type="curve" smooth="yes"/>
      <point x="59.5" y="154.5"/>
      <point x="270.5" y="-22.0"/>
      <point x="761.0" y="-22.0" type="curve" smooth="yes"/>
      <point x="819.0" y="-22.0"/>
      <point x="885.5" y="-20.0"/>
      <point x="952.0" y="-14.5" type="curve"/>
      <point x="936.5" y="61.0" type="line"/>
      <point x="706.5" y="-7.5"/>
      <point x="637.0" y="-114.5"/>
      <point x="637.0" y="-235.0" type="curve" smooth="yes"/>
      <point x="637.0" y="-371.0"/>
      <point x="736.5" y="-460.0"/>
    </contour>
  </outline>
</glyph>
<glyph name="Gbreve" format="2">
  <advance width="1578.5"/>
  <unicode hex="011E"/>
  <anchor x="892.5" y="1520.0" name="_top"/>
  <anchor x="892.5" y="0.0" name="bottom"/>
  <anchor x="892.5" y="1520.0" name="top"/>
  <outline>
    <contour>
      <point x="1034.5" y="-20.0" type="curve" smooth="yes"/>
      <point x="1175.0" y="-20.0"/>
      <point x="1316.0" y="-5.0"/>
      <point x="1454.0" y="17.5" type="curve"/>
      <point x="1454.0" y="720.0" type="line"/>
      <point x="1032.0" y="720.0" type="line"/>
      <point x="1032.0" y="171.5" type="line"/>
      <point x="1255.0" y="361.5" type="line"/>
      <point x="1180.5" y="351.0"/>
      <point x="1084.0" y="344.0"/>
      <point x="1002.5" y="344.0" type="curve" smooth="yes"/>
      <point x="690.0" y="344.0"/>
      <point x="549.5" y="477.0"/>
      <point x="549.5" y="726.5" type="curve" smooth="yes"/>
      <point x="549.5" y="1001.5"/>
      <point x="695.0" y="1131.0"/>
      <point x="1091.0" y="1132.5" type="curve" smooth="yes"/>
      <point x="1199.5" y="1132.5"/>
      <point x="1305.0" y="1121.5"/>
      <point x="1401.0" y="1103.0" type="curve"/>
      <point x="1401.0" y="1467.0" type="line"/>
      <point x="1290.5" y="1489.5"/>
      <point x="1166.0" y="1500.0"/>
      <point x="1052.5" y="1500.0" type="curve" smooth="yes"/>
      <point x="397.5" y="1500.0"/>
      <point x="76.5" y="1215.0"/>
      <point x="76.5" y="734.0" type="curve" smooth="yes"/>
      <point x="76.5" y="236.0"/>
      <point x="387.0" y="-20.0"/>
    </contour>
    <contour>
      <point x="892.5" y="1586.0" type="curve" smooth="yes"/>
      <point x="1180.0" y="1586.0"/>
      <point x="1319.5" y="1719.0"/>
      <point x="1347.0" y="1902.0" type="curve"/>
      <point x="1083.5" y="1902.0" type="line"/>
      <point x="1065.5" y="1832.0"/>
      <point x="1008.0" y="1788.5"/>
      <point x="892.5" y="1788.5" type="curve" smooth="yes"/>
      <point x="777.0" y="1788.5"/>
      <point x="719.5" y="1832.0"/>
      <point x="701.5" y="1902.0" type="curve"/>
      <point x="438.0" y="1902.0" type="line"/>
      <point x="465.5" y="1719.0"/>
      <point x="605.0" y="1586.0"/>
    </contour>
  </outline>
</glyph>
<glyph name="gbreve" format="2">
  <advance width="1393.5"/>
  <unicode hex="011F"/>
  <anchor x="728.0" y="1200.0" name="_top"/>
  <anchor x="696.0" y="-440.0" name="bottom"/>
  <anchor x="728.0" y="1200.0" name="top"/>
  <outline>
    <contour>
      <point x="577.5" y="-460.0" type="curve" smooth="yes"/>
      <point x="1063.5" y="-460.0"/>
      <point x="1287.0" y="-271.0"/>
      <point x="1287.0" y="157.0" type="curve" smooth="yes"/>
      <point x="1287.0" y="1047.5" type="line"/>
      <point x="1143.5" y="1093.0"/>
      <point x="939.5" y="1118.0"/>
      <point x="768.5" y="1118.0" type="curve" smooth="yes"/>
      <point x="293.0" y="1117.5"/>
      <point x="59.5" y="893.5"/>
      <point x="59.5" y="527.0" type="curve" smooth="yes"/>
      <point x="59.5" y="183.5"/>
      <point x="278.0" y="2.0"/>
      <point x="524.0" y="2.0" type="curve" smooth="yes"/>
      <point x="651.0" y="2.0"/>
      <point x="751.0" y="42.0"/>
      <point x="823.0" y="118.5" type="curve"/>
      <point x="842.5" y="118.5" type="line"/>
      <point x="842.5" y="70.5" type="line" smooth="yes"/>
      <point x="842.5" y="-64.0"/>
      <point x="762.5" y="-129.5"/>
      <point x="541.5" y="-129.5" type="curve" smooth="yes"/>
      <point x="432.5" y="-129.5"/>
      <point x="287.5" y="-113.0"/>
      <point x="141.0" y="-77.0" type="curve"/>
      <point x="141.0" y="-414.0" type="line"/>
      <point x="289.5" y="-448.5"/>
      <point x="434.0" y="-460.0"/>
    </contour>
    <contour>
      <point x="694.5" y="354.5" type="curve" smooth="yes"/>
      <point x="574.0" y="354.5"/>
      <point x="501.5" y="407.0"/>
      <point x="501.5" y="562.5" type="curve" smooth="yes"/>
      <point x="501.5" y="719.5"/>
      <point x="582.0" y="790.0"/>
      <point x="729.5" y="790.0" type="curve" smooth="yes"/>
      <point x="772.5" y="790.0"/>
      <point x="811.5" y="785.0"/>
      <point x="842.5" y="778.5" type="curve"/>
      <point x="842.5" y="386.0" type="line"/>
      <point x="799.0" y="364.5"/>
      <point x="745.0" y="354.5"/>
    </contour>
    <contour>
      <point x="728.0" y="1226.0" type="curve" smooth="yes"/>
      <point x="995.5" y="1226.0"/>
      <point x="1147.5" y="1359.0"/>
      <point x="1161.5" y="1596.0" type="curve"/>
      <point x="901.0" y="1596.0" type="line"/>
      <point x="890.5" y="1492.0"/>
      <point x="837.0" y="1438.5"/>
      <point x="728.0" y="1438.5" type="curve" smooth="yes"/>
      <point x="619.0" y="1438.5"/>
      <point x="565.5" y="1492.0"/>
      <point x="555.0" y="1596.0" type="curve"/>
      <point x="294.5" y="1596.0" type="line"/>
      <point x="308.5" y="1359.0"/>
      <point x="460.5" y="1226.0"/>
    </contour>
  </outline>
</glyph>
<glyph name="Hcircumflex" format="2">
  <advance width="1687.0"/>
  <unicode hex="0124"/>
  <anchor x="844.5" y="1520.0" name="_top"/>
  <anchor x="844.5" y="0.0" name="bottom"/>
  <anchor x="844.5" y="1216.5" name="center"/>
  <anchor x="844.5" y="1520.0" name="top"/>
  <anchor x="40.0" y="1480.0" name="topleft"/>
  <outline>
    <contour>
      <point x="119.5" y="0.0" type="line"/>
      <point x="574.5" y="0.0" type="line"/>
      <point x="574.5" y="559.5" type="line"/>
      <point x="1112.5" y="559.5" type="line"/>
      <point x="1112.5" y="0.0" type="line"/>
      <point x="1567.5" y="0.0" type="line"/>
      <point x="1567.5" y="1480.0" type="line"/>
      <point x="1112.5" y="1480.0" type="line"/>
      <point x="1112.5" y="950.5" type="line"/>
      <point x="574.5" y="950.5" type="line"/>
      <point x="574.5" y="1480.0" type="line"/>
      <point x="119.5" y="1480.0" type="line"/>
    </contour>
    <contour>
      <point x="363.0" y="1586.0" type="line"/>
      <point x="700.0" y="1586.0" type="line"/>
      <point x="878.5" y="1784.5" type="line"/>
      <point x="810.5" y="1784.5" type="line"/>
      <point x="989.0" y="1586.0" type="line"/>
      <point x="1326.0" y="1586.0" type="line"/>
      <point x="1029.0" y="1902.0" type="line"/>
      <point x="660.0" y="1902.0" type="line"/>
    </contour>
  </outline>
</glyph>
<glyph name="Hbar" format="2">
  <advance width="1687.0"/>
  <unicode hex="0126"/>
  <anchor x="844.5" y="1216.5" name="_center"/>
  <anchor x="844.5" y="0.0" name="bottom"/>
  <anchor x="844.5" y="1216.5" name="center"/>
  <anchor x="844.5" y="1520.0" name="top"/>
  <anchor x="40.0" y="1480.0" name="topleft"/>
  <outline>
    <contour>
      <point x="119.5" y="0.0" type="line"/>
      <point x="574.5" y="0.0" type="line"/>
      <point x="574.5" y="559.5" type="line"/>
      <point x="1112.5" y="559.5" type="line"/>
      <point x="1112.5" y="0.0" type="line"/>
      <point x="1567.5" y="0.0" type="line"/>
      <point x="1567.5" y="1480.0" type="line"/>
      <point x="1112.5" y="1480.0" type="line"/>
      <point x="1112.5" y="950.5" type="line"/>
      <point x="574.5" y="950.5" type="line"/>
      <point x="574.5" y="1480.0" type="line"/>
      <point x="119.5" y="1480.0" type="line"/>
    </contour>
    <contour>
      <point x="6.0" y="1081.5" type="line"/>
      <point x="1681.0" y="1081.5" type="line"/>
      <point x="1681.0" y="1351.5" type="line"/>
      <point x="6.0" y="1351.5" type="line"/>
    </contour>
  </outline>
</glyph>
<glyph name="hbar" format="2">
  <advance width="1371.0"/>
  <unicode hex="0127"/>
  <anchor x="106.5" y="1350.0" name="_stroke"/>
  <anchor x="690.0" y="0.0" name="bottom"/>
  <anchor x="690.0" y="550.0" name="center"/>
  <anchor x="106.5" y="1350.0" name="stroke"/>
  <anchor x="690.0" y="1616.0" name="top"/>
  <outline>
    <contour>
      <point x="106.5" y="0.0" type="line"/>
      <point x="551.0" y="0.0" type="line"/>
      <point x="551.0" y="686.5" type="line"/>
      <point x="586.5" y="721.0"/>
      <point x="646.0" y="744.5"/>
      <point x="707.0" y="744.5" type="curve" smooth="yes"/>
      <point x="784.5" y="744.5"/>
      <point x="827.0" y="711.5"/>
      <point x="827.0" y="604.5" type="curve" smooth="yes"/>
      <point x="827.0" y="0.0" type="line"/>
      <point x="1271.5" y="0.0" type="line"/>
      <point x="1271.5" y="633.0" type="line" smooth="yes"/>
      <point x="1271.5" y="978.5"/>
      <point x="1093.0" y="1118.0"/>
      <point x="869.0" y="1118.0" type="curve" smooth="yes"/>
      <point x="749.0" y="1118.0"/>
      <point x="645.5" y="1077.0"/>
      <point x="570.5" y="1001.5" type="curve"/>
      <point x="551.0" y="1001.5" type="line"/>
      <point x="551.0" y="1616.0" type="line"/>
      <point x="106.5" y="1616.0" type="line"/>
    </contour>
    <contour>
      <point x="1.5" y="1220.0" type="line"/>
      <point x="925.0" y="1220.0" type="line"/>
      <point x="925.0" y="1480.0" type="line"/>
      <point x="1.5" y="1480.0" type="line"/>
    </contour>
  </outline>
</glyph>
